<svg width="22" height="25" viewBox="0 0 22 25" fill="none" xmlns="http://www.w3.org/2000/svg">
<g opacity="0.7">
<mask id="mask0_3_35119" style="mask-type:luminance" maskUnits="userSpaceOnUse" x="0" y="0" width="22" height="25">
<path d="M21.8987 0.747925H0.96875V24.3133H21.8987V0.747925Z" fill="white"/>
</mask>
<g mask="url(#mask0_3_35119)">
<path d="M18.2394 5.54629C18.1487 5.85166 17.9966 6.12924 17.7951 6.35732L17.1326 7.10477C17.018 7.23491 16.9535 7.41082 16.9531 7.5943V8.40533C16.9531 8.58888 17.0177 8.76491 17.1328 8.89469C17.2478 9.02448 17.4038 9.09739 17.5665 9.09739C18.0541 9.09811 18.5216 9.31699 18.8663 9.70602C19.2111 10.095 19.4051 10.6225 19.4058 11.1727V12.2298C19.4053 12.5516 19.3389 12.869 19.2118 13.1571L19.0025 13.6303C18.9563 13.7357 18.9346 13.8526 18.9395 13.97C18.9445 14.0875 18.9758 14.2016 19.0307 14.3015C19.0855 14.4015 19.1621 14.4841 19.253 14.5414C19.344 14.5988 19.4464 14.629 19.5506 14.6293H21.724C22.0383 12.7258 21.9228 10.7637 21.3883 8.92381C20.8537 7.08391 19.9172 5.42545 18.6652 4.10132L18.2394 5.54629Z" fill="white"/>
<path d="M6.32045 9.02537C6.25492 9.17268 6.2403 9.34223 6.27943 9.50103C6.31855 9.65983 6.40864 9.79653 6.53215 9.88454L7.80636 10.8436C7.80515 10.2822 7.94371 9.73166 8.20628 9.25476C8.46885 8.77786 8.84486 8.39376 9.29147 8.14622C9.38847 8.07592 9.46721 7.97785 9.51967 7.86202C9.57213 7.74619 9.59643 7.61674 9.5901 7.48686V7.02095C9.59074 6.47077 9.78473 5.94334 10.1295 5.55431C10.4743 5.16528 10.9418 4.9464 11.4294 4.94568H12.1691C12.2664 4.94522 12.3623 4.91863 12.4487 4.86811C12.5351 4.81759 12.6097 4.74459 12.6661 4.65514C12.7226 4.56569 12.7594 4.46236 12.7735 4.3537C12.7875 4.24503 12.7785 4.13414 12.7471 4.0302L11.7811 0.767905C11.6636 0.767905 11.5493 0.747925 11.431 0.747925C9.83108 0.757412 8.25417 1.17856 6.82026 1.97932C5.38635 2.78008 4.13323 3.93935 3.15625 5.36891L5.11627 5.91384C5.39819 5.99354 5.66015 6.14513 5.882 6.35696C6.10386 6.56879 6.2797 6.83521 6.39601 7.13574C6.51231 7.43626 6.56598 7.76287 6.55288 8.09046C6.53978 8.41805 6.46027 8.73788 6.32045 9.02537Z" fill="white"/>
<path d="M13.6691 5.46052C13.4987 5.72862 13.2742 5.9471 13.0141 6.09792C12.754 6.24874 12.4659 6.32756 12.1735 6.32786H11.4338C11.2711 6.32786 11.1151 6.40077 11 6.53056C10.885 6.66035 10.8204 6.83637 10.8204 7.01992V7.49037C10.827 7.87487 10.7406 8.25412 10.5704 8.58731C10.4002 8.9205 10.1527 9.195 9.85449 9.38127C9.68933 9.46609 9.54063 9.58687 9.41693 9.73667C9.29322 9.88646 9.19694 10.0623 9.1336 10.2542C9.07026 10.4461 9.04111 10.6502 9.04782 10.8548C9.05453 11.0594 9.09697 11.2605 9.1727 11.4465L9.35945 11.867H10.0613C10.5877 11.8651 11.104 12.0296 11.5517 12.3418C11.9994 12.654 12.3606 13.1015 12.5945 13.6335C12.7273 13.9347 12.9322 14.1879 13.186 14.3644C13.4398 14.541 13.7323 14.6339 14.0305 14.6326H15.1123C15.1929 14.6324 15.2727 14.6502 15.3472 14.685C15.4216 14.7197 15.4893 14.7707 15.5463 14.835C15.6032 14.8993 15.6484 14.9756 15.6792 15.0596C15.71 15.1436 15.7258 15.2337 15.7257 15.3246V16.7087C15.7269 17.1668 15.6469 17.6205 15.4904 18.0432C15.3339 18.4659 15.1041 18.849 14.8145 19.17C13.7078 20.6961 12.8618 22.4406 12.3192 24.315C14.3963 24.1051 16.3714 23.2045 17.9946 21.7273C19.6177 20.2501 20.816 18.2627 21.4375 16.0167H19.5499C19.2363 16.0168 18.9278 15.9264 18.6538 15.7541C18.3799 15.5818 18.1495 15.3333 17.9846 15.0323C17.8197 14.7312 17.7258 14.3876 17.7118 14.034C17.6978 13.6805 17.7642 13.3288 17.9046 13.0123L18.1139 12.5391C18.1564 12.4432 18.1784 12.3375 18.1783 12.2303V11.1714C18.1783 10.9878 18.1137 10.8118 17.9987 10.682C17.8836 10.5522 17.7276 10.4793 17.565 10.4793C17.0773 10.4786 16.6099 10.2597 16.2651 9.87067C15.9203 9.48164 15.7263 8.95421 15.7257 8.40403V7.593C15.7251 7.32028 15.7725 7.05015 15.8651 6.79822C15.9576 6.5463 16.0936 6.31759 16.265 6.12533L16.9274 5.37787C16.995 5.30116 17.0459 5.20793 17.0764 5.10541L17.6567 3.14004C16.3259 1.99884 14.7713 1.23566 13.1241 0.914917L13.9154 3.58234C14.0094 3.89498 14.0361 4.22839 13.9933 4.55499C13.9504 4.88159 13.8393 5.19199 13.6691 5.46052Z" fill="white"/>
<path d="M10.4203 24.306C9.8758 22.563 9.59657 20.7285 9.59444 18.8804C9.59486 18.7209 9.56726 18.563 9.51323 18.4157C9.45921 18.2684 9.37984 18.1346 9.27971 18.0221L8.54802 17.1965C8.43315 17.0668 8.36863 16.8909 8.36863 16.7075C8.36863 16.5241 8.43315 16.3482 8.54802 16.2184L8.91346 15.8061C9.07341 15.6261 9.17902 15.3938 9.21529 15.1422C9.25156 14.8907 9.21665 14.6326 9.1155 14.4047L8.50617 13.0297L5.85632 11.0361C5.47864 10.7547 5.2073 10.3248 5.09511 9.83003C4.98293 9.33529 5.03792 8.81114 5.2494 8.35963C5.29951 8.25762 5.32814 8.14398 5.33309 8.02748C5.33803 7.91098 5.31915 7.79475 5.2779 7.68781C5.23666 7.58086 5.17416 7.48606 5.09524 7.41074C5.01632 7.33542 4.92309 7.28159 4.82278 7.25344L2.42649 6.58862C1.47287 8.3947 0.969226 10.4578 0.96875 12.5601C0.979772 15.4899 1.9515 18.3114 3.69665 20.4809C5.44181 22.6503 7.83689 24.0142 10.4203 24.3096" fill="white"/>
<path d="M14.5017 16.7084V16.0164H14.0332C13.5069 16.0183 12.9906 15.8538 12.5429 15.5416C12.0952 15.2294 11.7339 14.7819 11.5001 14.2499C11.3672 13.9487 11.1623 13.6955 10.9085 13.519C10.6547 13.3424 10.3622 13.2495 10.0641 13.2509H9.97472L10.2162 13.7885C10.4252 14.2595 10.5023 14.791 10.4372 15.3126C10.3721 15.8341 10.1678 16.321 9.85156 16.7084L10.151 17.0463C10.3655 17.2868 10.5355 17.573 10.6513 17.8882C10.7671 18.2035 10.8263 18.5415 10.8255 18.8827C10.8439 20.3607 11.0273 21.8303 11.3713 23.2566C11.9522 21.4027 12.8287 19.6842 13.9575 18.1861C14.131 17.9932 14.2685 17.763 14.3619 17.5093C14.4554 17.2555 14.5029 16.9832 14.5017 16.7084Z" fill="white"/>
</g>
</g>
</svg>
