<svg width="32" height="36" viewBox="0 0 32 36" fill="none" xmlns="http://www.w3.org/2000/svg">
<mask id="mask0_3_35104" style="mask-type:luminance" maskUnits="userSpaceOnUse" x="0" y="0" width="32" height="36">
<path d="M32 0H0V36H32V0Z" fill="white"/>
</mask>
<g mask="url(#mask0_3_35104)">
<g opacity="0.7">
<path d="M16.7678 19.884C16.3745 20.0517 15.9402 20.0517 15.5468 19.884L8.13281 16.7081V23.9149C8.1327 24.0456 8.16794 24.1733 8.23384 24.281C8.29975 24.3887 8.3932 24.4713 8.50181 24.5179L15.9518 27.7106C16.0829 27.7668 16.2277 27.7668 16.3588 27.7106L23.8088 24.5179C23.9174 24.4713 24.0109 24.3887 24.0768 24.281C24.1427 24.1733 24.1779 24.0456 24.1778 23.9149V16.7081L16.7678 19.884Z" fill="white"/>
<path d="M28.3993 12.3217L16.3623 7.16128C16.2305 7.10509 16.0851 7.10509 15.9533 7.16128L3.91731 12.3217C3.80843 12.3679 3.71467 12.4504 3.64849 12.5582C3.58232 12.6659 3.54687 12.7937 3.54688 12.9247C3.54687 13.0556 3.58232 13.1834 3.64849 13.2911C3.71467 13.3989 3.80843 13.4814 3.91731 13.5277L15.9543 18.688C16.086 18.7444 16.2316 18.7444 16.3633 18.688L28.3993 13.531C28.5082 13.4847 28.6019 13.4022 28.6681 13.2945C28.7343 13.1868 28.7697 13.059 28.7697 12.928C28.7697 12.7971 28.7343 12.6693 28.6681 12.5615C28.6019 12.4538 28.5082 12.3713 28.3993 12.325V12.3217Z" fill="white"/>
<path d="M6.41507 26.4626C6.26355 26.4626 6.11823 26.3947 6.01109 26.2738C5.90394 26.1529 5.84375 25.989 5.84375 25.818V13.9031C5.84375 13.732 5.904 13.5679 6.01123 13.4469C6.11847 13.3259 6.26391 13.2579 6.41557 13.2579C6.56723 13.2579 6.71267 13.3259 6.81991 13.4469C6.92715 13.5679 6.98739 13.732 6.98739 13.9031V25.818C6.98739 25.9027 6.97258 25.9867 6.94381 26.0649C6.91503 26.1432 6.87286 26.2143 6.8197 26.2742C6.76654 26.3341 6.70345 26.3815 6.63401 26.4139C6.56458 26.4462 6.49018 26.4628 6.41507 26.4626Z" fill="white"/>
<path d="M6.41531 25.1721C5.9593 25.1727 5.52212 25.3768 5.19967 25.7395C4.87723 26.1023 4.69584 26.5941 4.69531 27.1071V29.6879C4.69531 29.7725 4.71013 29.8563 4.73893 29.9346C4.76773 30.0128 4.80993 30.0838 4.86314 30.1437C4.91635 30.2035 4.97952 30.251 5.04904 30.2834C5.11855 30.3158 5.19307 30.3325 5.26831 30.3325H7.56231C7.71428 30.3325 7.86003 30.2646 7.96748 30.1437C8.07494 30.0228 8.13531 29.8588 8.13531 29.6879V27.1071C8.13478 26.5941 7.9534 26.1023 7.63095 25.7395C7.3085 25.3768 6.87132 25.1727 6.41531 25.1721Z" fill="white"/>
</g>
</g>
</svg>
