<svg width="21" height="20" viewBox="0 0 21 20" fill="none" xmlns="http://www.w3.org/2000/svg">
<g opacity="0.7">
<path d="M18.0412 10.7645H16.4766C16.6403 11.2692 16.7239 11.8023 16.7232 12.3395V18.9913C16.7233 19.2151 16.6892 19.4373 16.6226 19.6483H19.2092C19.6737 19.6477 20.1191 19.4398 20.4475 19.0703C20.776 18.7008 20.9607 18.1998 20.9612 17.6773V14.0495C20.9604 13.1786 20.6524 12.3436 20.105 11.7278C19.5576 11.1119 18.8154 10.7655 18.0412 10.7645Z" fill="white"/>
<path d="M4.96456 12.3395C4.96395 11.8023 5.04745 11.2692 5.21123 10.7645H3.64656C2.87229 10.7655 2.12998 11.112 1.58255 11.7281C1.03512 12.3441 0.727268 13.1792 0.726563 14.0503L0.726562 17.6765C0.727092 18.1991 0.911847 18.7001 1.2403 19.0696C1.56875 19.4391 2.01407 19.6469 2.47856 19.6475H5.06523C4.9986 19.4366 4.96456 19.2144 4.96456 18.9905V12.3395Z" fill="white"/>
<path d="M12.6686 9.05188H9.09188C8.31772 9.05287 7.57551 9.39929 7.0281 10.0151C6.48068 10.631 6.17276 11.466 6.17188 12.3369V18.9886C6.17188 19.1629 6.2334 19.33 6.34293 19.4532C6.45245 19.5764 6.60099 19.6456 6.75588 19.6456H15.0045C15.1594 19.6456 15.308 19.5764 15.4175 19.4532C15.527 19.33 15.5885 19.1629 15.5885 18.9886V12.3406C15.5885 11.469 15.281 10.6331 14.7335 10.0165C14.186 9.3998 13.4433 9.05287 12.6686 9.05188Z" fill="white"/>
<path d="M10.831 0.34082C10.1366 0.340969 9.45777 0.572753 8.88044 1.00687C8.30311 1.44099 7.85315 2.05794 7.58747 2.77972C7.32179 3.5015 7.25231 4.2957 7.38782 5.06191C7.52332 5.82811 7.85773 6.53191 8.34876 7.08432C8.83979 7.63673 9.46538 8.01293 10.1465 8.16538C10.8275 8.31782 11.5335 8.23966 12.1751 7.94077C12.8167 7.64188 13.3651 7.13568 13.7509 6.48618C14.1368 5.83668 14.3428 5.07304 14.343 4.29182C14.3419 3.24432 13.9716 2.24005 13.3132 1.49936C12.6548 0.758659 11.7621 0.342011 10.831 0.34082Z" fill="white"/>
<path d="M4.63963 4.02356C4.1205 4.02386 3.6131 4.19729 3.18157 4.52194C2.75004 4.84659 2.41375 5.30788 2.21521 5.8475C2.01667 6.38712 1.96479 6.98084 2.06614 7.55362C2.16748 8.1264 2.41749 8.65254 2.78457 9.0655C3.15165 9.47846 3.61932 9.75972 4.12846 9.87373C4.6376 9.98774 5.16535 9.92938 5.64501 9.70603C6.12468 9.48267 6.53471 9.10434 6.82329 8.61887C7.11186 8.1334 7.26603 7.56258 7.26629 6.97856C7.26559 6.19508 6.98862 5.44393 6.49618 4.88993C6.00374 4.33594 5.33604 4.02435 4.63963 4.02356Z" fill="white"/>
<path d="M17.0485 4.02356C16.529 4.02356 16.0212 4.19687 15.5892 4.52157C15.1573 4.84627 14.8206 5.30777 14.6218 5.84773C14.423 6.38769 14.371 6.98184 14.4723 7.55505C14.5737 8.12826 14.8239 8.65479 15.1912 9.06805C15.5585 9.48132 16.0266 9.76276 16.5361 9.87678C17.0456 9.9908 17.5738 9.93228 18.0537 9.70862C18.5337 9.48497 18.9439 9.10621 19.2325 8.62027C19.5212 8.13432 19.6752 7.563 19.6752 6.97856C19.6745 6.19508 19.3975 5.44393 18.9051 4.88993C18.4126 4.33594 17.745 4.02435 17.0485 4.02356Z" fill="white"/>
</g>
</svg>
