<svg xmlns="http://www.w3.org/2000/svg" width="156" height="48" viewBox="0 0 156 48">
  <g id="Group_166606" data-name="Group 166606" transform="translate(0 0)">
    <path id="Path_104085" data-name="Path 104085" d="M186.191,112.41H53.107a11.454,11.454,0,0,1-11.458-11.451v-25.1A11.454,11.454,0,0,1,53.107,64.41H186.191a11.454,11.454,0,0,1,11.458,11.451v25.1a11.454,11.454,0,0,1-11.458,11.451" transform="translate(-41.649 -64.41)" fill="#f0f5f7"/>
    <path id="Path_104086" data-name="Path 104086" d="M755.783,211.459a2.913,2.913,0,0,1,0,5.816h-1.955v-5.816Zm-1.229,5.163h1.181c1.318,0,2.052-.806,2.052-2.249s-.729-2.261-2.052-2.261h-1.181Z" transform="translate(-694.38 -199.184)" fill="#333"/>
    <path id="Path_104087" data-name="Path 104087" d="M822.075,232.218a1.953,1.953,0,1,1,1.943,2.169,1.934,1.934,0,0,1-1.943-2.169m3.168,0c0-.988-.484-1.552-1.225-1.552s-1.229.564-1.229,1.552.488,1.552,1.229,1.552,1.225-.564,1.225-1.552" transform="translate(-756.93 -216.223)" fill="#333"/>
    <path id="Path_104088" data-name="Path 104088" d="M882.37,235.11h-.713l-.947-3.245h-.016l-.943,3.245h-.713l-1.173-4.192h.7l.838,3.41h.016l.947-3.41h.677l.951,3.41h.016l.838-3.41h.693Z" transform="translate(-808.062 -217.019)" fill="#333"/>
    <path id="Path_104089" data-name="Path 104089" d="M957.651,230.122h.661v.669h.016a1.4,1.4,0,0,1,1.33-.742,1.38,1.38,0,0,1,1.451,1.544v2.721h-.7v-2.6c0-.677-.318-1.048-.963-1.048a1.069,1.069,0,0,0-1.092,1.177v2.467h-.7Z" transform="translate(-881.189 -216.223)" fill="#333"/>
    <rect id="Rectangle_24133" data-name="Rectangle 24133" width="0.701" height="5.816" transform="translate(81.26 12.274)" fill="#333"/>
    <path id="Path_104090" data-name="Path 104090" d="M1037.361,232.218a1.953,1.953,0,1,1,1.943,2.169,1.934,1.934,0,0,1-1.943-2.169m3.168,0c0-.988-.484-1.552-1.225-1.552s-1.229.564-1.229,1.552.488,1.552,1.229,1.552,1.225-.564,1.225-1.552" transform="translate(-954.245 -216.223)" fill="#333"/>
    <path id="Path_104091" data-name="Path 104091" d="M1095.225,233.128c0-.717.552-1.169,1.52-1.225l1.2-.069v-.351c0-.512-.339-.818-.919-.818a.88.88,0,0,0-.967.665h-.677a1.48,1.48,0,0,1,1.661-1.282c.984,0,1.6.532,1.6,1.366v2.9h-.665v-.722h-.016a1.528,1.528,0,0,1-1.346.794,1.259,1.259,0,0,1-1.395-1.258m2.721-.407v-.343l-1.12.069c-.564.036-.887.286-.887.681s.335.661.838.661a1.1,1.1,0,0,0,1.169-1.068" transform="translate(-1007.279 -216.223)" fill="#333"/>
    <path id="Path_104092" data-name="Path 104092" d="M1149.373,215.179c0-1.314.721-2.169,1.778-2.169a1.473,1.473,0,0,1,1.334.754h.016v-2.306h.7v5.816h-.669v-.709h-.012a1.5,1.5,0,0,1-1.354.782c-1.068,0-1.794-.855-1.794-2.169m.718,0c0,.951.468,1.552,1.209,1.552.722,0,1.205-.613,1.205-1.552s-.484-1.552-1.205-1.552c-.742,0-1.209.6-1.209,1.552" transform="translate(-1056.907 -199.184)" fill="#333"/>
    <path id="Path_104093" data-name="Path 104093" d="M1234.3,232.218a1.953,1.953,0,1,1,1.943,2.169,1.934,1.934,0,0,1-1.943-2.169m3.168,0c0-.988-.484-1.552-1.225-1.552s-1.229.564-1.229,1.552.488,1.552,1.229,1.552,1.225-.564,1.225-1.552" transform="translate(-1134.743 -216.223)" fill="#333"/>
    <path id="Path_104094" data-name="Path 104094" d="M1294.191,230.122h.661v.669h.016a1.4,1.4,0,0,1,1.33-.742,1.38,1.38,0,0,1,1.451,1.544v2.721h-.7v-2.6c0-.677-.318-1.048-.963-1.048a1.069,1.069,0,0,0-1.092,1.177v2.467h-.7Z" transform="translate(-1189.637 -216.223)" fill="#333"/>
    <path id="Path_104095" data-name="Path 104095" d="M1373,218.8v1.012h.814v.576H1373v2.491c0,.383.161.556.52.556a2.74,2.74,0,0,0,.29-.02V224a2.494,2.494,0,0,1-.443.032c-.77,0-1.068-.314-1.068-1.12v-2.527h-.625v-.576h.625V218.8Z" transform="translate(-1260.656 -205.911)" fill="#333"/>
    <path id="Path_104096" data-name="Path 104096" d="M1411.63,211.458h.7v2.293h.016a1.388,1.388,0,0,1,1.33-.742,1.415,1.415,0,0,1,1.475,1.556v2.709h-.7v-2.58a.93.93,0,0,0-.992-1.064,1.089,1.089,0,0,0-1.129,1.2v2.443h-.7Z" transform="translate(-1297.273 -199.184)" fill="#333"/>
    <path id="Path_104097" data-name="Path 104097" d="M1470.66,233.112a1.66,1.66,0,0,1-1.745,1.274,1.9,1.9,0,0,1-1.931-2.152,1.937,1.937,0,0,1,1.9-2.185,1.838,1.838,0,0,1,1.83,2.092v.266h-3.007v.04a1.2,1.2,0,0,0,1.225,1.33,1.012,1.012,0,0,0,1.04-.665Zm-2.95-1.254h2.277a1.121,1.121,0,0,0-1.116-1.2,1.178,1.178,0,0,0-1.161,1.2" transform="translate(-1348.006 -216.223)" fill="#333"/>
    <path id="Path_104098" data-name="Path 104098" d="M753.863,336.966h1.814l3.929,10.819h-1.762l-.99-2.924h-4.169l-1,2.924h-1.762Zm-.727,6.545H756.4l-1.612-4.753h-.03Z" transform="translate(-690.805 -314.215)" fill="#333"/>
    <path id="Path_104099" data-name="Path 104099" d="M887.033,370.439h1.62V371.8h.037a2.657,2.657,0,0,1,2.467-1.507c2.009,0,3.3,1.574,3.3,4.094v.008c0,2.512-1.3,4.094-3.276,4.094A2.709,2.709,0,0,1,888.69,377h-.037v3.951h-1.62Zm5.773,3.951v-.008c0-1.679-.8-2.707-2.069-2.707-1.23,0-2.092,1.065-2.092,2.707v.008c0,1.634.87,2.7,2.092,2.7,1.275,0,2.069-1.035,2.069-2.7" transform="translate(-816.466 -344.756)" fill="#333"/>
    <path id="Path_104100" data-name="Path 104100" d="M1000.157,370.439h1.62V371.8h.037a2.657,2.657,0,0,1,2.467-1.507c2.009,0,3.3,1.574,3.3,4.094v.008c0,2.512-1.3,4.094-3.276,4.094a2.709,2.709,0,0,1-2.489-1.484h-.037v3.951h-1.62Zm5.773,3.951v-.008c0-1.679-.8-2.707-2.069-2.707-1.23,0-2.092,1.065-2.092,2.707v.008c0,1.634.87,2.7,2.092,2.7,1.275,0,2.069-1.035,2.069-2.7" transform="translate(-920.147 -344.756)" fill="#333"/>
    <path id="Path_104101" data-name="Path 104101" d="M1156.26,342.93l-.007-.112h1.635l.015.1c.15,1,1.147,1.62,2.594,1.62s2.362-.652,2.362-1.664v-.008c0-.87-.592-1.342-2.024-1.657l-1.177-.247c-2.122-.45-3.149-1.425-3.149-3.029v-.008c.008-1.844,1.635-3.111,3.921-3.111,2.257,0,3.8,1.23,3.914,3.044l.007.127h-1.635l-.007-.1c-.15-1-1.02-1.612-2.3-1.612-1.342.008-2.2.645-2.2,1.589v.008c0,.81.615,1.3,1.964,1.6l1.185.247c2.234.472,3.194,1.38,3.194,3.051v.008c0,1.972-1.559,3.224-4.124,3.224-2.429,0-4.034-1.155-4.169-3.059" transform="translate(-1063.213 -312.239)" fill="#333"/>
    <path id="Path_104102" data-name="Path 104102" d="M1273.653,355.34v-4.521h-1.132v-1.29h1.132v-2.054h1.657v2.054h1.477v1.29h-1.477v4.423c0,.8.36,1.042,1.042,1.042a3.382,3.382,0,0,0,.435-.03v1.252a5.421,5.421,0,0,1-.825.067c-1.559,0-2.309-.66-2.309-2.234" transform="translate(-1169.776 -323.847)" fill="#333"/>
    <path id="Path_104103" data-name="Path 104103" d="M1342.349,374.383v-.015c0-2.519,1.492-4.079,3.734-4.079s3.749,1.552,3.749,4.079v.015c0,2.542-1.484,4.1-3.741,4.1s-3.741-1.567-3.741-4.1m5.826,0v-.015c0-1.724-.825-2.722-2.092-2.722-1.245,0-2.077,1-2.077,2.722v.015c0,1.747.825,2.744,2.092,2.744s2.077-1,2.077-2.744" transform="translate(-1233.775 -344.756)" fill="#333"/>
    <path id="Path_104104" data-name="Path 104104" d="M1456.192,370.439h1.62v1.35h.037a1.856,1.856,0,0,1,1.814-1.5,3.133,3.133,0,0,1,.562.06v1.507a2.318,2.318,0,0,0-.727-.09,1.635,1.635,0,0,0-1.687,1.859v4.7h-1.62Z" transform="translate(-1338.115 -344.756)" fill="#333"/>
    <path id="Path_104105" data-name="Path 104105" d="M1517.489,374.413v-.008c0-2.467,1.425-4.116,3.636-4.116s3.569,1.59,3.569,3.959v.547h-5.586c.03,1.492.847,2.362,2.137,2.362a1.788,1.788,0,0,0,1.8-1.087l.022-.06h1.537l-.015.082a3.231,3.231,0,0,1-3.381,2.392c-2.317,0-3.719-1.582-3.719-4.071m1.642-.765h3.959c-.135-1.365-.9-2.032-1.957-2.032a2.012,2.012,0,0,0-2,2.032" transform="translate(-1394.296 -344.756)" fill="#333"/>
    <path id="Path_104106" data-name="Path 104106" d="M366.36,214.642a6.22,6.22,0,0,0-2.059,2.115,4.963,4.963,0,0,0-.545,2.3,4.8,4.8,0,0,0,.323,1.792,5.913,5.913,0,0,0,.914,1.542,6.249,6.249,0,0,0,1.976,1.45,13.214,13.214,0,0,1-1.662,3.2,10.03,10.03,0,0,1-2.041,2.318,2.953,2.953,0,0,1-1.745.683,5.438,5.438,0,0,1-1.792-.425l-.351-.129-.573-.24a4.645,4.645,0,0,0-1.348-.185,5.164,5.164,0,0,0-1.7.333l-.443.166-.554.222a3.643,3.643,0,0,1-1.33.259q-1.4,0-3.011-1.967a14.46,14.46,0,0,1-2.429-4.23,13.3,13.3,0,0,1-.822-4.571,7.35,7.35,0,0,1,1.69-4.95,5.725,5.725,0,0,1,4.59-1.976,5.053,5.053,0,0,1,1.976.388l.425.166.443.185a2.685,2.685,0,0,0,.942.24,2.807,2.807,0,0,0,1.034-.2l.591-.222.425-.166a6.478,6.478,0,0,1,2.29-.388,5.8,5.8,0,0,1,4.784,2.29m-4.691-8.8q.037.406.037.628a4.927,4.927,0,0,1-.665,2.364,5.022,5.022,0,0,1-1.736,1.893,4.348,4.348,0,0,1-2.364.674,5.86,5.86,0,0,1-.055-.646,4.355,4.355,0,0,1,.582-2.059,5.651,5.651,0,0,1,1.579-1.838,4.988,4.988,0,0,1,2.253-.96c.074-.012.2-.031.369-.055" transform="translate(-321.667 -194.034)" fill="#333"/>
  </g>
</svg>
