<svg xmlns="http://www.w3.org/2000/svg" xmlns:xlink="http://www.w3.org/1999/xlink" width="36" height="36" viewBox="0 0 36 36">
  <defs>
    <linearGradient id="linear-gradient" x1="0.93" y1="0.039" x2="0.059" y2="0.925" gradientUnits="objectBoundingBox">
      <stop offset="0" stop-color="#ce06e8"/>
      <stop offset="0.674" stop-color="#ff7f00"/>
      <stop offset="1" stop-color="#fff500"/>
    </linearGradient>
    <clipPath id="clip-path">
      <path id="Path_103889" data-name="Path 103889" d="M2.278,2.461C-.543,5.39.035,8.5.035,17.956c0,7.851-1.37,15.721,5.8,17.574,2.239.576,22.078.576,24.314,0,2.985-.77,5.414-3.191,5.746-7.413.046-.589.046-19.717,0-20.318C35.541,3.3,32.772.708,29.124.184A32.3,32.3,0,0,0,23.831.019C8.615.026,5.28-.651,2.278,2.461Z" transform="translate(128.07 86.039)" fill="url(#linear-gradient)"/>
    </clipPath>
  </defs>
  <g id="Mask_Group_119136" data-name="Mask Group 119136" transform="translate(-128 -86)" clip-path="url(#clip-path)">
    <g id="instagram" transform="translate(128.07 86.039)">
      <path id="Path_103876" data-name="Path 103876" d="M2.278,2.461C-.543,5.39.035,8.5.035,17.956c0,7.851-1.37,15.721,5.8,17.574,2.239.576,22.078.576,24.314,0,2.985-.77,5.414-3.191,5.746-7.413.046-.589.046-19.717,0-20.318C35.541,3.3,32.772.708,29.124.184A32.3,32.3,0,0,0,23.831.019C8.615.026,5.28-.651,2.278,2.461Z" transform="translate(0 0)" fill="url(#linear-gradient)"/>
      <path id="Path_103877" data-name="Path 103877" d="M16.392,3.143C10.961,3.143,5.8,2.66,3.834,7.715c-.814,2.088-.7,4.8-.7,8.681,0,3.407-.109,6.608.7,8.679C5.8,30.132,11,29.648,16.389,29.648c5.2,0,10.563.541,12.556-4.573.815-2.109.7-4.779.7-8.679,0-5.177.286-8.519-2.226-11.029-2.543-2.542-5.981-2.224-11.029-2.224ZM15.2,5.531c11.328-.018,12.77-1.277,11.974,16.215-.283,6.186-4.994,5.508-10.785,5.508-10.56,0-10.863-.3-10.863-10.864C5.531,5.7,6.368,5.537,15.2,5.528Zm8.262,2.2a1.59,1.59,0,1,0,1.59,1.59A1.59,1.59,0,0,0,23.467,7.731ZM16.392,9.59A6.8,6.8,0,1,0,23.2,16.4a6.806,6.806,0,0,0-6.8-6.806Zm0,2.388c5.841,0,5.848,8.835,0,8.835S10.544,11.978,16.392,11.978Z" transform="translate(1.588 1.57)" fill="#fff"/>
    </g>
  </g>
</svg>
