<svg xmlns="http://www.w3.org/2000/svg" xmlns:xlink="http://www.w3.org/1999/xlink" width="36" height="36" viewBox="0 0 36 36">
  <defs>
    <clipPath id="clip-path">
      <rect id="Rectangle_23943" data-name="Rectangle 23943" width="36" height="36" rx="4" transform="translate(284 86)" fill="#bd1c04"/>
    </clipPath>
  </defs>
  <g id="Mask_Group_119139" data-name="Mask Group 119139" transform="translate(-284 -86)" clip-path="url(#clip-path)">
    <g id="quora" transform="translate(284 86)">
      <g id="background">
        <rect id="Rectangle_23935" data-name="Rectangle 23935" width="36" height="36" rx="4" fill="#bd1c04"/>
      </g>
      <path id="icon" d="M55.187,50.656s-.108,1.614-1.577,1.614c-1.135,0-1.908-.863-2.635-1.988A9.9,9.9,0,0,0,54.345,42.8,9.709,9.709,0,0,0,46.1,33.086,9.561,9.561,0,0,0,44.837,33a9.805,9.805,0,0,0,0,19.6,9.335,9.335,0,0,0,2.741-.409c1.1,1.745,2.491,3.314,4.674,3.314,4.441,0,4.625-4.844,4.625-4.844Zm-5.864-3.046a5.06,5.06,0,0,0-2.943-2.279c-.094-.02-.184-.039-.276-.053A6.153,6.153,0,0,0,41.5,46.361l.587,1.211a3.105,3.105,0,0,1,2.066,0c.728.17,1.33,1,1.953,2.064.17.29.344.6.52.916a4.091,4.091,0,0,1-.52.217,3.8,3.8,0,0,1-1.266.217c-3.068,0-5.543-3.665-5.543-8.182s2.481-8.182,5.543-8.182a3.845,3.845,0,0,1,1.266.219c2.455.845,4.277,4.091,4.277,7.977A11,11,0,0,1,49.323,47.611Z" transform="translate(-28.103 -26.25)" fill="#fff"/>
    </g>
  </g>
</svg>
