<svg xmlns="http://www.w3.org/2000/svg" xmlns:xlink="http://www.w3.org/1999/xlink" width="36" height="36" viewBox="0 0 36 36">
  <defs>
    <clipPath id="clip-path">
      <rect id="Rectangle_23941" data-name="Rectangle 23941" width="36" height="36" rx="4" transform="translate(180 86)" fill="#fff"/>
    </clipPath>
  </defs>
  <g id="Mask_Group_119137" data-name="Mask Group 119137" transform="translate(-180 -86)" clip-path="url(#clip-path)">
    <g id="Group_163728" data-name="Group 163728" transform="translate(208 -112)">
      <rect id="Rectangle_23608" data-name="Rectangle 23608" width="36" height="36" rx="4" transform="translate(-28 198)" fill="#fff"/>
      <g id="tik-tok" transform="translate(-19.891 202.797)">
        <g id="Group_163727" data-name="Group 163727" transform="translate(2.593 1.011)">
          <path id="Path_103878" data-name="Path 103878" d="M112.491,212.243a3.154,3.154,0,0,0-1.639,5.875,3.105,3.105,0,0,1-.505-1.657,3.179,3.179,0,0,1,3.2-3.208,3.3,3.3,0,0,1,1.006.158v-3.537a6.96,6.96,0,0,0-1.006-.075H113.5v2.6A3.3,3.3,0,0,0,112.491,212.243Z" transform="translate(-108.391 -199.138)" fill="#f00044"/>
          <path id="Path_103879" data-name="Path 103879" d="M337.14,24h-.94a5.4,5.4,0,0,0,2.043,3.256A5.443,5.443,0,0,1,337.14,24Z" transform="translate(-325.329 -24)" fill="#f00044"/>
          <path id="Path_103880" data-name="Path 103880" d="M105.99,144.421a4.423,4.423,0,0,1-1.011-.121v3.165a7.251,7.251,0,0,1-3.445-.872,8.8,8.8,0,0,1-1.96-1.426l.018,9.758a9.268,9.268,0,0,1-1.96,5.8,6.292,6.292,0,0,1-3.726,2.326,5.6,5.6,0,0,1-1.006.093,5.873,5.873,0,0,1-4.1-1.733,7.085,7.085,0,0,0,.426.576,6.093,6.093,0,0,0,4.733,2.419,5.6,5.6,0,0,0,1.006-.093,6.293,6.293,0,0,0,3.726-2.326,9.268,9.268,0,0,0,1.96-5.8l-.066-9.758a8.44,8.44,0,0,0,1.96,1.426,7.341,7.341,0,0,0,3.445.872" transform="translate(-88.8 -139.014)" fill="#f00044"/>
        </g>
        <path id="Path_103881" data-name="Path 103881" d="M32.805,189.757a6.687,6.687,0,0,1,4.693-1.947v-.936a6.96,6.96,0,0,0-1.006-.075,6.681,6.681,0,0,0-4.741,1.947,6.567,6.567,0,0,0,.009,9.351,6.688,6.688,0,0,0,.628.549,6.545,6.545,0,0,1-1.538-4.214A6.625,6.625,0,0,1,32.805,189.757Z" transform="translate(-29.8 -174.636)" fill="#08fff9"/>
        <path id="Path_103882" data-name="Path 103882" d="M386.061,100.13v-.94h-.009A5.363,5.363,0,0,1,382.8,98.1,5.368,5.368,0,0,0,386.061,100.13Z" transform="translate(-367.288 -92.996)" fill="#08fff9"/>
        <path id="Path_103883" data-name="Path 103883" d="M147.313,19.948a3.3,3.3,0,0,0,1.186-.154,3.167,3.167,0,0,0,2.193-3l0-5.229V2.011h2.514A5.471,5.471,0,0,1,153.105,1h-3.463v9.549l0,5.229a3.167,3.167,0,0,1-2.193,3,3.119,3.119,0,0,1-1.186.154,3.224,3.224,0,0,1-1.459-.444,3.206,3.206,0,0,0,2.513,1.459Z" transform="translate(-139.747 -1)" fill="#08fff9"/>
        <path id="Path_103884" data-name="Path 103884" d="M60.444,48.3a6.337,6.337,0,0,0,3.726-2.229,8.646,8.646,0,0,0,1.96-5.562l-.018-9.352a8.437,8.437,0,0,0,1.96,1.367,7.6,7.6,0,0,0,3.445.836V30.324A5.344,5.344,0,0,1,68.257,27.9,6.7,6.7,0,0,1,66.213,24H63.7V35.423l0,6.255a3.781,3.781,0,0,1-2.193,3.59,2.645,2.645,0,0,1-1.186.184,3.153,3.153,0,0,1-2.514-1.74,3.96,3.96,0,0,1-1.56-3.191c-.026-2.113,1.415-3.837,3.2-3.837a2.812,2.812,0,0,1,1.006.189V33.762a6.186,6.186,0,0,0-4.693,2.329,9,9,0,0,0-.413,10.629,6.012,6.012,0,0,0,4.1,1.661,5.358,5.358,0,0,0,1.006-.084Z" transform="translate(-52.745 -22.989)"/>
      </g>
    </g>
  </g>
</svg>
