<svg xmlns="http://www.w3.org/2000/svg" xmlns:xlink="http://www.w3.org/1999/xlink" width="36" height="36" viewBox="0 0 36 36">
  <defs>
    <clipPath id="clip-path">
      <rect id="Background" width="36" height="36" rx="4" fill="#03a9f4"/>
    </clipPath>
  </defs>
  <g id="Mask_Group_119134" data-name="Mask Group 119134" clip-path="url(#clip-path)">
    <g id="Color_Icon" data-name="Color Icon">
      <g id="_04.Twitter" data-name="04.Twitter">
        <rect id="Background-2" data-name="Background" width="36" height="36" rx="4" fill="#03a9f4"/>
        <path id="Icon" d="M50.112,38.237a9.948,9.948,0,0,1-2.754.756,4.751,4.751,0,0,0,2.1-2.643,9.549,9.549,0,0,1-3.032,1.158,4.779,4.779,0,0,0-8.271,3.268,4.943,4.943,0,0,0,.111,1.089,13.538,13.538,0,0,1-9.855-5,4.784,4.784,0,0,0,1.471,6.395,4.718,4.718,0,0,1-2.16-.59v.052a4.8,4.8,0,0,0,3.83,4.694,4.769,4.769,0,0,1-1.253.156,4.264,4.264,0,0,1-.907-.081,4.829,4.829,0,0,0,4.469,3.33,9.613,9.613,0,0,1-5.921,2.039A8.635,8.635,0,0,1,26.8,52.8,13.615,13.615,0,0,0,47.751,41.337c0-.211,0-.414-.017-.618A9.512,9.512,0,0,0,50.112,38.237Z" transform="translate(-20.453 -27.468)" fill="#fff"/>
      </g>
    </g>
  </g>
</svg>
