<svg xmlns="http://www.w3.org/2000/svg" width="257" height="6.514" viewBox="0 0 257 6.514"><defs><style>.a{fill:#fed104;}</style></defs><g transform="translate(-44.86 -43.3)"><path class="a" d="M47.671,44.119H48.3a1.544,1.544,0,0,0,.818-.074,4.784,4.784,0,0,1,.77-.074h2.262a3.531,3.531,0,0,1,.626.037,12.389,12.389,0,0,0,2.888.186c2.07-.074,4.188-.074,6.257-.186,1.2-.037,2.407-.037,3.61-.074,2.984-.074,5.969-.074,8.9-.149,2.262-.074,4.476.074,6.739.112l5.1.112a13.487,13.487,0,0,0,1.733-.074,31.57,31.57,0,0,1,3.273-.112c2.359.074,4.717.149,7.076,0,.578-.037,1.107-.074,1.685-.112,1.492-.037,2.936-.037,4.428-.037H115.54c.866,0,1.685,0,2.5.074a7.581,7.581,0,0,0,1.3.037c1.011-.037,1.973-.112,2.984-.112,2.166-.037,4.332-.074,6.5-.037,2.214.037,4.428.037,6.642-.037,1.925-.037,3.851-.037,5.728.112a39.9,39.9,0,0,0,5.583,0c2.07-.149,4.236-.112,6.306-.074.722,0,1.444.037,2.166,0,2.984-.074,5.92-.186,8.9-.149,2.792.037,5.584,0,8.423.074,2.5.074,5.054.074,7.605.074,2.792,0,5.584-.112,8.327-.112,1.733,0,3.417.074,5.1.112,2.166.037,4.332,0,6.5.037,2.455.037,4.91,0,7.316,0,.433,0,.866,0,1.3-.037,1.973-.149,4-.112,5.969-.223a5.5,5.5,0,0,0,1.4-.112h.144a.211.211,0,0,0,.337,0h1.3a1.041,1.041,0,0,0,.818,0h.241a.325.325,0,0,0,.241.074h2.07a.325.325,0,0,0,.241-.074h.481a.484.484,0,0,0,.289.074c.578,0,1.2.037,1.781.037,1.4.074,2.84.037,4.236.112q3.682.168,7.364.112c1.54-.037,3.081-.074,4.621-.186a5.985,5.985,0,0,1,1.155,0,50.653,50.653,0,0,0,5.824.074,1.07,1.07,0,0,0,.818-.223h1.492c0,.112.193.149.433.186.915.074,1.733.223,2.7.223h2.118c3.129-.037,6.209,0,9.338-.037,1.733,0,3.466,0,5.2.037a6.167,6.167,0,0,1,.818.112,10.142,10.142,0,0,0,3.369.149,1.334,1.334,0,0,1,.385,0,9.943,9.943,0,0,1,1.877.149c1.059.112,2.166,0,3.273.074a21.988,21.988,0,0,0,2.214.074h7.461c1.637.112,3.273.186,4.91.149a10.158,10.158,0,0,1,2.455.261,10.985,10.985,0,0,0,2.31.261,4.245,4.245,0,0,1,2.84.819c.048.037,0,.112-.1.149a3.126,3.126,0,0,1-1.733.372c-.915,0-1.4.186-1.4.521.048.3-.144.372-.963.372h-9.819a11.564,11.564,0,0,0-2.359.223c-.674.112-.722.223-.241.41.529.223.481.372-.289.484-.481.074-.963.074-1.444.112-1.2.037-2.407-.074-3.61-.037a15.855,15.855,0,0,1-2.984-.112.672.672,0,0,0-.385,0c-.385.112-.915.112-1.3.186a11.559,11.559,0,0,1-2.551.186c-1.925,0-3.8-.037-5.728-.037-.529,0-1.011-.037-1.54-.074a10.991,10.991,0,0,0-1.925-.037c-1.2.112-2.407.112-3.658.112h-6.931c-1.637.037-3.273-.074-4.958.112a27.544,27.544,0,0,1-3.947.112c-1.829-.074-3.706-.037-5.535,0a27.462,27.462,0,0,1-3.032-.037,27.648,27.648,0,0,0-3.514,0,4.6,4.6,0,0,1-1.252-.074,8.731,8.731,0,0,0-3.8,0,5.532,5.532,0,0,1-1.781.074,6.88,6.88,0,0,0-1.973-.074,21.028,21.028,0,0,1-2.647.149c-10.974,0-21.949.037-32.923-.037-4-.037-7.942,0-11.937-.037-5.535-.037-11.071-.037-16.558,0-2.792.037-5.632,0-8.423.037-2.744.037-5.439,0-8.183.037-2.84.037-5.68.037-8.52.037H105.624a17.177,17.177,0,0,0-2.792.261,10.888,10.888,0,0,1-1.588.112c-.626,0-1.107-.186-1.685-.186-1.3-.037-2.551-.112-3.851-.112s-2.647.074-3.947.074c-2.936.037-5.872-.112-8.808-.074-.433,0-.866.037-1.251.037-2.359-.074-4.717-.037-7.028,0-1.251,0-2.5.074-3.754-.037a29.978,29.978,0,0,0-3.177-.037c-2.647-.037-5.247.186-7.894.186a6.61,6.61,0,0,0-.915.112,12.29,12.29,0,0,1-2.7.261c-.722,0-1.492-.037-2.262.037-.289.037-.626.037-.722.186H48.49a2.079,2.079,0,0,1-.866-.112,1.094,1.094,0,0,0-.529-.074,6.846,6.846,0,0,1-2.07-.335c-.241-.037-.144-.149-.144-.223V46.652c.241,0,.241-.112.337-.149.385-.223.1-.521.385-.782l.1-.074c.241,0,.241-.112.289-.149.1-.186.048-.372.1-.559,0-.112.048-.186.241-.261.289-.112.385-.223.289-.372h0A2.147,2.147,0,0,0,47.671,44.119Z" transform="translate(0)"/><path class="a" d="M62.4,49.89c.1-.149.436-.149.727-.186.727-.037,1.5-.037,2.278-.037a15.291,15.291,0,0,0,2.714-.261,6.7,6.7,0,0,1,.921-.112c2.666,0,5.283-.223,7.949-.186a30.4,30.4,0,0,1,3.2.037,25.623,25.623,0,0,0,3.781.037c2.375-.037,4.7-.037,7.077,0,.436,0,.824-.037,1.26-.037,2.957-.037,5.913.112,8.87.074,1.309,0,2.666-.074,3.974-.074s2.569.074,3.878.112c.582,0,1.066.186,1.7.186a11.039,11.039,0,0,0,1.6-.112,16.436,16.436,0,0,1,2.811-.261H143c2.86,0,5.719,0,8.579-.037,2.763-.037,5.525,0,8.24-.037,2.811-.037,5.671-.037,8.482-.037,5.574-.074,11.148-.037,16.673,0,4.023.037,8,0,12.02.037,11.051.074,22.1,0,33.153.037a20.813,20.813,0,0,0,2.666-.149,8.773,8.773,0,0,1,1.987.074,5.608,5.608,0,0,0,1.793-.074,8.312,8.312,0,0,1,3.829,0,3.6,3.6,0,0,0,1.26.074c1.163-.074,2.375-.037,3.538,0,1.018.037,2.036.037,3.054.037,1.842-.037,3.732-.075,5.574,0a27.929,27.929,0,0,0,3.974-.112,44.938,44.938,0,0,1,4.992-.112q3.49-.056,6.98,0c1.26,0,2.472,0,3.684-.112a8.388,8.388,0,0,1,1.939.037c.533.037,1.018.074,1.551.074,1.939,0,3.829.037,5.768.037a11.719,11.719,0,0,0,2.569-.186c.388-.074.921-.074,1.309-.186a.687.687,0,0,1,.388,0,16.076,16.076,0,0,0,3.005.112c1.212,0,2.423.074,3.635.037a9.1,9.1,0,0,0,1.454-.112c.776-.112.824-.261.291-.484-.485-.223-.436-.3.242-.41a12.072,12.072,0,0,1,2.375-.223H307.9c.775,0,.969-.074.969-.372-.048-.335.436-.521,1.406-.521a3.165,3.165,0,0,0,1.745-.372c.048-.037.145-.074.1-.149a4.3,4.3,0,0,0-2.86-.819,11.134,11.134,0,0,1-2.327-.261,10.032,10.032,0,0,0-2.472-.261c-1.648.037-3.344-.037-4.944-.149H292a21.816,21.816,0,0,1-2.23-.074c-1.066-.112-2.181.037-3.3-.074a10.423,10.423,0,0,0-1.89-.149H284.2a10.283,10.283,0,0,1-3.393-.149c-.291-.037-.533-.074-.824-.112-1.745,0-3.49-.037-5.235-.037-3.151.037-6.253,0-9.4.037h-2.133a21.455,21.455,0,0,1-2.714-.223c-.242,0-.436-.074-.436-.186a1.236,1.236,0,0,1,.533.037c.048.037.1.075.145.037.775-.037,1.406.186,2.133.186h9.355a3.861,3.861,0,0,0,.679-.037,6.43,6.43,0,0,1,2.666,0,3.861,3.861,0,0,0,.679.037h4.12a1.456,1.456,0,0,1,.727.112,1.33,1.33,0,0,0,.582.074,2.887,2.887,0,0,1,1.163.149.934.934,0,0,0,.63-.037,6.2,6.2,0,0,1,2.617,0,6.16,6.16,0,0,0,.824.074,25.116,25.116,0,0,1,2.908.037,29.738,29.738,0,0,0,4.071.112c1.648,0,3.344.037,4.992,0,1.357-.037,2.666.112,4.023.149.679,0,1.357.037,2.036,0a7.749,7.749,0,0,1,2.181.261,6.9,6.9,0,0,0,1.939.223,8.169,8.169,0,0,1,2.763.447.517.517,0,0,1,.242.149c.048.112.194.186.485.223.339.037.436.223.145.261a7.1,7.1,0,0,0-1.115.335,3.939,3.939,0,0,1-1.163.149c-.824,0-1.26.149-1.26.447V47.1c.048.186-.242.261-.679.261H297.863a9.661,9.661,0,0,0-2.133.261c-.242.074-.242.112-.048.186a.819.819,0,0,1,.388.186c.194.3-.339.559-1.163.559h-7.464a4.333,4.333,0,0,0-1.7,0,.664.664,0,0,0-.291.037,3.66,3.66,0,0,1-1.309.149c-2.472,0-4.944.037-7.464,0-.727,0-1.454-.037-2.181-.074-.775-.037-1.6,0-2.375.037-1.066.037-2.084.037-3.1,0-.679-.037-1.357.037-2.036.037h-4.653a28.475,28.475,0,0,0-4.362.149c-.727.112-1.6.112-2.423.149A19.684,19.684,0,0,1,253.466,49a31,31,0,0,0-4.556,0,19.758,19.758,0,0,1-3.926-.037,16.614,16.614,0,0,0-2.375-.037c-.582,0-1.115,0-1.7.037a2.139,2.139,0,0,1-.533-.037,7.971,7.971,0,0,0-2.666-.149c-.679.037-1.309.223-1.987.261a4.129,4.129,0,0,1-.679,0,11.9,11.9,0,0,0-3.635.037,5.752,5.752,0,0,1-.824.037H191.57c-1.89,0-3.829.074-5.719-.112-.388-.037-.824,0-1.212,0H169.275c-1.7,0-3.344.037-5.041.112h-8.773c-13.232.074-26.513,0-39.745.037a8.42,8.42,0,0,0-1.7.112,6.934,6.934,0,0,1-.921.074,3.053,3.053,0,0,0-.582.037,8.184,8.184,0,0,1-3.3,0,1.729,1.729,0,0,0-.436-.037c-1.212,0-2.423-.037-3.587-.037-2.52.037-5.041.037-7.561.037-4.411-.037-8.821-.037-13.232-.037-1.066,0-2.084.074-3.151.037a4.451,4.451,0,0,1-.727-.037,5.665,5.665,0,0,0-1.6-.112h-2.52c-1.454-.037-2.86.074-4.217.149-.969.075-1.987,0-2.957.037a12.022,12.022,0,0,0-2.036.261,3.144,3.144,0,0,1-.63.074H65.114a5.186,5.186,0,0,0-1.309.112A3.371,3.371,0,0,1,62.4,49.89Z" transform="translate(-11.007 -0.11)"/><path class="a" d="M182.037,43.6a3.324,3.324,0,0,1-1.08.112c-1.527.112-3.091.112-4.618.223a9.076,9.076,0,0,1-1.006.037c-1.9,0-3.8.037-5.661,0-1.676-.037-3.352.037-5.028-.037-1.3-.037-2.644-.149-3.948-.112-2.16.037-4.32.149-6.443.112-1.974,0-3.948,0-5.885-.074-2.16-.074-4.358-.037-6.518-.074-2.309-.037-4.618.074-6.89.149-.559.037-1.117,0-1.676,0a42.529,42.529,0,0,0-4.879.074,27.886,27.886,0,0,1-4.32,0,43.744,43.744,0,0,0-4.432-.112c-1.713.037-3.427.074-5.14.037-1.676-.037-3.352,0-5.028.037-.782,0-1.527.074-2.309.112a9.076,9.076,0,0,1-1.006-.037,11.236,11.236,0,0,0-1.937-.074H95.665c-1.155,0-2.309.037-3.427.037-.447,0-.894.074-1.3.112a44.758,44.758,0,0,1-5.475,0,14.422,14.422,0,0,0-2.533.112c-.447.037-.894.074-1.341.074L77.639,44.2c-1.751-.037-3.464-.186-5.214-.112-2.309.112-4.618.074-6.89.149-.931.037-1.862,0-2.793.074-1.6.074-3.24.112-4.842.186a7.364,7.364,0,0,1-2.235-.186,1.968,1.968,0,0,0-.484-.037H53.429a2.9,2.9,0,0,0-.6.074,1.645,1.645,0,0,1-.633.075,2.776,2.776,0,0,1,1.155-.223H55.18a2.016,2.016,0,0,1,.708.112.945.945,0,0,0,.447.074h4.022a1.038,1.038,0,0,0,.372-.037A3.485,3.485,0,0,1,62,44.2c.559,0,1.155-.037,1.713,0a32.169,32.169,0,0,0,3.278-.149c.186,0,.335-.037.521-.037H76.3a5.89,5.89,0,0,1,1.415.149,1.813,1.813,0,0,0,.447.037h4.656a2.124,2.124,0,0,0,.484-.037,8.832,8.832,0,0,1,3.129-.037,9.983,9.983,0,0,0,1.49.074h1.639a3.927,3.927,0,0,0,1.155-.112,1.612,1.612,0,0,1,.6-.037h7.97c.931,0,1.9-.112,2.831-.074,2.719.074,5.438.112,8.157.074,1.6-.037,3.166-.112,4.767-.074,2.421.074,4.8-.112,7.226-.037a11.279,11.279,0,0,1,1.155.074c1.788.149,3.576.037,5.363.037A.472.472,0,0,0,129,44.01a27.343,27.343,0,0,1,4.618-.112h1.08c4.469-.112,8.939-.037,13.408-.037h3.278c1.043,0,2.123.112,3.166.074,3.129-.112,6.257-.074,9.423-.074.559,0,1.08.074,1.639.074.819,0,1.639-.037,2.458-.074.41,0,.857.037,1.266.074.372.037.745.075,1.117.075h5.065a2.818,2.818,0,0,0,.559-.037,24.965,24.965,0,0,1,3.352-.149,1.266,1.266,0,0,0,.745-.112c.112-.074.335-.037.521-.037A7.242,7.242,0,0,1,182.037,43.6Z" transform="translate(-4.606 -0.188)"/><path class="a" d="M433.087,43.532c-.074.149-.335.186-.633.223a30.264,30.264,0,0,1-4.507-.074,3.59,3.59,0,0,0-.894,0c-1.192.112-2.384.149-3.576.186q-2.849.056-5.7-.112c-1.08-.037-2.2-.037-3.278-.112a8.4,8.4,0,0,0-1.378-.037.315.315,0,0,1-.224-.074c.782,0,1.6-.074,2.309,0a44.3,44.3,0,0,0,4.432.112,27.567,27.567,0,0,0,3.054.112c.819-.037,1.639-.149,2.458-.112h.894a1.266,1.266,0,0,0,.745-.112,5.28,5.28,0,0,1,1.527.037.945.945,0,0,0,.447.074h3.2c.261,0,.484.037.67-.112A1.767,1.767,0,0,1,433.087,43.532Z" transform="translate(-186.499 -0.12)"/><path class="a" d="M47.366,46.2c.037.149,0,.261-.223.372a.3.3,0,0,0-.186.261.976.976,0,0,1-.074.559c-.037.075,0,.149-.223.149a1.857,1.857,0,0,1,.112-.894C46.808,46.5,47.106,46.312,47.366,46.2Z" transform="translate(-1.113 -1.82)"/><path class="a" d="M45.526,49.983c-.186.261,0,.521-.3.782-.074.074-.074.149-.261.149-.112-.3.3-.521.261-.819C45.228,50.021,45.34,49.946,45.526,49.983Z" transform="translate(-0.055 -4.188)"/><path class="a" d="M408.474,43.6a.219.219,0,0,1-.186.074h-1.6a.219.219,0,0,1-.186-.074Z" transform="translate(-187.295 -0.188)"/><path class="a" d="M49.445,45.488a1.592,1.592,0,0,1-.745.223C48.812,45.562,49,45.451,49.445,45.488Z" transform="translate(-2.409 -1.368)"/><path class="a" d="M405.033,43.6a.64.64,0,0,1-.633,0Z" transform="translate(-186.474 -0.188)"/><path class="a" d="M401.361,43.6a.143.143,0,0,1-.261,0Z" transform="translate(-184.835 -0.188)"/></g></svg>