<svg xmlns="http://www.w3.org/2000/svg" xmlns:xlink="http://www.w3.org/1999/xlink" width="100" height="78" viewBox="0 0 100 78">
  <defs>
    <clipPath id="clip-path">
      <rect id="Rectangle_19547" data-name="Rectangle 19547" width="100" height="78" transform="translate(685 488)" fill="#fff" stroke="#707070" stroke-width="1"/>
    </clipPath>
    <clipPath id="clip-path-2">
      <rect id="Rectangle_19504" data-name="Rectangle 19504" width="96.199" height="71.557" fill="none"/>
    </clipPath>
    <clipPath id="clip-path-4">
      <rect id="Rectangle_19501" data-name="Rectangle 19501" width="13.6" height="4.945" fill="none"/>
    </clipPath>
    <clipPath id="clip-path-5">
      <rect id="Rectangle_19502" data-name="Rectangle 19502" width="3.714" height="5.288" fill="none"/>
    </clipPath>
  </defs>
  <g id="Mask_Group_866" data-name="Mask Group 866" transform="translate(-685 -488)" clip-path="url(#clip-path)">
    <g id="Group_118920" data-name="Group 118920" transform="translate(686.9 491)">
      <g id="Group_118928" data-name="Group 118928" clip-path="url(#clip-path-2)">
        <g id="Group_118927" data-name="Group 118927">
          <g id="Group_118926" data-name="Group 118926" clip-path="url(#clip-path-2)">
            <path id="Path_87926" data-name="Path 87926" d="M126.117,16.989a10.966,10.966,0,0,0,.994-3.876,3.665,3.665,0,0,0-1.766-3.357c-1.089-.53-2.4-.226-3.548-.6a5.724,5.724,0,0,1-3.014-3.214,13.109,13.109,0,0,0-2.3-3.909,4.819,4.819,0,0,0-5.493-.741A8.193,8.193,0,0,0,106.742,0c-1.892,0-4.04.217-5.318,1.613-.992,1.083-1.6,2.44-2.834,3.236-1.7,1.095-3.928.277-5.943.413-.411.028-.887.147-1.045.528A1.25,1.25,0,0,0,91.8,6.8l1.659,3.206a3.1,3.1,0,0,1-2.7.018,9.173,9.173,0,0,0,2.574,5.7.779.779,0,0,0-1.062.442,1.951,1.951,0,0,0,.058,1.289,9.444,9.444,0,0,0,13.013,5.821l11.145.495a2.84,2.84,0,0,0,1.972,1.722c1.217-.96,1.4-1.484,1.4-1.484.784.547.173.278.784.547a2.734,2.734,0,0,0,3.677-1.773A3.253,3.253,0,0,1,125,21.064a5.731,5.731,0,0,1,1.6-.949,4.573,4.573,0,0,0,1.972-2.148,3.3,3.3,0,0,1-2.452-.978" transform="translate(-58.894 0)" fill="#263238"/>
            <path id="Path_87927" data-name="Path 87927" d="M113.172,16.685a10.709,10.709,0,0,1,9.926-10.6l.553-.041c5.989-.089,9.41,4.948,9.333,10.937l.89,27.581-13.672.974-.517-8.961s-5.8-.471-6.289-6.2c-.237-2.766-.262-8.5-.224-13.692" transform="translate(-73.434 -3.921)" fill="#ffbe9d"/>
            <path id="Path_87928" data-name="Path 87928" d="M121.376,47.227a.82.82,0,0,0,.85.768.785.785,0,0,0,.79-.8.821.821,0,0,0-.849-.768.786.786,0,0,0-.791.8" transform="translate(-78.767 -30.129)" fill="#263238"/>
            <path id="Path_87929" data-name="Path 87929" d="M118.1,40.791c.109.1.7-.405,1.577-.467s1.559.331,1.646.216c.044-.051-.074-.236-.37-.421a2.253,2.253,0,0,0-1.328-.305,2.16,2.16,0,0,0-1.245.506c-.256.227-.333.427-.28.471" transform="translate(-76.632 -25.833)" fill="#263238"/>
            <path id="Path_87930" data-name="Path 87930" d="M130.517,49.372a5.823,5.823,0,0,0-1.449-.153c-.227-.007-.443-.036-.492-.187a1.148,1.148,0,0,1,.1-.678l.54-1.761A29.53,29.53,0,0,0,130.382,42a29.543,29.543,0,0,0-1.532,4.485q-.267.926-.511,1.77a1.3,1.3,0,0,0-.052.891.566.566,0,0,0,.394.3,1.536,1.536,0,0,0,.386.025,5.76,5.76,0,0,0,1.45-.1" transform="translate(-83.211 -27.258)" fill="#263238"/>
            <path id="Path_87931" data-name="Path 87931" d="M117.3,34.652c.2.188.933-.066,1.826-.132.891-.091,1.659.031,1.82-.19.07-.106-.061-.3-.4-.468a2.965,2.965,0,0,0-1.506-.235,2.91,2.91,0,0,0-1.432.494c-.3.226-.394.438-.3.531" transform="translate(-76.099 -21.814)" fill="#263238"/>
            <path id="Path_87932" data-name="Path 87932" d="M168.056,48.944c.095-.049,3.853-1.454,4.015,2.474s-3.814,3.281-3.826,3.168-.189-5.642-.189-5.642" transform="translate(-109.06 -31.578)" fill="#ffbe9d"/>
            <path id="Path_87933" data-name="Path 87933" d="M170.849,55.43c.017-.013.071.045.189.093a.683.683,0,0,0,.512-.011,1.7,1.7,0,0,0,.721-1.551,2.269,2.269,0,0,0-.232-.972.792.792,0,0,0-.536-.5.348.348,0,0,0-.4.2c-.048.112-.02.189-.041.2s-.087-.062-.062-.226a.439.439,0,0,1,.145-.252.515.515,0,0,1,.374-.115.962.962,0,0,1,.74.579,2.327,2.327,0,0,1,.282,1.085,1.777,1.777,0,0,1-.928,1.737.734.734,0,0,1-.63-.078c-.126-.092-.15-.179-.137-.187" transform="translate(-110.871 -33.935)" fill="#eb996e"/>
            <path id="Path_87934" data-name="Path 87934" d="M127.3,10.7a9.224,9.224,0,0,0-1.526-3.17c-2.056-2.855-6.746-4.187-9.408-3.951s-5.427,2.211-7.909,3.2c-1.625.649-2.858,2.141-2.238,3.3a9.5,9.5,0,0,1-3.011.66s-.1,1.467.72,1.855l2.561,1.678c3.416.451,9.412-2.911,10.569-3.969a18.115,18.115,0,0,1,3.532-2.534c-1.087,2.853,2.456,2.222,2.361,3.329a4.488,4.488,0,0,0,2.189,5.494l.08,3.505c-.073.9.312,1.593,1.213,1.532h0a7.1,7.1,0,0,0,1.141-2.431,33.606,33.606,0,0,0-.274-8.5" transform="translate(-66.973 -2.303)" fill="#263238"/>
            <path id="Path_87935" data-name="Path 87935" d="M131.617,87.923a13.941,13.941,0,0,0,7.35-2.749s-1.464,4.255-7.221,4.158Z" transform="translate(-85.413 -55.274)" fill="#eb996e"/>
            <path id="Path_87936" data-name="Path 87936" d="M144.9,45.728a.821.821,0,0,0,.85.768.785.785,0,0,0,.79-.8.821.821,0,0,0-.849-.768.786.786,0,0,0-.791.8" transform="translate(-94.034 -29.156)" fill="#263238"/>
            <path id="Path_87937" data-name="Path 87937" d="M142.185,39.868c.108.111.8-.324,1.765-.286s1.658.5,1.766.4c.053-.046-.054-.243-.357-.46a2.634,2.634,0,0,0-1.41-.453,2.494,2.494,0,0,0-1.408.362c-.3.2-.408.388-.355.437" transform="translate(-92.263 -25.353)" fill="#263238"/>
            <path id="Path_87938" data-name="Path 87938" d="M141.95,32.278c.085.241.968.134,2,.266,1.038.112,1.871.422,2.01.207.062-.1-.082-.33-.418-.565a3.515,3.515,0,0,0-3.058-.361c-.382.15-.575.338-.538.452" transform="translate(-92.116 -20.526)" fill="#263238"/>
            <path id="Path_87939" data-name="Path 87939" d="M134.529,66.431a16.012,16.012,0,0,1,2.266-.576l.556-.177a1.962,1.962,0,0,1,.127,1.659,1.594,1.594,0,0,1-1.085.745,1.157,1.157,0,0,1-.927-.15,1.867,1.867,0,0,1-.937-1.5" transform="translate(-87.303 -42.622)" fill="#eb996e"/>
            <path id="Path_87940" data-name="Path 87940" d="M135.9,67.945a1.87,1.87,0,0,0,.832-.332,1.57,1.57,0,0,0,.532-.786,1.967,1.967,0,0,0-.006-1.164l-.021-.062.106.058c-.843.187-1.6.347-2.156.454a4.562,4.562,0,0,1-.9.136,4.5,4.5,0,0,1,.873-.26c.545-.139,1.3-.319,2.145-.507l.081-.018.025.076.022.068a2.065,2.065,0,0,1-.008,1.273,1.644,1.644,0,0,1-.616.838,1.371,1.371,0,0,1-.654.247.474.474,0,0,1-.255-.019" transform="translate(-87.142 -42.482)" fill="#263238"/>
            <path id="Path_87941" data-name="Path 87941" d="M166.089,26.887a.767.767,0,0,1-.237-.061,1.38,1.38,0,0,1-.547-.437,2.085,2.085,0,0,1-.4-1.032,6.246,6.246,0,0,1,.061-1.462,3.946,3.946,0,0,0-.076-1.714,1.646,1.646,0,0,0-.527-.762,4.021,4.021,0,0,0-.878-.513,6.084,6.084,0,0,1-.976-.526,2.084,2.084,0,0,1-.731-.918,13.218,13.218,0,0,1-.465-2.364,2.749,2.749,0,0,0-.463-1.074,1.549,1.549,0,0,0-.936-.572c-.367-.085-.75-.1-1.125-.172a1.69,1.69,0,0,1-1-.531,2.354,2.354,0,0,1-.447-.972c-.083-.333-.131-.658-.2-.964a3.613,3.613,0,0,0-.294-.846,3.457,3.457,0,0,0-.471-.68,3.681,3.681,0,0,0-2.165-1.181,5.4,5.4,0,0,0-.928-.021,2.523,2.523,0,0,1,.937-.049,3.68,3.68,0,0,1,2.252,1.165,3.572,3.572,0,0,1,.5.7,3.733,3.733,0,0,1,.317.878c.073.311.125.636.208.958a2.21,2.21,0,0,0,.418.9,1.523,1.523,0,0,0,.9.47c.357.071.741.081,1.131.169a1.728,1.728,0,0,1,1.039.635,2.923,2.923,0,0,1,.5,1.144,13.608,13.608,0,0,0,.451,2.335,1.908,1.908,0,0,0,.669.846,6.033,6.033,0,0,0,.946.515,4.139,4.139,0,0,1,.91.542,1.8,1.8,0,0,1,.568.837,4.03,4.03,0,0,1,.06,1.778A6.342,6.342,0,0,0,165,25.345a2.055,2.055,0,0,0,.36,1,1.444,1.444,0,0,0,.726.541" transform="translate(-99.475 -6.501)" fill="#455a64"/>
            <path id="Path_87942" data-name="Path 87942" d="M99.77,10.274a.929.929,0,0,1,.176.113l.491.338a8.675,8.675,0,0,0,1.934,1,4.711,4.711,0,0,0,3.143.063,3.269,3.269,0,0,0,1.5-1.079,11.4,11.4,0,0,0,1.029-1.769,5.417,5.417,0,0,1,1.25-1.671A5.308,5.308,0,0,1,110.98,6.3a6.384,6.384,0,0,1,3.252-.239,8.794,8.794,0,0,1,2.105.653c.237.107.417.2.537.265a.914.914,0,0,1,.179.109.892.892,0,0,1-.195-.076c-.125-.055-.309-.136-.549-.232a9.575,9.575,0,0,0-2.1-.591,6.36,6.36,0,0,0-3.174.27,5.191,5.191,0,0,0-1.625.949,5.282,5.282,0,0,0-1.206,1.621,11.3,11.3,0,0,1-1.05,1.794,3.42,3.42,0,0,1-1.586,1.127,4.793,4.793,0,0,1-3.243-.1,8.049,8.049,0,0,1-1.931-1.063c-.211-.153-.368-.28-.473-.367a.9.9,0,0,1-.153-.143" transform="translate(-64.746 -3.862)" fill="#455a64"/>
            <path id="Path_87943" data-name="Path 87943" d="M95.545,33.117c.021-.024.292.211.779.511a6.8,6.8,0,0,0,4.27.966c.569-.06.914-.157.923-.126,0,.012-.079.046-.234.1a4.218,4.218,0,0,1-.672.157,6.1,6.1,0,0,1-4.357-.986,4.189,4.189,0,0,1-.539-.43c-.118-.113-.178-.179-.17-.189" transform="translate(-62.003 -21.49)" fill="#455a64"/>
            <path id="Path_87944" data-name="Path 87944" d="M104.945,42.455c.022-.049.62.195,1.4.322s1.42.1,1.425.153a3.932,3.932,0,0,1-2.821-.475" transform="translate(-68.104 -27.547)" fill="#455a64"/>
            <path id="Path_87945" data-name="Path 87945" d="M88.993,98.231l-11.271,3.1-12.158,8.785,3.242,5.547,57.331.1s-2.09-7.662-2.777-10.014a11.177,11.177,0,0,0-3.723-5.849,6.053,6.053,0,0,0-2.047-1.2c-2.265-.494-12.76-2.852-14.8-2.794,0,0-2.355,4.869-7.29,4.821s-6.505-2.495-6.505-2.495" transform="translate(-42.549 -62.237)" fill="#455a64"/>
            <path id="Path_87946" data-name="Path 87946" d="M198.481,116.416c.035.009.141-.463.474-1.156a9.39,9.39,0,0,1,1.739-2.43,21.715,21.715,0,0,1,2.277-1.975,8.294,8.294,0,0,0,.973-.8,6.928,6.928,0,0,0-1.061.678,16.47,16.47,0,0,0-2.339,1.948,8.4,8.4,0,0,0-1.723,2.513,5.386,5.386,0,0,0-.292.879.982.982,0,0,0-.048.337" transform="translate(-128.802 -71.422)" fill="#263238"/>
            <path id="Path_87947" data-name="Path 87947" d="M99.8,130.544a6.3,6.3,0,0,0,.038-1.192c-.008-.736-.047-1.752-.132-2.872s-.2-2.131-.305-2.86a6.3,6.3,0,0,0-.218-1.172,7.331,7.331,0,0,0,.073,1.189c.068.8.152,1.776.244,2.859.073,1.084.139,2.064.192,2.862a7.364,7.364,0,0,0,.108,1.187" transform="translate(-64.357 -79.462)" fill="#263238"/>
            <g id="Group_118922" data-name="Group 118922" transform="translate(29.341 48.588)" opacity="0.3">
              <g id="Group_118921" data-name="Group 118921">
                <g id="Group_118920-2" data-name="Group 118920" clip-path="url(#clip-path-4)">
                  <path id="Path_87948" data-name="Path 87948" d="M86.3,142.359a5.942,5.942,0,0,0,2.559-1.306,2.424,2.424,0,0,0,.645-2.645,8.323,8.323,0,0,0,7.676,4.776l-13.6.17a11.739,11.739,0,0,1,2.72-.993" transform="translate(-83.582 -138.407)"/>
                </g>
              </g>
            </g>
            <path id="Path_87949" data-name="Path 87949" d="M249.236,147.812a11.561,11.561,0,0,0-2.057-2.229,2,2,0,0,0-2.024.024l-.411.368s-2.14-.961-3.169-.222c0,0-2.036-.962-3.009.139,0,0-1.569-1.02-2.233-.129a3.648,3.648,0,0,0-.274,3.17c.321.775.923,3.415,1.391,3.461,0,0,1.251.133,1.418-.543s.238-1,.238-1,.478,2.393,1.054,2.511,1.674.055,1.712-.995c0,0,.534.793,1.056.562s1.167-.613,1.109-1.262-.065-1.3-.065-1.3.286.946.758.74.947-.161,1.213-.964.923-2.332.923-2.332Z" transform="translate(-153.037 -94.308)" fill="#ffbe9d"/>
            <path id="Path_87950" data-name="Path 87950" d="M258.159,151.377c.03-.015-.094-.259-.2-.676a3.722,3.722,0,0,1,.589-3.18c.252-.35.455-.533.433-.559a1.489,1.489,0,0,0-.549.468,3.4,3.4,0,0,0-.614,3.314,1.486,1.486,0,0,0,.345.634" transform="translate(-167.187 -95.37)" fill="#eb996e"/>
            <path id="Path_87951" data-name="Path 87951" d="M251.024,146.586a3.293,3.293,0,0,0-.274.942,9.331,9.331,0,0,0,.316,4.691,3.286,3.286,0,0,0,.4.9,12.664,12.664,0,0,1-.439-6.53" transform="translate(-162.619 -95.127)" fill="#eb996e"/>
            <path id="Path_87952" data-name="Path 87952" d="M243.3,147.033a10.048,10.048,0,0,0,.572,4.989c.06-.018-.242-1.105-.4-2.482s-.114-2.5-.176-2.507" transform="translate(-157.82 -95.417)" fill="#eb996e"/>
            <path id="Path_87953" data-name="Path 87953" d="M219.433,147.663a.8.8,0,0,1,.539-.436,1.741,1.741,0,0,1,1.552.416,6.007,6.007,0,0,1,1.134,1.4l-3.033-.019c.029-.464-.361-.925-.191-1.357" transform="translate(-142.373 -95.509)" fill="#ffbe9d"/>
            <path id="Path_87954" data-name="Path 87954" d="M.195,143.037a6.087,6.087,0,0,1,2.84-4.565,5.04,5.04,0,0,1,4.216-.418l5.854,2.038c.315.337,9.973-3.386,9.973-3.386l3.242,5.539L7.864,142.22a43.986,43.986,0,0,0,3.223,3.3l1.254,4.162-.125,3.768c-.662.305-1.653-.858-1.653-.858l-.579,1.062.193,1.024s1.706,4.142,1.647,5.064a.523.523,0,0,1-.537.524,1.236,1.236,0,0,1-1.186-.689l-2.427-4.713a7.725,7.725,0,0,1-2.534-1.076c-.688-.649-1.664-1.819-1.664-1.819l-1.191-.17a.648.648,0,0,1-.412-.082,2.228,2.228,0,0,1-1.207-1.615L.058,146.93a19.193,19.193,0,0,1,.137-3.892" transform="translate(0 -88.716)" fill="#ffbe9d"/>
            <path id="Path_87955" data-name="Path 87955" d="M16.2,178.109a6.1,6.1,0,0,0,.764,1.95,6.105,6.105,0,0,0,1.23,1.695c.046-.036-.513-.783-1.059-1.789s-.88-1.875-.935-1.856" transform="translate(-10.506 -115.584)" fill="#eb996e"/>
            <path id="Path_87956" data-name="Path 87956" d="M8.169,177.123a2.3,2.3,0,0,0,.536,1.025,3.217,3.217,0,0,0,.767.863,3.752,3.752,0,0,0-.608-.977,7.155,7.155,0,0,0-.7-.911" transform="translate(-5.295 -114.944)" fill="#eb996e"/>
            <path id="Path_87957" data-name="Path 87957" d="M26.832,176.19a10.167,10.167,0,0,0-.331-1.151c-.213-.706-.491-1.687-.763-2.78-.137-.546-.259-1.069-.365-1.544a3.993,3.993,0,0,1-.126-1.261,1.964,1.964,0,0,1,.446-1.06c-.006-.008-.111.05-.246.216a1.744,1.744,0,0,0-.337.826,3.824,3.824,0,0,0,.086,1.315c.1.481.214,1.006.352,1.555.273,1.1.573,2.077.821,2.775a5.655,5.655,0,0,0,.462,1.108" transform="translate(-16.279 -109.279)" fill="#eb996e"/>
            <path id="Path_87958" data-name="Path 87958" d="M26.444,170.669c-.024.021.176.247.408.664a4.225,4.225,0,0,1,.524,1.76,5.425,5.425,0,0,0,.087,1.05,1.548,1.548,0,0,0,.443.764,1.71,1.71,0,0,0,.655.449c.021-.028-.237-.193-.555-.543a1.5,1.5,0,0,1-.368-.707,6.3,6.3,0,0,1-.068-1.024,3.816,3.816,0,0,0-.6-1.818,1.787,1.787,0,0,0-.526-.593" transform="translate(-17.16 -110.756)" fill="#eb996e"/>
            <path id="Path_87959" data-name="Path 87959" d="M17.838,146.944c.036-.045-.65-.614-1.34-1.46s-1.134-1.626-1.2-1.575a2.2,2.2,0,0,0,.242.529,7.865,7.865,0,0,0,.8,1.171,5,5,0,0,0,1.491,1.335" transform="translate(-9.929 -93.389)" fill="#eb996e"/>
            <g id="Group_118925" data-name="Group 118925" transform="translate(65.147 48.216)" opacity="0.3">
              <g id="Group_118924" data-name="Group 118924">
                <g id="Group_118923" data-name="Group 118923" clip-path="url(#clip-path-5)">
                  <path id="Path_87960" data-name="Path 87960" d="M189.063,142.637l.229-5.287-3.714,5.282Z" transform="translate(-185.579 -137.349)"/>
                </g>
              </g>
            </g>
            <path id="Path_87961" data-name="Path 87961" d="M195.464,140.854a26.839,26.839,0,0,1,.082-3.131,26.812,26.812,0,0,1,.265-3.121,26.982,26.982,0,0,1-.082,3.131,26.963,26.963,0,0,1-.265,3.121" transform="translate(-126.832 -87.35)" fill="#263238"/>
            <path id="Path_87962" data-name="Path 87962" d="M145.882,99.8a.932.932,0,0,1,.094.342,1.533,1.533,0,0,1-.256.978,2.217,2.217,0,0,1-1.286.945,7.022,7.022,0,0,1-2.122.179,7.98,7.98,0,0,0-1.22.062,2.923,2.923,0,0,0-1.218.435A2.525,2.525,0,0,0,139,103.8a6.837,6.837,0,0,0-.449,1.428c-.115.505-.217,1.031-.378,1.558a4.307,4.307,0,0,1-.78,1.5,4.4,4.4,0,0,1-3.086,1.6,4.566,4.566,0,0,1-3.279-1.173,5.066,5.066,0,0,1-1.035-1.329,2.913,2.913,0,0,0-1.008-1.156,2.394,2.394,0,0,0-1.423-.248,12.315,12.315,0,0,0-1.4.24,7.212,7.212,0,0,1-1.336.182,3.525,3.525,0,0,1-1.235-.2,4.2,4.2,0,0,1-1.769-1.181,4.078,4.078,0,0,1-.828-1.378,3.82,3.82,0,0,1-.155-.568c-.019-.17-.045-.312-.048-.428s0-.194,0-.265a.329.329,0,0,1,.007-.09,4.247,4.247,0,0,0,.261,1.325,4.23,4.23,0,0,0,2.571,2.461,3.416,3.416,0,0,0,1.19.178,7.166,7.166,0,0,0,1.309-.19,12.192,12.192,0,0,1,1.419-.251,2.552,2.552,0,0,1,1.521.262,3.072,3.072,0,0,1,1.074,1.212,4.909,4.909,0,0,0,1,1.286A4.4,4.4,0,0,0,134.3,109.7a4.235,4.235,0,0,0,2.959-1.534,6.707,6.707,0,0,0,1.132-2.979,6.929,6.929,0,0,1,.468-1.46,2.673,2.673,0,0,1,.934-1.117,3.051,3.051,0,0,1,1.283-.448,7.968,7.968,0,0,1,1.242-.052,7.039,7.039,0,0,0,2.092-.148,2.152,2.152,0,0,0,1.256-.886,1.531,1.531,0,0,0,.279-.937,3.259,3.259,0,0,0-.058-.345" transform="translate(-78.386 -64.764)" fill="#fff"/>
            <path id="Path_87963" data-name="Path 87963" d="M116.831,125.757a1.281,1.281,0,0,1-.074-.241l-.191-.694a8.3,8.3,0,0,0-1.039-2.405,4.09,4.09,0,0,0-.558-.656,3.509,3.509,0,0,0-.761-.53,3.927,3.927,0,0,0-2-.353,13.674,13.674,0,0,0-2.27.4,9.437,9.437,0,0,1-2.487.322,3.081,3.081,0,0,1-3.265-3.017,10.932,10.932,0,0,1,.049-2.112,10.309,10.309,0,0,0,.044-1.815,3.29,3.29,0,0,0-1.094-2.295,2.47,2.47,0,0,0-.851-.432s.022,0,.064.006a1.273,1.273,0,0,1,.185.04,1.958,1.958,0,0,1,.647.33,3.32,3.32,0,0,1,1.178,2.338,10.183,10.183,0,0,1-.022,1.84,10.962,10.962,0,0,0-.033,2.082,3.283,3.283,0,0,0,.882,2.033,3.249,3.249,0,0,0,2.222.82,9.367,9.367,0,0,0,2.441-.314,13.545,13.545,0,0,1,2.3-.389,4.063,4.063,0,0,1,2.082.385,3.636,3.636,0,0,1,.79.563,4.192,4.192,0,0,1,.568.686,7.933,7.933,0,0,1,1,2.46c.076.3.126.542.158.7a1.327,1.327,0,0,1,.039.249" transform="translate(-66.406 -72.632)" fill="#fff"/>
            <path id="Path_87964" data-name="Path 87964" d="M181.85,136.9a8.17,8.17,0,0,0-1.534-.585,5.563,5.563,0,0,0-1.761-.13,5.171,5.171,0,0,0-2.054.629,5.5,5.5,0,0,0-1.638,1.4,5.126,5.126,0,0,0-.839,1.548,2.2,2.2,0,0,0-.078,1.168,3.44,3.44,0,0,0,.154.41s-.031-.026-.077-.088a1.2,1.2,0,0,1-.145-.3,2.145,2.145,0,0,1,.022-1.224,5.027,5.027,0,0,1,.83-1.616,5.494,5.494,0,0,1,1.683-1.453,5.184,5.184,0,0,1,2.129-.638,5.4,5.4,0,0,1,1.807.172,4.917,4.917,0,0,1,1.132.459,2.723,2.723,0,0,1,.281.177c.062.044.093.069.09.074" transform="translate(-112.787 -88.257)" fill="#fff"/>
            <path id="Path_87965" data-name="Path 87965" d="M206.941,106.036c-.019.009-.127-.145-.215-.435a2.539,2.539,0,0,1,.435-2.24c.19-.236.349-.338.362-.323a3.24,3.24,0,0,0-.582,3" transform="translate(-134.094 -66.866)" fill="#fff"/>
            <path id="Path_87966" data-name="Path 87966" d="M209.057,131.4a.513.513,0,0,1-.036.153,2.878,2.878,0,0,1-.163.422,4.106,4.106,0,0,1-1.007,1.32,4.3,4.3,0,0,1-2.234,1.022,7.982,7.982,0,0,1-2.981-.416,6.81,6.81,0,0,0-1.512-.23,4.158,4.158,0,0,0-1.393.216,4.841,4.841,0,0,0-2,1.3,4.615,4.615,0,0,0-.872,1.369c-.149.357-.188.571-.209.566a.521.521,0,0,1,.022-.156,2.669,2.669,0,0,1,.12-.435,4.368,4.368,0,0,1,.842-1.429,4.862,4.862,0,0,1,2.039-1.375,4.263,4.263,0,0,1,1.449-.235,6.817,6.817,0,0,1,1.552.231,8.044,8.044,0,0,0,2.917.427,4.251,4.251,0,0,0,2.171-.953,4.342,4.342,0,0,0,1.028-1.254c.183-.341.243-.55.262-.543" transform="translate(-127.618 -85.272)" fill="#fff"/>
            <path id="Path_87967" data-name="Path 87967" d="M83.522,136.666c0,.006-.041.013-.122.02a2.021,2.021,0,0,1-.355,0,3.42,3.42,0,0,1-1.263-.328,3.729,3.729,0,0,1-1.475-1.254,3.456,3.456,0,0,1-.481-1.052,9.24,9.24,0,0,1-.208-1.21,3.972,3.972,0,0,0-.692-2.157,2.751,2.751,0,0,0-1.62-.851,8.433,8.433,0,0,0-1.277-.128,2.643,2.643,0,0,1-.474-.031,2.2,2.2,0,0,1,.475-.041,6.89,6.89,0,0,1,1.3.072,2.832,2.832,0,0,1,1.725.869,2.675,2.675,0,0,1,.53,1.033,8.229,8.229,0,0,1,.215,1.21,9.473,9.473,0,0,0,.2,1.187,3.34,3.34,0,0,0,.448,1,3.7,3.7,0,0,0,1.393,1.232,4.294,4.294,0,0,0,1.683.419" transform="translate(-49.031 -84.127)" fill="#fff"/>
          </g>
        </g>
      </g>
    </g>
  </g>
</svg>
