<svg width="218" height="136" viewBox="0 0 218 136" fill="none" xmlns="http://www.w3.org/2000/svg">
<path d="M95.1048 46.7983C94.9157 45.9598 94.4892 45.1933 93.8761 44.59C93.2629 43.9867 92.489 43.5721 91.6465 43.3956C89.9502 43.0722 88.1964 43.2489 86.599 43.9042C84.7616 44.5051 83.096 45.5385 81.7426 46.917C81.0718 47.6098 80.5452 48.4284 80.193 49.3255C79.8408 50.2227 79.6701 51.1805 79.6907 52.1439C79.7867 53.9434 80.6855 55.7493 80.1835 57.4794C79.6795 58.7638 78.7599 59.8432 77.5711 60.5461C76.3872 61.2421 75.343 62.1513 74.4913 63.2276C73.7397 64.3724 73.6153 66.0752 74.6312 66.9936C75.5347 67.8153 77.1577 67.9066 77.5372 69.0625C77.633 69.8149 77.4988 70.5787 77.1523 71.2536C76.9459 72.0277 76.9051 72.8365 77.0324 73.6274C77.1596 74.4183 77.4522 75.1736 77.8911 75.8441C78.7811 77.1815 79.9923 78.275 81.4143 79.025C83.8567 80.4027 86.9007 81.0464 89.4839 79.9462C90.7598 79.3783 91.8586 78.4772 92.6642 77.3378C93.965 75.4136 94.6941 73.1613 94.7674 70.841C94.8357 68.5331 94.686 66.224 94.3202 63.9443" fill="#263238"/>
<path d="M95.9917 74.2013C94.9237 74.4955 93.8016 74.5363 92.715 74.3205C91.6284 74.1046 90.6073 73.638 89.7335 72.958C88.8596 72.278 88.1571 71.4034 87.6821 70.404C87.2071 69.4047 86.9727 68.3083 86.9976 67.2023C87.0442 65.1463 87.9751 63.0519 87.335 61.0963C86.8961 59.7542 85.7686 58.7079 85.391 57.3476C84.8277 55.3162 86.0567 53.2638 87.2317 51.5117C87.9299 50.3506 88.797 49.2995 89.8048 48.393C90.3125 47.9429 90.9133 47.6099 91.5644 47.4177C92.2155 47.2256 92.901 47.1788 93.5722 47.2809" fill="#263238"/>
<path d="M114.995 47.4609C114.881 49.013 115.91 50.3998 116.941 51.5639C117.973 52.728 119.127 53.9377 119.35 55.4815C119.747 58.2114 117.07 60.7458 117.621 63.4474C117.918 64.8954 119.105 66.0594 119.317 67.522C119.356 68.2371 119.243 68.9523 118.985 69.6206C118.728 70.2888 118.331 70.8948 117.821 71.3986C116.879 72.4759 115.732 73.3734 114.899 74.5374C114.899 74.5374 113.162 77.3777 107.828 75.5591" fill="#263238"/>
<path d="M91.1061 49.8336C91.0658 48.4267 92.3688 47.3384 93.6819 46.8208C94.995 46.3031 96.4535 46.1114 97.623 45.3253C98.5792 44.5241 99.4531 43.6298 100.232 42.6557C101.314 41.5609 102.668 40.7733 104.155 40.3737C105.643 39.974 107.21 39.9767 108.696 40.3816C110.182 40.7864 111.534 41.5787 112.612 42.6773C113.69 43.7758 114.456 45.141 114.831 46.6327C115.335 48.6413 114.991 51.0068 113.408 52.3389C111.571 53.8846 108.849 53.5413 106.496 53.0601C104.142 52.579 101.478 52.1042 99.514 53.4847C98.4131 54.4309 97.5303 55.6039 96.9262 56.923C96.3144 58.2484 95.2498 59.3129 93.9233 59.9258C92.5517 60.3969 90.6937 59.5834 90.6406 58.1382" fill="#263238"/>
<path d="M96.6037 50.1257C96.0168 50.1897 95.4752 50.4711 95.0859 50.9142C94.6965 51.3574 94.4877 51.9302 94.5006 52.5195L95.9078 84.3271C95.9664 88.084 101.466 90.1949 105.494 90.1008C109.562 90.0095 109.693 88.0147 109.745 84.4403C109.829 78.4694 109.822 76.228 109.825 76.2618C109.825 76.2618 114.963 75.3981 116.014 68.6995C116.536 65.368 116.356 59.9083 116.065 55.4456C115.803 51.4285 113.125 46.5066 109.116 46.9384L96.6037 50.1257Z" fill="#F6C3AA"/>
<path d="M114.903 59.8533C114.906 60.0772 114.82 60.2932 114.666 60.4553C114.511 60.6175 114.299 60.713 114.075 60.7216C113.966 60.7304 113.856 60.7173 113.752 60.683C113.648 60.6488 113.551 60.594 113.469 60.5221C113.386 60.4501 113.318 60.3624 113.27 60.264C113.222 60.1656 113.194 60.0586 113.188 59.9492C113.185 59.7261 113.269 59.5108 113.423 59.3487C113.577 59.1867 113.787 59.0906 114.011 59.0809C114.12 59.0715 114.231 59.0841 114.336 59.1181C114.44 59.152 114.537 59.2066 114.62 59.2787C114.704 59.3507 114.771 59.4387 114.82 59.5374C114.869 59.6361 114.897 59.7435 114.903 59.8533Z" fill="#263238"/>
<path d="M115.087 57.563C114.98 57.6762 114.328 57.1978 113.403 57.1978C112.477 57.1978 111.8 57.6662 111.699 57.553C111.65 57.5028 111.758 57.3001 112.053 57.0846C112.453 56.8064 112.929 56.6587 113.416 56.6619C113.898 56.659 114.368 56.8093 114.758 57.091C115.041 57.3111 115.139 57.5137 115.087 57.563Z" fill="#263238"/>
<path d="M106.305 60.0171C106.307 60.2402 106.223 60.4555 106.069 60.6176C105.916 60.7796 105.705 60.8757 105.482 60.8854C105.372 60.8942 105.262 60.8811 105.158 60.8468C105.054 60.8126 104.958 60.7578 104.875 60.6859C104.792 60.6139 104.725 60.5262 104.676 60.4278C104.628 60.3294 104.6 60.2224 104.594 60.113C104.591 59.8899 104.676 59.6746 104.829 59.5125C104.983 59.3505 105.194 59.2544 105.417 59.2447C105.526 59.2359 105.636 59.249 105.74 59.2833C105.845 59.3175 105.941 59.3723 106.024 59.4442C106.106 59.5162 106.174 59.6039 106.222 59.7023C106.27 59.8007 106.298 59.9077 106.305 60.0171Z" fill="#263238"/>
<path d="M105.806 58.026C105.699 58.1383 105.046 57.6608 104.12 57.6608C103.195 57.6608 102.517 58.1292 102.418 58.016C102.368 57.9658 102.475 57.7631 102.772 57.5476C103.171 57.2694 103.648 57.1217 104.135 57.1249C104.616 57.1219 105.086 57.2722 105.476 57.554C105.76 57.7695 105.858 57.9722 105.806 58.026Z" fill="#263238"/>
<path d="M109.198 65.3287C109.685 65.1748 110.19 65.0828 110.701 65.0548C110.937 65.0292 111.158 64.9827 111.2 64.822C111.22 64.5781 111.164 64.3341 111.041 64.1226C110.817 63.5523 110.582 62.954 110.338 62.3277C109.686 60.8068 109.157 59.236 108.758 57.6304C109.529 59.0941 110.182 60.6169 110.711 62.1844C110.946 62.8149 111.17 63.4169 111.385 63.9902C111.534 64.2746 111.578 64.6024 111.509 64.916C111.475 64.9993 111.423 65.0738 111.355 65.1338C111.288 65.1937 111.208 65.2376 111.122 65.262C110.991 65.298 110.856 65.317 110.72 65.3186C110.215 65.3859 109.704 65.3893 109.198 65.3287Z" fill="#263238"/>
<path d="M109.87 76.2621C106.712 76.3168 103.601 75.495 100.883 73.8883C100.883 73.8883 103.159 78.487 109.87 77.8452V76.2621Z" fill="#E08760"/>
<path d="M106.218 55.776C106.127 56.0271 105.202 55.9102 104.115 56.0435C103.026 56.1549 102.151 56.4745 102.006 56.249C101.942 56.1412 102.098 55.9048 102.448 55.6601C102.92 55.3608 103.454 55.1728 104.01 55.1105C104.565 55.0482 105.128 55.1131 105.655 55.3004C106.055 55.4601 106.256 55.6555 106.218 55.776Z" fill="#263238"/>
<path d="M114.996 55.514C114.813 55.724 114.088 55.5076 113.218 55.4994C112.35 55.4638 111.613 55.6446 111.443 55.4254C111.369 55.3186 111.485 55.1086 111.809 54.9096C112.249 54.6618 112.749 54.5416 113.253 54.5627C113.756 54.5661 114.247 54.711 114.671 54.9808C114.976 55.1954 115.076 55.4108 114.996 55.514Z" fill="#263238"/>
<path d="M91.9766 72.1532C92.9029 72.3393 93.8602 72.3027 94.7696 72.0464C95.6789 71.7902 96.5142 71.3216 97.2064 70.6794C97.8985 70.0372 98.4277 69.2398 98.7503 68.353C99.0728 67.4663 99.1795 66.5157 99.0614 65.5797C98.852 63.9363 97.9641 62.2619 98.5356 60.7052C99.2909 58.6473 102.18 58.0137 102.947 55.9577C103.392 54.7644 102.992 53.3675 103.495 52.198C103.788 51.6743 104.184 51.2148 104.658 50.8469C105.133 50.4791 105.677 50.2105 106.258 50.057C107.42 49.7564 108.528 49.2761 109.542 48.6337C110.04 48.298 110.405 47.7993 110.575 47.2237C110.744 46.648 110.707 46.0314 110.47 45.4802C105.46 46.0802 100.541 47.274 95.8143 49.0363C94.679 49.3437 93.6682 49.9974 92.923 50.9061C92.3514 52.0101 92.1434 53.2661 92.3286 54.4951L93.1717 72.533" fill="#263238"/>
<path d="M88.431 50.3967C88.3681 50.4753 88.3293 50.5704 88.3195 50.6705C88.3024 50.8154 88.3167 50.9623 88.3614 51.1012C88.406 51.2401 88.48 51.3678 88.5782 51.4758C88.7257 51.6538 88.9083 51.7995 89.1148 51.9038C89.3212 52.0082 89.5469 52.0688 89.7779 52.082C90.3762 52.0463 90.9581 51.8725 91.4778 51.5744C92.0801 51.2418 92.748 51.0448 93.4346 50.9974C94.2295 50.9763 95.024 51.0483 95.802 51.2119C96.6832 51.402 97.5788 51.5174 98.4794 51.5571C99.4904 51.5948 100.476 51.2341 101.223 50.5528C101.897 49.8407 102.433 49.0102 102.805 48.1032C103.148 47.294 103.577 46.5239 104.085 45.8061C104.522 45.2202 105.122 44.7746 105.81 44.5241C106.497 44.2735 107.244 44.2288 107.956 44.3956C108.927 44.6513 109.762 45.2685 110.291 46.1202C110.475 46.4408 110.639 46.7722 110.783 47.1126C110.783 47.0146 110.766 46.9172 110.732 46.825C110.654 46.5554 110.546 46.2956 110.408 46.0508C110.154 45.5934 109.813 45.1906 109.403 44.8656C108.993 44.5406 108.522 44.2999 108.019 44.1573C107.31 43.9705 106.564 43.9853 105.864 44.2002C105.056 44.4449 104.346 44.9371 103.834 45.6071C103.304 46.3385 102.856 47.126 102.498 47.9553C102.14 48.8207 101.628 49.6142 100.987 50.2971C100.303 50.9187 99.401 51.2466 98.4767 51.2101C97.5952 51.1751 96.7181 51.0683 95.8542 50.8906C95.0501 50.7317 94.2297 50.6704 93.4109 50.708C92.6908 50.7681 91.9929 50.9864 91.3671 51.3471C90.8846 51.6411 90.3422 51.8236 89.7797 51.8812C89.572 51.8754 89.3675 51.8283 89.1783 51.7426C88.9891 51.6568 88.819 51.5341 88.6779 51.3818C88.5843 51.289 88.5104 51.1784 88.4604 51.0565C88.4105 50.9347 88.3856 50.804 88.3871 50.6724C88.3972 50.4943 88.4511 50.403 88.431 50.3967Z" fill="#455A64"/>
<path d="M87.6953 51.0333C88.5549 49.8979 89.6352 48.9475 90.8714 48.2389C92.1077 47.5302 93.4744 47.078 94.8899 46.9094C94.4666 46.8274 94.0309 46.8327 93.6097 46.9249C91.5392 47.2338 89.6609 48.3094 88.3482 49.9377C88.0583 50.2548 87.8361 50.6276 87.6953 51.0333Z" fill="#FF8A00"/>
<path d="M95.2127 46.5639C95.2027 46.5703 95.2347 46.6369 95.3042 46.7611C95.4233 46.9348 95.5689 47.0889 95.7358 47.2176C96.0541 47.4433 96.4145 47.6031 96.7956 47.6876C97.1767 47.7722 97.571 47.7797 97.955 47.7097C99.0782 47.4471 100.092 46.8437 100.858 45.9823C101.728 44.9487 102.731 44.0342 103.841 43.2625C105.016 42.6172 106.392 42.4423 107.691 42.7732C108.75 43.0471 109.693 43.6555 110.378 44.5079C110.846 45.0829 111.193 45.7453 111.401 46.4562C111.548 46.962 111.575 47.2569 111.605 47.2532C111.616 47.2532 111.62 47.1783 111.614 47.0368C111.605 46.8302 111.577 46.6249 111.53 46.4233C111.321 45.4855 110.861 44.6219 110.199 43.9247C109.537 43.2275 108.698 42.7228 107.771 42.4646C106.393 42.0938 104.924 42.2716 103.675 42.9603C102.536 43.7453 101.513 44.6857 100.636 45.7541C99.9205 46.5838 98.9724 47.1804 97.9139 47.4669C97.1919 47.6175 96.4395 47.4869 95.8108 47.1017C95.5945 46.9421 95.3942 46.762 95.2127 46.5639Z" fill="#455A64"/>
<path d="M95.5111 75.028C95.4169 75.0724 95.3157 75.1002 95.212 75.1102C94.9212 75.1648 94.6264 75.1954 94.3306 75.2015C93.2312 75.2208 92.1432 74.976 91.1585 74.4875C89.6786 73.762 88.4867 72.5597 87.7752 71.0748C86.8919 69.2607 86.6884 67.1907 87.2018 65.2399C87.4851 64.2814 87.6825 63.2997 87.7916 62.3064C87.8311 61.3928 87.6002 60.4878 87.1278 59.7044C86.6754 58.9639 86.3262 58.1653 86.0899 57.3306C85.912 56.5863 85.8896 55.8134 86.0241 55.06C86.207 53.9724 86.6877 52.9565 87.4131 52.1248C87.605 51.9002 87.8195 51.6958 88.0531 51.5149C88.2159 51.3935 88.3046 51.3323 88.3129 51.3478C88.3385 51.377 87.9947 51.6318 87.5283 52.2225C86.8772 53.0604 86.4548 54.0525 86.3021 55.102C86.1929 55.8181 86.2296 56.5488 86.41 57.2503C86.6541 58.0539 87.0044 58.8215 87.4515 59.5328C87.6842 59.9458 87.8736 60.3818 88.0166 60.8338C88.1516 61.318 88.2072 61.8209 88.1812 62.3229C88.0768 63.341 87.8788 64.3474 87.5896 65.3293C87.0963 67.193 87.2786 69.1707 88.1044 70.9132C88.6613 72.1063 89.5368 73.1231 90.6347 73.8519C91.7326 74.5807 93.0104 74.9933 94.3278 75.0444C95.0868 75.0673 95.5056 74.9915 95.5111 75.028Z" fill="#455A64"/>
<path d="M83.6328 45.3778C83.9473 45.0717 84.3457 44.8657 84.7776 44.7862C85.8078 44.4937 86.9087 44.578 87.8822 45.0239C88.8556 45.4698 89.6377 46.248 90.0876 47.2184C90.3089 47.5972 90.4124 48.0333 90.3848 48.471C90.3208 48.4856 90.2175 48.0072 89.8361 47.3489C89.3569 46.4853 88.6136 45.7973 87.7149 45.3855C86.8161 44.9737 85.809 44.8597 84.8407 45.0601C84.0937 45.1952 83.6639 45.4326 83.6328 45.3778Z" fill="#455A64"/>
<path d="M88.5851 49.601C88.5862 49.4554 88.5954 49.31 88.6126 49.1655C88.6246 48.7538 88.5224 48.3468 88.3172 47.9895C87.9957 47.4254 87.5113 46.9711 86.9273 46.6858C86.5477 46.4974 86.1314 46.3942 85.7075 46.3835C85.2837 46.3728 84.8627 46.4548 84.474 46.6237C83.522 47.0503 82.7468 47.7921 82.2794 48.7236C81.7467 49.7988 81.5112 50.9965 81.5973 52.1929C81.6906 53.5317 81.901 54.8596 82.2264 56.1617C82.5882 57.5874 82.7613 59.0543 82.7412 60.5249C82.6041 61.9958 82.2199 63.4332 81.6046 64.7766C81.0498 66.0029 80.5629 67.2586 80.1461 68.5382C79.7855 69.6886 79.6816 70.904 79.8416 72.0988C79.9993 73.1386 80.3131 74.1488 80.7725 75.0952C81.4647 76.4674 82.2881 77.7696 83.2313 78.9837L83.9875 79.9879C84.0839 80.0993 84.1665 80.222 84.2335 80.3531C84.1183 80.2611 84.0148 80.1553 83.9253 80.0382C83.7333 79.8236 83.4553 79.5013 83.1088 79.0768C82.1084 77.8864 81.2398 76.5916 80.5183 75.2148C80.0271 74.248 79.6879 73.2115 79.5124 72.1417C79.3302 70.9022 79.4238 69.6379 79.7867 68.4386C80.197 67.1424 80.6812 65.8707 81.237 64.6297C81.829 63.3245 82.1998 61.9303 82.3343 60.5039C82.4559 57.565 81.2635 54.8433 81.2223 52.2057C81.1437 50.9466 81.4059 49.6896 81.9813 48.5666C82.4934 47.5792 83.3341 46.8009 84.3588 46.3653C84.784 46.1901 85.2427 46.1105 85.7023 46.1321C86.1618 46.1537 86.6109 46.2761 87.0178 46.4904C87.6301 46.8089 88.1285 47.309 88.4443 47.922C88.646 48.3065 88.7287 48.7421 88.6821 49.1737C88.672 49.3203 88.6394 49.4644 88.5851 49.601Z" fill="#455A64"/>
<path d="M108.863 67.5728C108.726 67.9741 108.532 68.3538 108.287 68.7003C108.163 68.873 108.004 69.0174 107.82 69.124C107.636 69.2306 107.431 69.2968 107.22 69.3184C106.993 69.3192 106.769 69.2628 106.57 69.1544C106.371 69.0461 106.203 68.8892 106.08 68.6985C105.84 68.3119 105.73 67.8592 105.764 67.4057C105.782 66.9976 105.969 66.511 106.375 66.4635C106.546 66.4576 106.715 66.495 106.868 66.5721L109.001 67.4358" fill="#E0875F"/>
<path d="M108.001 69.3248C107.616 69.3496 107.23 69.3023 106.863 69.1851C106.49 69.0394 106.184 68.7614 106.003 68.4045C105.901 68.1872 105.845 67.9508 105.841 67.7108C105.836 67.4707 105.882 67.2324 105.975 67.0112C106.023 66.8981 106.085 66.7911 106.158 66.6926C106.243 66.6013 106.227 66.6086 106.319 66.6214C106.412 66.6342 106.546 66.7127 106.661 66.7547L107.011 66.898C107.469 67.0806 107.881 67.2431 108.23 67.3737C108.597 67.5499 108.989 67.6676 109.392 67.7225C109.074 67.4692 108.718 67.2676 108.336 67.1254C108.001 66.9638 107.599 66.7766 107.148 66.5776L106.802 66.4242C106.675 66.3634 106.545 66.3097 106.413 66.2635C106.309 66.2321 106.198 66.2353 106.096 66.2726C106.003 66.3121 105.922 66.3751 105.861 66.4552C105.764 66.5792 105.684 66.7152 105.622 66.8597C105.506 67.1309 105.451 67.4245 105.462 67.7192C105.474 68.014 105.55 68.3026 105.687 68.5642C105.918 68.9869 106.307 69.3013 106.769 69.4389C107.068 69.5346 107.388 69.5469 107.694 69.4745C107.909 69.4179 108.009 69.3467 108.001 69.3248Z" fill="#263238"/>
<path d="M123.203 62.4133C125.111 61.7998 126.94 60.9641 128.652 59.9236C126.744 60.5375 124.915 61.3732 123.203 62.4133Z" fill="#455A64"/>
<path d="M132.038 75.2468C132.669 75.2213 134.2 76.1333 135.43 77.8242C135.451 77.8497 135.472 77.8717 135.493 77.899C136.368 79.0348 137.19 75.7919 137.338 74.5849C137.368 74.3981 137.439 74.2202 137.546 74.0644C137.654 73.9087 137.795 73.779 137.959 73.6849C138.124 73.5908 138.307 73.5347 138.496 73.5208C138.685 73.5068 138.875 73.5354 139.051 73.6044L143.114 75.5015L144.303 75.5408C144.587 75.64 144.824 75.8419 144.967 76.1068C145.111 76.3717 145.149 76.6804 145.076 76.9724L143.134 83.377L143.092 85.1254L134.954 86.2209L134.828 81.8386C134.707 81.3328 134.546 80.7348 134.329 80.0537C134.133 79.4362 133.83 78.8578 133.434 78.3446C133.003 77.7616 132.512 77.2247 131.971 76.7423C131.927 76.7149 131.879 76.6747 131.837 76.651C131.747 76.6006 131.668 76.5322 131.606 76.4501C131.511 76.3554 131.445 76.2357 131.416 76.1049C131.386 75.9741 131.395 75.8377 131.44 75.7115C131.485 75.5854 131.566 75.4747 131.672 75.3924C131.778 75.3101 131.905 75.2596 132.038 75.2468Z" fill="#F6C3AA"/>
<path d="M132.203 55.513C132.203 55.513 136.952 54.6045 143.771 48.4181C150.591 42.2317 153.951 33.8542 154.763 33.919C155.575 33.9838 159.17 32.439 165.502 47.2888C171.834 62.1385 169.08 65.4673 167.737 65.4015C166.394 65.3358 157.348 62.5402 151.633 63.0278C145.918 63.5153 138.514 66.2689 138.514 66.2689L132.203 55.513Z" fill="#455A64"/>
<path d="M121.947 63.219L123.47 66.3232L124.152 67.7118C124.602 68.6301 125.388 69.341 126.347 69.6977C127.307 70.0545 128.367 70.0299 129.308 69.6291L139.521 66.3981L134.013 52.8064L123.755 57.8899C122.81 58.3595 122.089 59.1836 121.75 60.1821C121.412 61.1807 121.482 62.2725 121.947 63.219Z" fill="#263238"/>
<path d="M127.641 68.2759L130.685 74.6733L132.309 74.2724L142.59 83.1184L145.695 77.4524C145.695 77.4524 139.551 74.602 138.464 72.3552C137.376 70.1083 138.72 69.6436 138.72 69.6436L135.885 66.24L127.641 68.2759Z" fill="#263238"/>
<path d="M164.961 47.5393C168.327 55.5809 169.624 62.6994 167.851 63.438C166.078 64.1766 161.918 58.2559 158.552 50.2134C155.185 42.1709 153.888 35.0578 155.661 34.3146C157.434 33.5715 161.597 39.4977 164.961 47.5393Z" fill="#263238"/>
<path d="M120.963 67.6104L123.728 66.8289L122.123 63.5604L120.031 64.7784L120.963 67.6104Z" fill="#455A64"/>
<g opacity="0.3">
<path d="M136.858 67.406L129.36 71.8879L128.492 70.0619L136.858 67.406Z" fill="black"/>
</g>
<path d="M123.992 64.3562C126.091 63.734 128.117 62.8883 130.035 61.8336C127.936 62.4556 125.91 63.3013 123.992 64.3562Z" fill="#455A64"/>
<path d="M124.993 66.3982C125.005 66.4447 125.334 66.379 125.858 66.2339C126.119 66.1617 126.429 66.0686 126.772 65.96C127.115 65.8513 127.47 65.6806 127.85 65.5208C128.79 65.1759 129.681 64.7114 130.502 64.1385C129.538 64.3927 128.604 64.7477 127.716 65.1976C127.338 65.3556 126.984 65.5318 126.658 65.6541C126.331 65.7765 126.03 65.8915 125.782 65.9928C125.282 66.2037 124.98 66.3507 124.993 66.3982Z" fill="#455A64"/>
<path d="M157.68 45.5666C157.68 45.5666 161.853 43.1435 163.939 48.7392C166.025 54.3349 161.685 55.1219 161.685 55.1219C159.906 52.1409 158.558 48.924 157.68 45.5666Z" fill="#FAFAFA"/>
<path d="M153.508 38.8494C153.521 39.2061 153.565 39.561 153.639 39.9103C153.749 40.5895 153.905 41.5765 154.133 42.7889C154.29 43.3869 154.461 44.0406 154.644 44.7409L154.932 45.8282L155.084 46.397C155.14 46.5869 155.215 46.775 155.281 46.9677C155.555 47.7373 155.841 48.5444 156.139 49.3807C156.214 49.5901 156.289 49.801 156.366 50.0134C156.44 50.227 156.549 50.4288 156.641 50.6397C156.83 51.0572 157.022 51.4812 157.215 51.9115L157.791 53.1833C157.89 53.3896 157.974 53.6042 158.082 53.8014L158.407 54.3902L159.652 56.6298C159.753 56.8069 159.845 56.9868 159.951 57.1548L160.278 57.645L160.904 58.5827L162.034 60.2589C162.791 61.2294 163.427 61.9936 163.863 62.5295C164.076 62.8163 164.314 63.0842 164.573 63.3302C164.398 63.0186 164.196 62.7226 163.97 62.4455L162.233 60.1074L161.149 58.4202L160.542 57.4825L160.225 56.9932C160.123 56.8252 160.033 56.6444 159.934 56.4682L158.716 54.2332L158.395 53.6471C158.286 53.4517 158.205 53.239 158.108 53.0335L157.539 51.77L156.967 50.5073C156.876 50.2982 156.77 50.0974 156.693 49.8856L156.465 49.2583L155.593 46.8681C155.525 46.6773 155.449 46.4911 155.391 46.303C155.334 46.1149 155.285 45.9259 155.233 45.7406L154.931 44.6651C154.733 43.9721 154.549 43.3267 154.382 42.735L153.78 39.8911C153.72 39.5367 153.628 39.1881 153.508 38.8494Z" fill="#263238"/>
<path d="M140.481 72.3805C140.694 72.4774 140.862 72.6508 140.952 72.866C141.043 73.0812 141.048 73.3226 140.968 73.5419C140.656 74.4247 140.151 75.8097 139.773 76.646C139.668 76.9224 139.51 77.1762 139.31 77.3938C139.211 77.4996 139.085 77.576 138.946 77.6144C138.806 77.6527 138.659 77.6516 138.52 77.6111C138.38 77.5422 138.261 77.436 138.178 77.3042C138.094 77.1724 138.049 77.0201 138.047 76.8642C138.044 76.5487 138.102 76.2355 138.216 75.9412C138.482 75.1195 138.942 73.8806 139.335 72.8754C139.375 72.7656 139.437 72.6651 139.517 72.58C139.598 72.4948 139.694 72.4268 139.801 72.3801C139.909 72.3334 140.024 72.309 140.141 72.3082C140.258 72.3075 140.374 72.3306 140.482 72.376L140.481 72.3805Z" fill="#F6C3AA"/>
<path d="M141.722 74.0096C141.935 74.1064 142.103 74.2798 142.194 74.495C142.284 74.7103 142.29 74.9516 142.21 75.1709C141.897 76.0538 141.392 77.4388 141.015 78.2751C140.909 78.5514 140.752 78.8051 140.551 79.0228C140.452 79.1285 140.326 79.2047 140.187 79.2431C140.047 79.2814 139.9 79.2804 139.761 79.2401C139.621 79.1712 139.503 79.065 139.42 78.9332C139.336 78.8013 139.291 78.6491 139.289 78.4933C139.286 78.1777 139.343 77.8645 139.457 77.5702C139.724 76.7485 140.183 75.5096 140.577 74.5044C140.617 74.3946 140.679 74.2941 140.759 74.209C140.839 74.1238 140.935 74.0559 141.043 74.0091C141.15 73.9624 141.266 73.938 141.383 73.9373C141.5 73.9366 141.616 73.9596 141.723 74.005L141.722 74.0096Z" fill="#F6C3AA"/>
<path d="M142.897 75.0416C143.087 75.1194 143.238 75.2675 143.321 75.4548C143.403 75.6421 143.41 75.8539 143.339 76.0458C143.056 76.81 142.6 78.0106 142.258 78.7373C142.161 78.9784 142.019 79.1985 141.838 79.3855C141.75 79.4881 141.631 79.5606 141.5 79.5927C141.368 79.6249 141.23 79.6151 141.104 79.5648C140.978 79.5145 140.871 79.4262 140.798 79.3122C140.725 79.1982 140.689 79.0642 140.696 78.9291C140.694 78.6552 140.746 78.3837 140.85 78.1302C141.091 77.4153 141.506 76.3462 141.862 75.4752C141.901 75.3786 141.959 75.2907 142.033 75.2166C142.106 75.1424 142.194 75.0836 142.29 75.0433C142.387 75.0031 142.49 74.9823 142.595 74.9822C142.699 74.982 142.802 75.0025 142.899 75.0425L142.897 75.0416Z" fill="#F6C3AA"/>
<path d="M144.479 75.3879C144.67 75.4664 144.823 75.6155 144.905 75.804C144.988 75.9924 144.994 76.2056 144.923 76.3986C144.638 77.1673 144.179 78.3725 143.837 79.1019C143.739 79.3439 143.596 79.5649 143.415 79.7529C143.326 79.8564 143.208 79.9297 143.075 79.9623C142.943 79.995 142.804 79.9855 142.677 79.9352C142.55 79.8848 142.443 79.7962 142.369 79.6816C142.295 79.5671 142.26 79.4324 142.266 79.2964C142.264 79.0211 142.316 78.7481 142.42 78.493C142.662 77.7754 143.079 76.7008 143.437 75.8261C143.477 75.7292 143.535 75.641 143.609 75.5666C143.683 75.4923 143.771 75.4333 143.868 75.393C143.965 75.3527 144.069 75.3319 144.174 75.3318C144.278 75.3317 144.382 75.3523 144.479 75.3925V75.3879Z" fill="#F6C3AA"/>
<path d="M139.391 77.4327C140.039 76.4536 140.497 75.3611 140.739 74.2126C140.092 75.1921 139.634 76.2845 139.391 77.4327Z" fill="#E08760"/>
<path d="M140.758 78.7847C141.446 77.6432 141.94 76.396 142.221 75.0935C141.533 76.2351 141.039 77.4823 140.758 78.7847Z" fill="#E08760"/>
<path d="M142.148 78.9639C142.879 78.0188 143.347 76.898 143.505 75.7146C142.936 76.7452 142.481 77.8347 142.148 78.9639Z" fill="#E08760"/>
<path d="M82.9356 202.697L87.2242 168.351C84.4316 161.842 83.4193 155.342 84.235 151.302C84.1874 151.725 84.1646 152.249 84.2798 151.062C84.9738 143.91 91.1598 138.652 91.1598 138.652L93.2291 129.978L119.715 133.697L118.709 148.222L135.85 208.485L138.959 259.43L125.12 261.051C125.12 261.051 119.694 235.579 118.232 224.934C117.429 219.16 116.971 213.344 116.86 207.516L103.854 188.09C102.315 196.109 100.575 206.006 99.6784 211.171C99.2778 213.48 98.2841 215.646 96.7943 217.456L62.7656 244.198V228.091C66.0063 220.37 82.9356 202.697 82.9356 202.697Z" fill="#263238"/>
<path d="M116.305 144.472C116.551 144.018 116.737 143.535 116.858 143.033C117.58 140.654 117.954 138.183 117.97 135.697C118.003 135.183 117.968 134.666 117.867 134.16C117.781 134.665 117.737 135.177 117.738 135.69C117.679 136.633 117.568 137.933 117.354 139.357C117.139 140.78 116.857 142.054 116.634 142.972C116.482 143.462 116.372 143.964 116.305 144.472Z" fill="#455A64"/>
<path d="M115.08 134.59C115.087 134.575 114.977 134.491 114.739 134.438C114.521 134.399 114.298 134.404 114.083 134.453C113.867 134.502 113.664 134.593 113.485 134.722C113.306 134.851 113.154 135.015 113.04 135.203C112.925 135.392 112.85 135.602 112.818 135.82C112.792 136.149 112.856 136.478 113.006 136.772C113.155 137.066 113.383 137.314 113.664 137.486C113.954 137.648 114.287 137.719 114.618 137.689C114.949 137.658 115.264 137.529 115.52 137.316C115.732 137.155 115.9 136.943 116.01 136.7C116.119 136.457 116.166 136.191 116.146 135.925C116.115 135.584 116.014 135.254 115.85 134.954C115.738 134.745 115.655 134.643 115.637 134.652C115.618 134.661 115.659 134.786 115.728 135.004C115.839 135.302 115.9 135.615 115.911 135.932C115.914 136.155 115.863 136.376 115.763 136.575C115.662 136.775 115.515 136.946 115.333 137.076C115.123 137.243 114.869 137.344 114.601 137.367C114.334 137.39 114.066 137.333 113.831 137.204C113.602 137.062 113.415 136.861 113.29 136.622C113.164 136.383 113.105 136.116 113.118 135.847C113.141 135.626 113.217 135.414 113.34 135.229C113.464 135.044 113.63 134.893 113.826 134.787C114.211 134.588 114.651 134.518 115.08 134.59Z" fill="#455A64"/>
<path d="M93.8189 90.5548C93.7658 90.5548 93.7686 89.892 93.5903 88.8485C93.3551 87.4927 92.8857 86.1881 92.2031 84.9929C91.5904 83.7663 90.6049 82.7645 89.3876 82.1307C88.8621 81.9245 88.2981 81.8344 87.7344 81.8668C87.8738 81.7876 88.0311 81.7448 88.1916 81.7427C88.6262 81.7017 89.0644 81.7621 89.4718 81.9189C90.7785 82.5186 91.8404 83.5466 92.4811 84.8322C93.1866 86.0578 93.6399 87.4118 93.8143 88.8147C93.9158 89.3902 93.9173 89.9788 93.8189 90.5548Z" fill="#263238"/>
<path d="M96.0206 80.3504L109.896 82.4977L112.365 84.6351C112.365 84.6351 121.097 101.617 121.258 105.04C121.436 108.828 119.4 115.331 119.4 115.331L121.398 130.33C121.693 132.053 120.575 133.708 119.819 133.708L95.8496 130.499C92.7242 129.885 91.4422 128.255 91.6342 126.449L91.9917 123.107L81.7504 88.8695C81.1441 90.8936 82.0915 83.4144 86.6617 81.7372C88.6039 81.0288 93.079 79.7351 96.0206 80.3504Z" fill="#D13C32"/>
<path d="M111.086 83.6267C111.086 83.6267 115.357 86.9135 119.4 90.6512C123.442 94.389 134.226 101.865 134.226 101.865L134.968 86.226L143.107 85.1304C143.107 85.1304 147.082 104.631 144.559 110.013C142.035 115.395 139.021 115.623 130.635 112.935C122.249 110.246 119.853 109.047 119.853 109.047L111.086 83.6267Z" fill="#D13C32"/>
<path d="M113.219 85.947C113.293 86.0189 113.358 86.1006 113.411 86.1899L113.909 86.9203C114.335 87.5594 114.942 88.486 115.665 89.651C117.607 92.6626 119.171 95.9012 120.321 99.294C121.456 102.721 121.703 106.379 121.039 109.927C120.821 110.993 120.483 112.032 120.033 113.023C119.885 113.378 119.724 113.632 119.632 113.811C119.59 113.906 119.535 113.994 119.469 114.073C119.443 114.061 119.631 113.679 119.918 112.973C120.318 111.975 120.619 110.94 120.815 109.883C121.403 106.372 121.128 102.772 120.013 99.3908C118.865 96.0231 117.341 92.7953 115.469 89.7688L113.803 86.9878L113.356 86.2273C113.297 86.1409 113.251 86.0465 113.219 85.947Z" fill="#263238"/>
<path d="M89.2697 81.7428C89.2697 81.7428 93.5894 87.3923 93.8262 92.5745C94.063 97.7566 86.0748 128.832 86.0748 128.832L79.0704 157.198L70.3516 153.987C70.3516 153.987 72.3807 133.791 72.7665 131.283C73.5703 126.058 77.0203 115.875 77.4922 109.985C77.964 104.095 80.1503 92.7552 81.2303 90.1021C82.3102 87.449 82.3532 81.594 89.2697 81.7428Z" fill="#D13C32"/>
<path d="M93.4696 95.4332C93.4799 95.5347 93.4756 95.637 93.4568 95.7372C93.4294 95.9719 93.3964 96.2576 93.3553 96.6028C93.252 97.3514 93.081 98.4287 92.8432 99.7635C92.3668 102.424 91.6051 106.08 90.6962 110.101C89.7873 114.123 88.8957 117.75 88.2182 120.366C87.8789 121.673 87.5936 122.73 87.387 123.456C87.2882 123.789 87.2041 124.065 87.1392 124.291C87.1164 124.391 87.0801 124.487 87.0312 124.577C87.0321 124.474 87.0472 124.373 87.0761 124.275L87.2663 123.425C87.4492 122.641 87.6969 121.589 87.9978 120.311C88.6187 117.635 89.4608 114.023 90.3826 110.031C91.2906 106.014 92.087 102.367 92.6192 99.7206C92.8707 98.4333 93.0764 97.3733 93.2318 96.5827L93.3919 95.7281C93.4042 95.6267 93.4303 95.5275 93.4696 95.4332Z" fill="#263238"/>
<g opacity="0.3">
<path d="M94.0872 130.025C95.4588 128.649 95.7514 126.556 95.9663 124.623C96.6527 118.476 97.3385 112.326 98.0237 106.174C98.4507 102.339 98.8558 98.3219 97.4065 94.7412C97.3301 94.4613 97.192 94.202 97.0021 93.9824C96.8122 93.7627 96.5754 93.5884 96.3092 93.4721C96.0369 93.4203 95.7554 93.4491 95.4992 93.5548C95.243 93.6606 95.0233 93.8387 94.8672 94.0674C94.5334 94.5075 93.5989 95.1411 93.4617 95.6761C92.0636 101.159 91.4564 106.558 90.0574 112.041C89.6916 113.489 89.2061 113.434 89.5261 114.894C89.9916 117.015 91.9813 123.104 91.9813 123.104C91.9813 123.104 91.6969 125.315 91.6155 126.607C91.5729 127.373 91.7948 128.13 92.2441 128.753C92.6935 129.375 93.3431 129.824 94.0845 130.025" fill="black"/>
</g>
<path d="M92.8043 98.4955C92.6643 98.6327 92.5047 98.7484 92.3306 98.8388C91.8803 99.1244 91.4093 99.3762 90.9215 99.592C90.1895 99.9356 89.3852 100.098 88.577 100.065C87.5919 99.9503 86.6538 99.5815 85.8548 98.9949C85.0862 98.4318 84.2783 97.9245 83.4371 97.4766C82.7606 97.1234 81.9881 96.9976 81.2343 97.1178C80.7269 97.1985 80.257 97.4342 79.8892 97.7925C79.6377 98.0555 79.5536 98.249 79.5234 98.2362C79.5602 98.0386 79.6532 97.8557 79.7914 97.7094C80.1513 97.2897 80.6421 97.0029 81.1849 96.8951C81.9884 96.7328 82.823 96.8427 83.5569 97.2073C84.4199 97.6458 85.2456 98.1539 86.0258 98.7265C86.7811 99.2834 87.6642 99.6421 88.5944 99.7701C89.3598 99.8126 90.1248 99.6799 90.831 99.382C92.0627 98.8836 92.7759 98.4407 92.8043 98.4955Z" fill="#FAFAFA"/>
<path d="M119.838 97.835C119.847 97.8405 119.804 97.92 119.713 98.0679C119.578 98.2823 119.42 98.4813 119.242 98.6613C118.573 99.3241 117.738 99.7955 116.825 100.026C115.476 100.377 114.062 100.396 112.705 100.083C111.078 99.6668 109.479 99.1525 107.915 98.5426C105.068 97.4988 101.981 97.2916 99.0196 97.9455C97.8009 98.2451 96.6084 98.642 95.4534 99.1324C95.4479 99.1233 95.5238 99.074 95.6747 98.9891C95.8255 98.9041 96.0468 98.7782 96.3449 98.6449C97.1849 98.252 98.0623 97.9443 98.9638 97.7264C100.303 97.3955 101.682 97.2478 103.061 97.2872C104.753 97.3389 106.426 97.6607 108.016 98.2404C109.568 98.845 111.154 99.3632 112.764 99.7925C114.077 100.11 115.447 100.115 116.763 99.8053C117.65 99.6012 118.471 99.1766 119.15 98.5709C119.628 98.1318 119.81 97.815 119.838 97.835Z" fill="#FAFAFA"/>
<path d="M124.94 95.0857C125.047 95.5095 125.07 95.9504 125.007 96.383C124.914 97.4357 124.613 98.4595 124.119 99.3943C123.626 100.329 122.95 101.156 122.133 101.827C121.811 102.124 121.434 102.355 121.023 102.506C121.328 102.205 121.648 101.922 121.983 101.656C123.49 100.259 124.477 98.3913 124.78 96.3602C124.811 95.9328 124.864 95.5074 124.94 95.0857Z" fill="#FAFAFA"/>
<g opacity="0.3">
<path d="M116.018 90.1003C122.572 96.6738 128.207 103.978 130.621 112.925C126.877 111.701 123.338 110.513 120.999 109.541C121.375 107.611 121.468 105.636 121.273 103.678C120.753 101.022 120.756 98.7947 116.016 90.0994" fill="black"/>
</g>
<path d="M134.109 101.9C134.584 102.551 135.022 103.229 135.419 103.931C135.718 104.679 135.974 105.444 136.186 106.221C136.241 105.384 136.08 104.546 135.716 103.789C135.352 103.032 134.799 102.381 134.109 101.9Z" fill="#263238"/>
<path d="M203.714 113.64C201.844 113.64 199.991 113.273 198.263 112.558C196.534 111.843 194.964 110.795 193.641 109.475C192.318 108.154 191.269 106.586 190.553 104.86C189.837 103.134 189.469 101.285 189.469 99.4168C189.469 95.6445 190.97 92.0267 193.641 89.3593C196.313 86.6919 199.936 85.1934 203.714 85.1934C207.492 85.1934 211.116 86.6919 213.787 89.3593C216.459 92.0267 217.96 95.6445 217.96 99.4168C217.96 101.285 217.591 103.134 216.875 104.86C216.16 106.586 215.11 108.154 213.787 109.474C212.465 110.795 210.894 111.843 209.166 112.558C207.437 113.272 205.585 113.64 203.714 113.64Z" fill="#EDF5E4" fill-opacity="0.51"/>
<path fill-rule="evenodd" clip-rule="evenodd" d="M211.525 99.0217C211.458 97.0475 210.631 95.175 209.215 93.7954C207.799 92.4158 205.904 91.6355 203.925 91.6175C201.947 91.5995 200.038 92.3451 198.597 93.6987C197.156 95.0523 196.294 96.9093 196.192 98.882C196.192 98.9934 196.185 99.1048 196.185 99.2153C196.183 100.6 196.562 101.958 197.282 103.141L195.898 107.219L200.148 105.87C201.312 106.51 202.623 106.837 203.953 106.819C205.282 106.801 206.584 106.439 207.731 105.768C208.878 105.098 209.831 104.141 210.497 102.993C211.163 101.844 211.519 100.542 211.53 99.2153C211.53 99.1505 211.53 99.0866 211.525 99.0217ZM203.857 105.605C202.595 105.608 201.361 105.24 200.308 104.547L197.83 105.336L198.634 102.962C197.836 101.877 197.406 100.565 197.405 99.219C197.406 99.0119 197.417 98.8049 197.438 98.599C197.605 97.0045 198.362 95.5295 199.56 94.4622C200.758 93.3948 202.312 92.8117 203.917 92.8269C205.523 92.8421 207.065 93.4544 208.243 94.5442C209.42 95.634 210.149 97.1231 210.286 98.7204C210.3 98.8857 210.308 99.051 210.308 99.219C210.298 100.919 209.613 102.547 208.404 103.744C207.194 104.941 205.559 105.61 203.856 105.605H203.857Z" fill="white"/>
<path fill-rule="evenodd" clip-rule="evenodd" d="M207.375 100.75C207.185 100.659 206.261 100.202 206.089 100.144C205.918 100.085 205.791 100.053 205.666 100.235C205.541 100.418 205.178 100.841 205.07 100.966C204.962 101.09 204.851 101.105 204.66 101.012C204.106 100.795 203.594 100.482 203.149 100.087C202.738 99.7128 202.385 99.2788 202.104 98.7999C201.996 98.6173 202.093 98.5132 202.186 98.4201C202.278 98.327 202.369 98.2019 202.469 98.0942C202.495 98.0613 202.517 98.033 202.538 98.0029C202.582 97.9315 202.622 97.8574 202.657 97.781C202.682 97.7299 202.695 97.673 202.692 97.6158C202.69 97.5587 202.673 97.503 202.643 97.4542C202.595 97.3629 202.22 96.4426 202.061 96.0701C201.901 95.6976 201.748 95.7624 201.637 95.7624C201.527 95.7624 201.404 95.7441 201.278 95.7441C201.182 95.7464 201.089 95.7683 201.002 95.8083C200.916 95.8484 200.838 95.9058 200.775 95.977C200.563 96.1758 200.396 96.4166 200.282 96.6838C200.169 96.951 200.113 97.2389 200.117 97.529C200.12 97.7455 200.153 97.9605 200.214 98.1681C200.362 98.6338 200.589 99.0705 200.886 99.4591C201.67 100.68 202.783 101.656 204.097 102.274C206.011 103.016 206.011 102.769 206.356 102.737C206.619 102.687 206.867 102.583 207.086 102.43C207.304 102.278 207.488 102.08 207.624 101.851C207.747 101.573 207.786 101.265 207.735 100.966C207.688 100.888 207.563 100.843 207.375 100.75Z" fill="white"/>
<path d="M117.999 29.45C116.062 29.45 114.144 29.0691 112.355 28.3289C110.565 27.5888 108.939 26.504 107.57 25.1364C106.2 23.7688 105.114 22.1453 104.372 20.3585C103.631 18.5717 103.25 16.6566 103.25 14.7226C103.25 10.8169 104.804 7.07114 107.57 4.30938C110.336 1.54763 114.088 -0.00390625 117.999 -0.00390625C121.911 -0.00390626 125.663 1.5476 128.429 4.30933C131.195 7.07105 132.749 10.8168 132.75 14.7226C132.75 16.6566 132.368 18.5717 131.627 20.3585C130.886 22.1453 129.799 23.7689 128.429 25.1364C127.06 26.504 125.434 27.5888 123.644 28.3289C121.854 29.0691 119.936 29.45 117.999 29.45Z" fill="#EDF5E4" fill-opacity="0.51"/>
<path d="M113.287 16.0915C113.335 16.1172 113.389 16.1309 113.445 16.1315C113.5 16.1321 113.554 16.1196 113.603 16.0951C113.652 16.0705 113.695 16.0346 113.728 15.9904C113.76 15.9461 113.782 15.8947 113.791 15.8405C113.836 15.6652 113.946 15.2196 113.995 15.0343C114.034 14.938 114.041 14.8317 114.015 14.7311C113.989 14.6305 113.932 14.5409 113.851 14.4755C113.393 13.923 113.157 13.2208 113.187 12.5044C113.179 11.8589 113.303 11.2185 113.551 10.6223C113.799 10.0261 114.166 9.4865 114.629 9.03638C115.093 8.58626 115.643 8.23503 116.247 8.00407C116.851 7.77311 117.495 7.66726 118.141 7.69295C120.843 7.69295 122.327 9.34089 122.327 11.543C122.327 14.4399 121.047 16.884 119.137 16.884C118.894 16.8969 118.651 16.8523 118.427 16.7541C118.204 16.6558 118.008 16.5065 117.853 16.3183C117.698 16.1301 117.59 15.9082 117.537 15.6705C117.485 15.4329 117.488 15.1862 117.549 14.9503C117.947 13.7891 118.244 12.596 118.438 11.3842C118.461 11.1936 118.443 11.0002 118.385 10.8171C118.327 10.6339 118.231 10.4653 118.102 10.3225C117.974 10.1797 117.816 10.066 117.64 9.98916C117.464 9.91228 117.273 9.87397 117.081 9.87682C116.004 9.87682 115.139 10.9879 115.139 12.477C115.132 13.0236 115.242 13.5653 115.46 14.0665C115.46 14.0665 114.363 18.7228 114.166 19.5444C113.939 20.8062 113.929 22.0975 114.137 23.3626C114.141 23.3883 114.153 23.4122 114.171 23.4313C114.189 23.4504 114.212 23.4638 114.237 23.47C114.263 23.4761 114.29 23.4746 114.314 23.4658C114.339 23.4569 114.36 23.441 114.376 23.4201C115.17 22.4398 115.786 21.3271 116.193 20.1333C116.316 19.6869 116.901 17.3725 116.901 17.3725C117.174 17.7695 117.541 18.0921 117.97 18.3107C118.399 18.5294 118.877 18.6371 119.358 18.6241C122.594 18.6241 124.788 15.6798 124.788 11.7384C124.788 8.75841 122.261 5.98657 118.417 5.98657C113.637 5.98657 111.227 9.40937 111.227 12.2625C111.226 13.9816 111.881 15.5191 113.287 16.0915Z" fill="white"/>
<path d="M199.711 57.2686C197.737 57.2686 195.782 56.8804 193.958 56.1262C192.135 55.3719 190.478 54.2664 189.082 52.8727C187.686 51.479 186.579 49.8244 185.824 48.0035C185.068 46.1826 184.68 44.2309 184.68 42.26C184.681 38.2804 186.265 34.464 189.083 31.6503C191.902 28.8366 195.725 27.256 199.711 27.256C203.697 27.256 207.521 28.8371 210.34 31.6516C213.159 34.466 214.742 38.2833 214.743 42.2637C214.742 46.2436 213.158 50.0601 210.339 52.874C207.52 55.6879 203.697 57.2686 199.711 57.2686Z" fill="#EDF5E4" fill-opacity="0.51"/>
<path d="M199.71 35.5142C201.911 35.5142 202.171 35.5224 203.041 35.5617C203.563 35.5681 204.081 35.6641 204.571 35.8456C204.927 35.9827 205.249 36.1924 205.519 36.4615C205.788 36.7305 205.998 37.0528 206.135 37.4077C206.317 37.8971 206.413 38.4141 206.419 38.936C206.459 39.8034 206.468 40.0645 206.468 42.2611C206.468 44.4578 206.459 44.7189 206.419 45.5862C206.413 46.1082 206.317 46.6252 206.135 47.1146C205.998 47.4695 205.788 47.7918 205.519 48.0607C205.25 48.3296 204.927 48.5391 204.571 48.6758C204.081 48.8575 203.563 48.9536 203.041 48.9597C202.172 48.999 201.911 49.0072 199.71 49.0072C197.509 49.0072 197.249 48.999 196.38 48.9597C195.857 48.9538 195.339 48.8577 194.849 48.6758C194.494 48.5393 194.171 48.3298 193.901 48.0609C193.632 47.792 193.422 47.4696 193.285 47.1146C193.103 46.6252 193.007 46.1082 193 45.5862C192.961 44.7189 192.953 44.4587 192.953 42.2611C192.953 40.0636 192.961 39.8034 193 38.936C193.007 38.4141 193.103 37.8971 193.285 37.4077C193.422 37.0527 193.632 36.7303 193.901 36.4612C194.171 36.1922 194.494 35.9825 194.849 35.8456C195.339 35.664 195.857 35.5679 196.38 35.5617C197.249 35.5224 197.51 35.5142 199.71 35.5142ZM199.71 34.0315C197.472 34.0315 197.191 34.0406 196.312 34.0808C195.629 34.0946 194.952 34.2239 194.312 34.4633C193.764 34.6747 193.267 34.9979 192.852 35.4123C192.437 35.8268 192.113 36.3233 191.901 36.87C191.661 37.5093 191.532 38.1848 191.518 38.8676C191.478 39.745 191.469 40.0253 191.469 42.2603C191.469 44.4952 191.478 44.7755 191.518 45.6529C191.532 46.3356 191.661 47.0111 191.901 47.6505C192.113 48.197 192.437 48.6932 192.852 49.1075C193.267 49.5218 193.764 49.8449 194.312 50.0563C194.952 50.2961 195.629 50.4257 196.312 50.4397C197.191 50.479 197.472 50.489 199.71 50.489C201.949 50.489 202.229 50.479 203.108 50.4397C203.792 50.4257 204.468 50.296 205.108 50.0563C205.655 49.8449 206.153 49.5218 206.568 49.1075C206.983 48.6932 207.307 48.197 207.518 47.6505C207.759 47.0111 207.888 46.3357 207.902 45.6529C207.942 44.7755 207.951 44.4952 207.951 42.2603C207.951 40.0253 207.942 39.745 207.902 38.8676C207.888 38.1848 207.759 37.5094 207.518 36.87C207.307 36.3233 206.983 35.8268 206.568 35.4123C206.153 34.9979 205.656 34.6747 205.108 34.4633C204.468 34.2239 203.792 34.0946 203.108 34.0808C202.229 34.0406 201.948 34.0315 199.71 34.0315Z" fill="white"/>
<path d="M199.692 38.0334C198.855 38.0336 198.037 38.2816 197.341 38.746C196.645 39.2104 196.103 39.8703 195.783 40.6424C195.463 41.4145 195.379 42.2641 195.542 43.0836C195.706 43.9032 196.109 44.656 196.701 45.2468C197.293 45.8377 198.047 46.24 198.868 46.4029C199.688 46.5659 200.539 46.4822 201.312 46.1623C202.086 45.8425 202.747 45.3009 203.212 44.6061C203.677 43.9113 203.925 43.0944 203.925 42.2587C203.925 41.7038 203.815 41.1543 203.602 40.6416C203.39 40.1289 203.078 39.663 202.685 39.2707C202.292 38.8783 201.825 38.5671 201.312 38.3548C200.798 38.1425 200.248 38.0333 199.692 38.0334ZM199.692 45.0023C199.149 45.0023 198.619 44.8416 198.168 44.5407C197.717 44.2397 197.365 43.8119 197.157 43.3115C196.95 42.811 196.896 42.2603 197.001 41.729C197.107 41.1977 197.368 40.7096 197.752 40.3266C198.136 39.9435 198.625 39.6827 199.157 39.577C199.689 39.4713 200.24 39.5255 200.742 39.7328C201.243 39.9402 201.671 40.2912 201.973 40.7416C202.274 41.192 202.435 41.7216 202.435 42.2633C202.435 42.9897 202.146 43.6864 201.632 44.2C201.117 44.7137 200.419 45.0023 199.692 45.0023Z" fill="white"/>
<path d="M205.104 37.8661C205.104 38.0615 205.046 38.2526 204.937 38.4152C204.829 38.5777 204.674 38.7045 204.494 38.7794C204.313 38.8543 204.114 38.874 203.922 38.836C203.73 38.798 203.554 38.704 203.415 38.5658C203.277 38.4277 203.182 38.2517 203.144 38.0601C203.106 37.8684 203.125 37.6697 203.2 37.4892C203.275 37.3086 203.402 37.1543 203.565 37.0457C203.727 36.9371 203.919 36.8792 204.114 36.8792C204.377 36.8792 204.628 36.9831 204.814 37.1682C204.999 37.3532 205.104 37.6042 205.104 37.8661Z" fill="white"/>
<path d="M45.3627 48.8938C41.4664 48.8936 37.7297 47.348 34.9747 44.597C32.2196 41.8461 30.6719 38.1151 30.6719 34.2248C30.6719 30.3346 32.2197 26.6037 34.9747 23.8529C37.7298 21.1021 41.4665 19.5568 45.3627 19.5568C49.2591 19.5568 52.9958 21.1021 55.7511 23.8529C58.5063 26.6037 60.0543 30.3345 60.0545 34.2248C60.0545 36.1512 59.6745 38.0587 58.9362 39.8384C58.1978 41.6181 57.1157 43.2352 55.7514 44.5974C54.3871 45.9595 52.7675 47.04 50.985 47.7772C49.2026 48.5144 47.2921 48.8938 45.3627 48.8938Z" fill="#EDF5E4" fill-opacity="0.51"/>
<path d="M43.1292 43.0917H46.7054V34.1499H49.2008L49.4669 31.1562H46.7054V29.4498C46.7054 28.7441 46.8481 28.4656 47.5284 28.4656H49.4633V25.3615H46.9871C44.3252 25.3615 43.1255 26.5319 43.1255 28.7715V31.1589H41.2656V34.19H43.1292V43.0917Z" fill="white"/>
<path d="M35.0746 90.6279C35.6238 93.4798 35.3132 96.4302 34.1823 99.1057C33.0513 101.781 31.1508 104.062 28.7213 105.658C26.2917 107.255 23.4424 108.096 20.5339 108.075C17.6254 108.054 14.7884 107.173 12.3821 105.541C9.97576 103.91 8.10822 101.603 7.01584 98.9111C5.92346 96.2196 5.65534 93.265 6.24542 90.4213C6.8355 87.5777 8.25725 84.9727 10.3307 82.9361C12.4042 80.8995 15.0362 79.5228 17.8936 78.9804C19.7877 78.6185 21.7347 78.6327 23.6233 79.0222C25.512 79.4117 27.3052 80.1689 28.9007 81.2505C30.4962 82.3322 31.8626 83.717 32.922 85.326C33.9813 86.935 34.7128 88.7366 35.0746 90.6279Z" fill="#EDF5E4" fill-opacity="0.51"/>
<path d="M27.5013 89.8349C26.9863 90.0591 26.4416 90.2081 25.884 90.2772C26.4716 89.9292 26.9109 89.3781 27.1187 88.7282C26.5687 89.0539 25.9669 89.2832 25.3394 89.4063C24.9542 88.9971 24.4548 88.713 23.9059 88.5907C23.3569 88.4684 22.7839 88.5136 22.261 88.7205C21.7381 88.9273 21.2896 89.2863 20.9735 89.7508C20.6575 90.2152 20.4885 90.7638 20.4885 91.3254C20.4862 91.5404 20.508 91.7549 20.5535 91.9651C19.4361 91.9105 18.3429 91.6209 17.3455 91.1152C16.348 90.6095 15.4688 89.8992 14.7653 89.0307C14.4036 89.6473 14.2914 90.3785 14.4516 91.075C14.6119 91.7714 15.0325 92.3804 15.6275 92.7775C15.1838 92.7646 14.7497 92.6455 14.3617 92.4302L14.3617 92.4613C14.3623 93.1082 14.586 93.7351 14.9953 94.2366C15.4045 94.7381 15.9743 95.0835 16.6087 95.2147C16.3697 95.2773 16.1235 95.308 15.8764 95.3061C15.6983 95.3094 15.5203 95.2934 15.3456 95.2586C15.5272 95.8137 15.8762 96.2991 16.3448 96.6485C16.8134 96.998 17.3786 97.1943 17.9633 97.2106C16.9703 97.986 15.7458 98.4068 14.4852 98.4059C14.2604 98.4075 14.0357 98.3947 13.8125 98.3675C15.0948 99.1925 16.5888 99.6293 18.1143 99.625C19.1651 99.6323 20.2069 99.431 21.1792 99.0329C22.1515 98.6348 23.0348 98.0478 23.778 97.306C24.5211 96.5642 25.1092 95.6823 25.5082 94.7117C25.9071 93.741 26.1089 92.7008 26.1019 91.6516C26.1019 91.5274 26.1019 91.4086 26.0918 91.2861C26.646 90.8919 27.1237 90.4001 27.5013 89.8349Z" fill="white"/>
<path d="M55.1719 46.1016L79.0489 59.0687" stroke="#EDF5E4" stroke-linecap="round" stroke-dasharray="4 4"/>
<path d="M35.5469 102.031L77.2182 104.716" stroke="#EDF5E4" stroke-linecap="round" stroke-dasharray="4 4"/>
<path d="M187.862 53.5898L144.352 82.3764" stroke="#EDF5E4" stroke-linecap="round" stroke-dasharray="4 4"/>
<path d="M147.625 104.718L189.688 101.979" stroke="#EDF5E4" stroke-linecap="round" stroke-dasharray="4 4"/>
<path d="M116.54 30.7656L114.711 44.4604" stroke="#EDF5E4" stroke-linecap="round" stroke-dasharray="4 4"/>
</svg>
