<svg width="253" height="125" viewBox="0 0 253 125" fill="none" xmlns="http://www.w3.org/2000/svg">
<path d="M255.066 123.914C255.066 123.97 197.922 124.017 127.446 124.017C56.9462 124.017 -0.185547 123.97 -0.185547 123.914C-0.185547 123.858 56.9462 123.812 127.446 123.812C197.922 123.807 255.066 123.855 255.066 123.914Z" fill="#263238"/>
<path d="M247.647 123.925C247.647 123.975 192.164 124.018 123.736 124.018C55.2841 124.018 -0.185303 123.975 -0.185303 123.925C-0.185303 123.875 55.2865 123.833 123.736 123.833C192.16 123.833 247.647 123.875 247.647 123.925Z" fill="#263238"/>
<path d="M203.131 121.397H47.9359C47.2526 121.395 46.5764 121.258 45.9459 120.995C45.3153 120.731 44.7429 120.346 44.2612 119.861C43.7795 119.377 43.398 118.802 43.1385 118.17C42.879 117.538 42.7466 116.861 42.7488 116.177V16.4384C42.7466 15.7551 42.879 15.078 43.1385 14.4459C43.398 13.8138 43.7795 13.2389 44.2612 12.7542C44.7429 12.2695 45.3153 11.8845 45.9459 11.6211C46.5764 11.3577 47.2526 11.221 47.9359 11.219H203.131C203.814 11.221 204.49 11.3577 205.121 11.6211C205.751 11.8845 206.324 12.2695 206.806 12.7542C207.287 13.2389 207.669 13.8138 207.928 14.4459C208.188 15.078 208.32 15.7551 208.318 16.4384V116.176C208.322 117.556 207.778 118.881 206.805 119.86C205.833 120.839 204.511 121.392 203.131 121.397Z" fill="#455A64"/>
<path d="M210.452 123.923H43.6563C42.8212 123.92 41.9947 123.754 41.224 123.432C40.4533 123.11 39.7535 122.64 39.1646 122.048C38.5757 121.456 38.1092 120.754 37.7917 119.981C37.4743 119.209 37.3121 118.381 37.3145 117.546V114.278H216.791V117.543C216.794 118.378 216.633 119.206 216.316 119.978C215.999 120.751 215.533 121.454 214.944 122.046C214.355 122.639 213.655 123.109 212.885 123.431C212.114 123.753 211.287 123.92 210.452 123.923Z" fill="#455A64"/>
<path d="M109.109 113.248L111.348 116.813H142.867L144.945 113.248H109.109Z" fill="#263238"/>
<path d="M206.902 113.25C206.902 113.311 170.154 113.357 124.831 113.357C79.5089 113.357 42.7551 113.311 42.7551 113.25C42.7551 113.189 79.497 113.142 124.831 113.142C170.166 113.142 206.902 113.19 206.902 113.25Z" fill="#263238"/>
<g opacity="0.814">
<path d="M201.74 110.345H48.6877C48.5343 110.344 48.3826 110.313 48.2411 110.254C48.0996 110.195 47.9711 110.109 47.863 110C47.7549 109.891 47.6692 109.762 47.611 109.62C47.5527 109.478 47.523 109.326 47.5234 109.173V18.734C47.523 18.5807 47.5527 18.4287 47.611 18.2869C47.6692 18.145 47.7549 18.016 47.863 17.9072C47.9711 17.7984 48.0996 17.712 48.2411 17.6529C48.3826 17.5938 48.5343 17.5631 48.6877 17.5626H201.743C201.897 17.5631 202.048 17.5938 202.19 17.6529C202.331 17.712 202.46 17.7984 202.568 17.9072C202.676 18.016 202.762 18.145 202.82 18.2869C202.878 18.4287 202.908 18.5807 202.907 18.734V109.168C202.908 109.479 202.786 109.777 202.567 109.998C202.348 110.218 202.05 110.343 201.74 110.345Z" fill="#EBEBEB"/>
<path d="M60.3541 21.1404C60.3541 21.3877 60.2808 21.6295 60.1434 21.8351C60.006 22.0407 59.8107 22.201 59.5822 22.2957C59.3537 22.3903 59.1023 22.4151 58.8597 22.3668C58.6172 22.3186 58.3944 22.1995 58.2195 22.0246C58.0446 21.8497 57.9255 21.6269 57.8773 21.3844C57.8291 21.1418 57.8538 20.8904 57.9485 20.6619C58.0431 20.4334 58.2034 20.2381 58.409 20.1008C58.6146 19.9634 58.8564 19.89 59.1037 19.89C59.2679 19.8899 59.4306 19.9221 59.5824 19.9849C59.7342 20.0476 59.8721 20.1398 59.9882 20.2559C60.1044 20.3721 60.1965 20.51 60.2592 20.6617C60.322 20.8135 60.3543 20.9762 60.3541 21.1404Z" fill="#263238"/>
<path d="M52.8031 21.1404C52.8031 21.3877 52.7298 21.6295 52.5924 21.8351C52.455 22.0407 52.2597 22.201 52.0312 22.2957C51.8027 22.3903 51.5513 22.4151 51.3087 22.3668C51.0662 22.3186 50.8434 22.1995 50.6685 22.0246C50.4936 21.8497 50.3745 21.6269 50.3263 21.3844C50.278 21.1418 50.3028 20.8904 50.3974 20.6619C50.4921 20.4334 50.6523 20.2381 50.858 20.1008C51.0636 19.9634 51.3053 19.89 51.5527 19.89C51.7169 19.8899 51.8796 19.9221 52.0314 19.9849C52.1831 20.0476 52.3211 20.1398 52.4372 20.2559C52.5533 20.3721 52.6454 20.51 52.7082 20.6617C52.771 20.8135 52.8032 20.9762 52.8031 21.1404Z" fill="#263238"/>
<path d="M56.3827 21.1404C56.3827 21.3877 56.3093 21.6295 56.1719 21.8351C56.0345 22.0407 55.8393 22.201 55.6108 22.2957C55.3823 22.3903 55.1309 22.4151 54.8883 22.3668C54.6458 22.3186 54.423 22.1995 54.2481 22.0246C54.0732 21.8497 53.9541 21.6269 53.9059 21.3844C53.8576 21.1418 53.8824 20.8904 53.977 20.6619C54.0717 20.4334 54.2319 20.2381 54.4376 20.1008C54.6432 19.9634 54.8849 19.89 55.1322 19.89C55.2965 19.8899 55.4592 19.9221 55.611 19.9849C55.7627 20.0476 55.9006 20.1398 56.0168 20.2559C56.1329 20.3721 56.225 20.51 56.2878 20.6617C56.3506 20.8135 56.3828 20.9762 56.3827 21.1404Z" fill="#263238"/>
</g>
<path d="M201.757 98.9298H47.9483C47.6641 98.9485 47.3841 98.8539 47.1695 98.6667C46.9549 98.4794 46.8232 98.2148 46.8032 97.9307V19.1366C46.8232 18.8525 46.9549 18.5878 47.1695 18.4006C47.3841 18.2133 47.6641 18.1187 47.9483 18.1375H201.757C202.041 18.1187 202.32 18.2132 202.535 18.4002C202.75 18.5872 202.881 18.8515 202.902 19.1354V97.9307C202.882 98.2148 202.75 98.4794 202.535 98.6667C202.321 98.8539 202.041 98.9485 201.757 98.9298Z" fill="#E0E0E0"/>
<path d="M183.01 24.058H46.8032V98.9309H183.01V24.058Z" fill="white"/>
<path d="M57.9718 21.258C57.9718 21.4731 57.908 21.6834 57.7884 21.8623C57.6689 22.0411 57.4991 22.1805 57.3003 22.2629C57.1016 22.3452 56.8829 22.3667 56.6719 22.3248C56.4609 22.2828 56.2671 22.1792 56.115 22.0271C55.9628 21.875 55.8593 21.6812 55.8173 21.4702C55.7753 21.2592 55.7969 21.0405 55.8792 20.8417C55.9615 20.643 56.1009 20.4731 56.2798 20.3536C56.4587 20.2341 56.6689 20.1703 56.8841 20.1703C57.1725 20.1703 57.4492 20.2849 57.6532 20.4889C57.8572 20.6928 57.9718 20.9695 57.9718 21.258Z" fill="#455A64"/>
<path d="M51.3878 21.2581C51.3878 21.4732 51.324 21.6835 51.2045 21.8624C51.0849 22.0412 50.9151 22.1807 50.7163 22.263C50.5176 22.3453 50.2989 22.3668 50.0879 22.3249C49.8769 22.2829 49.6831 22.1793 49.531 22.0272C49.3789 21.8751 49.2753 21.6813 49.2333 21.4703C49.1913 21.2593 49.2129 21.0406 49.2952 20.8419C49.3775 20.6431 49.5169 20.4732 49.6958 20.3537C49.8747 20.2342 50.085 20.1704 50.3001 20.1704C50.5886 20.1704 50.8652 20.285 51.0692 20.489C51.2732 20.693 51.3878 20.9696 51.3878 21.2581Z" fill="#455A64"/>
<path d="M54.5521 21.258C54.5521 21.4731 54.4883 21.6834 54.3688 21.8623C54.2492 22.0411 54.0794 22.1805 53.8806 22.2629C53.6819 22.3452 53.4632 22.3667 53.2522 22.3248C53.0412 22.2828 52.8474 22.1792 52.6953 22.0271C52.5432 21.875 52.4396 21.6812 52.3976 21.4702C52.3556 21.2592 52.3772 21.0405 52.4595 20.8417C52.5418 20.643 52.6812 20.4731 52.8601 20.3536C53.039 20.2341 53.2493 20.1703 53.4644 20.1703C53.7529 20.1703 54.0295 20.2849 54.2335 20.4889C54.4375 20.6928 54.5521 20.9695 54.5521 21.258Z" fill="#455A64"/>
<path d="M201.76 109.797H48.2165C47.919 109.808 47.6293 109.701 47.4106 109.499C47.1918 109.298 47.0616 109.018 47.0486 108.72V25.1507C47.062 24.8534 47.1922 24.5735 47.4109 24.3719C47.6296 24.1702 47.9191 24.063 48.2165 24.0737H201.764C202.061 24.063 202.351 24.1702 202.569 24.3719C202.788 24.5735 202.918 24.8534 202.932 25.1507V108.713C202.919 109.012 202.789 109.293 202.569 109.496C202.35 109.699 202.059 109.808 201.76 109.797Z" fill="#F2F9FF"/>
<path d="M48.2271 24.0687H140.226V110.113H48.2271C47.9097 110.113 47.6054 109.987 47.381 109.762C47.1566 109.538 47.0305 109.234 47.0305 108.916V25.2653C47.0305 24.9479 47.1566 24.6436 47.381 24.4192C47.6054 24.1948 47.9097 24.0687 48.2271 24.0687Z" fill="#E4EFF3"/>
<path d="M168.493 31.2378H148.152V34.8275H168.493V31.2378Z" fill="#DBE8ED"/>
<path d="M176.869 63.5463H148.152V68.3325H176.869V63.5463Z" fill="#DBE8ED"/>
<path d="M166.1 70.7261H148.152V92.2643H166.1V70.7261Z" fill="#E6F0F4"/>
<path d="M194.801 70.726H178.049V92.2642H194.801V70.726Z" fill="#E6F0F4"/>
<path d="M188.835 39.6154H148.152V40.8119H188.835V39.6154Z" fill="#DBE8ED"/>
<path d="M168.493 55.1708H148.152V57.5639H168.493V55.1708Z" fill="#DBE8ED"/>
<path d="M188.835 43.2037H148.151V45.5969H188.835V43.2037Z" fill="#DBE8ED"/>
<path d="M188.835 51.5793H148.151V52.7759H188.835V51.5793Z" fill="#DBE8ED"/>
<path d="M118.231 48.1505C119.751 49.015 121.085 50.1717 122.155 51.554C123.225 52.9364 124.011 54.517 124.468 56.2046C126.09 62.0104 131.049 77.1302 131.049 77.1302C131.049 77.1302 133.885 80.4663 134.191 82.936C134.498 85.4057 133.888 91.3838 132.976 92.499C132.711 92.8227 132.371 93.0767 131.985 93.239C131.6 93.4012 131.181 93.4668 130.764 93.4299L118.826 92.2979L114.126 60.821L118.231 48.1505Z" fill="#33A7D2"/>
<path d="M78.7643 48.2982C78.7643 48.2982 70.1717 50.1852 68.0442 52.899L75.0908 92.0172L74.9795 103.97H115.447C115.447 103.379 115.806 64.2843 115.806 64.2843L118.35 48.2994L103.855 45.99L101.019 43.3947L85.0151 44.3375L82.5825 47.1722L78.7643 48.2982Z" fill="#33A7D2"/>
<g opacity="0.3">
<path d="M81.9929 75.8117C81.8733 75.5365 81.6902 75.2373 81.3946 75.1763C80.9076 75.0758 80.581 75.6549 80.4171 76.1204C79.1285 79.8069 77.3401 83.2992 75.1019 86.4994L74.9978 91.4927C77.4529 89.6153 79.5494 87.3105 81.1865 84.689C81.992 83.37 82.4836 81.8835 82.6235 80.3443C82.7633 78.805 82.5476 77.2543 81.9929 75.8117Z" fill="black"/>
</g>
<path d="M68.0888 52.6097C66.6066 54.6224 65.2755 56.7422 64.1066 58.9516C62.9376 61.4548 53.2609 82.4749 52.6794 84.6455C52.0979 86.8161 50.5926 93.6533 55.0151 95.2399H64.109L73.2352 76.7829L73.7019 55.3642L68.0888 52.6097Z" fill="#33A7D2"/>
<path d="M64.6965 81.9034C64.6833 81.9166 64.4954 81.7251 64.0755 81.487C63.4759 81.1657 62.8331 80.9328 62.1669 80.7954C61.7087 80.6949 61.2435 80.6297 60.7753 80.6003C60.241 80.5576 59.7033 80.5927 59.1791 80.7045C57.9837 81.0143 56.9142 81.6879 56.1183 82.6321C55.3079 83.5639 54.7155 84.6648 54.3844 85.8545C54.109 86.8263 53.9255 87.8218 53.8364 88.828C53.7527 89.6883 53.7168 90.3835 53.688 90.8705C53.6749 91.0955 53.6617 91.2809 53.6545 91.4281C53.6544 91.4939 53.6464 91.5593 53.6306 91.6231C53.6187 91.5589 53.6155 91.4933 53.621 91.4281C53.621 91.2797 53.621 91.0955 53.621 90.8705C53.6306 90.3919 53.645 89.6847 53.712 88.8172C53.784 87.7992 53.9564 86.7908 54.2265 85.8066C54.5553 84.5899 55.1563 83.4639 55.9843 82.5137C56.8048 81.5438 57.9101 80.8571 59.1432 80.5513C59.682 80.439 60.2346 80.4084 60.7825 80.4603C61.2571 80.4953 61.7281 80.5685 62.1909 80.6793C62.8647 80.8276 63.5109 81.0816 64.1054 81.432C64.2647 81.531 64.4152 81.6435 64.5553 81.7682C64.6071 81.808 64.6545 81.8533 64.6965 81.9034Z" fill="#263238"/>
<path d="M60.3796 78.2288C60.4784 78.1958 60.5818 78.1789 60.6859 78.1786C60.9644 78.1525 61.2446 78.1492 61.5236 78.169C61.9414 78.1933 62.3563 78.255 62.7632 78.3533C63.2612 78.478 63.7461 78.6502 64.211 78.8678C64.6749 79.0919 65.1158 79.3608 65.5273 79.6707C65.8596 79.9261 66.1687 80.2104 66.451 80.5202C66.6425 80.7261 66.8166 80.9474 66.9715 81.182C67.0349 81.2643 67.0868 81.3549 67.1259 81.4512C67.0996 81.4715 66.8543 81.1054 66.3601 80.604C66.071 80.3126 65.7598 80.0442 65.4292 79.8011C64.6186 79.2044 63.7016 78.7678 62.7273 78.5148C62.3304 78.4109 61.9259 78.3389 61.5176 78.2994C60.8224 78.2252 60.3796 78.2623 60.3796 78.2288Z" fill="#263238"/>
<path d="M68.6024 77.2158C68.4616 77.2213 68.3206 77.2101 68.1825 77.1823C67.9132 77.1488 67.5244 77.1081 67.0433 77.071C65.7891 76.979 64.529 77.0071 63.2801 77.1548C62.0324 77.3088 60.8018 77.5788 59.6043 77.9613C59.1436 78.1097 58.7739 78.2401 58.5274 78.3382C58.3988 78.3951 58.2649 78.4392 58.1277 78.4698C58.2459 78.3914 58.3723 78.326 58.5046 78.2748C58.7499 78.1551 59.1125 78.0091 59.5732 77.8452C61.9727 76.9966 64.5304 76.6901 67.0625 76.9478C67.5411 76.998 67.936 77.0591 68.2016 77.1129C68.3378 77.1361 68.4719 77.1705 68.6024 77.2158Z" fill="#263238"/>
<path d="M94.4956 59.2556C94.4597 59.2225 94.4279 59.1852 94.401 59.1444C94.3376 59.057 94.2526 58.9458 94.1521 58.8117C93.9308 58.503 93.6209 58.0758 93.238 57.5446C92.4518 56.4353 91.3593 54.893 90.0694 53.0754L90.2107 53.055C89.7201 54.4909 89.1792 56.0823 88.6108 57.7528L88.5737 57.8569L88.4828 57.7958C88.4218 57.7588 88.3631 57.7157 88.2949 57.6762C87.5626 57.2097 86.8968 56.6462 86.3158 56.001C85.7787 55.3994 85.3047 54.7442 84.9015 54.0458C84.2284 52.8623 83.7058 51.5993 83.3459 50.2862C83.1002 49.4052 82.9041 48.5112 82.7584 47.6083C82.7046 47.3031 82.6639 47.0602 82.6304 46.876C82.6136 46.7922 82.5969 46.7312 82.5873 46.6881C82.5777 46.645 82.5634 46.6271 82.567 46.6271C82.7051 46.9344 82.7924 47.2621 82.8254 47.5975C82.9571 48.2293 83.1377 49.153 83.4668 50.2551C83.8393 51.551 84.3685 52.7967 85.0427 53.9644C85.4441 54.6503 85.9135 55.2941 86.4438 55.8861C87.0178 56.5153 87.672 57.0665 88.3895 57.5254L88.5749 57.6451L88.4469 57.6917C89.0213 56.0165 89.5657 54.4359 90.0599 53.0012L90.1101 52.8504L90.2011 52.9809L93.3121 57.4871C93.6819 58.028 93.9738 58.4647 94.1892 58.7806C94.2838 58.9218 94.3568 59.0355 94.4178 59.1264C94.4477 59.167 94.4738 59.2102 94.4956 59.2556Z" fill="#263238"/>
<g opacity="0.3">
<path d="M105.044 74.7762C104.674 78.5652 105.491 82.3755 107.382 85.6794C109.212 89.0375 112.034 91.7484 115.463 93.4415C115.574 90.1055 115.412 86.1736 115.524 82.8375L105.044 74.7762Z" fill="black"/>
</g>
<path d="M104.653 70.3855C104.653 70.3855 103.185 70.7923 104.287 73.8053C105.389 76.8182 105.755 76.634 106.491 79.4531C106.987 81.9458 107.965 84.3176 109.371 86.4351C111.245 88.2245 113.275 89.8439 115.436 91.274L119.724 87.232C119.336 85.5739 119.156 83.8742 119.186 82.1717C119.354 80.1256 119.785 75.1024 119.724 74.2456C119.503 73.2332 119.174 72.2475 118.743 71.3057V69.8805L116.538 63.0972C116.538 63.0972 115.312 62.5468 114.885 64.5055L114.149 62.4259C114.149 62.4259 112.986 62.2416 112.681 64.63C112.536 66.5316 112.619 68.4436 112.926 70.3257L112.315 74.4921L111.397 77.3076L110.601 77.4273C110.601 77.4273 109.404 77.1018 108.746 74.8439C108.088 72.586 106.307 69.8949 104.653 70.3855Z" fill="#F0AD8E"/>
<path d="M118.29 81.0422C118.279 80.9914 118.272 80.9398 118.27 80.8879C118.263 80.7682 118.253 80.6222 118.24 80.4379C118.216 80.0275 118.186 79.4603 118.149 78.7508C118.082 77.2886 117.991 75.2532 117.883 72.878L117.904 72.9283C117.794 72.8147 117.655 72.7336 117.502 72.6939C117.349 72.6542 117.188 72.6574 117.037 72.7033C116.872 72.7418 116.717 72.8132 116.58 72.9131C116.443 73.013 116.327 73.1394 116.24 73.2849C115.931 73.9601 115.758 74.6894 115.729 75.4315C115.497 77.1486 115.276 78.7819 115.074 80.2728C114.973 81.0159 114.865 81.7242 114.715 82.38C114.578 82.987 114.4 83.5842 114.183 84.1677C113.996 84.7025 113.824 85.1859 113.723 85.6227C113.628 85.9936 113.581 86.3753 113.585 86.7582C113.6 87.0832 113.656 87.4049 113.753 87.7155C113.71 87.6396 113.675 87.5593 113.649 87.4762C113.572 87.244 113.527 87.0025 113.515 86.7582C113.499 86.3684 113.536 85.9784 113.626 85.5987C113.747 85.1008 113.894 84.6096 114.066 84.127C114.274 83.5463 114.443 82.9527 114.574 82.3501C114.711 81.7015 114.813 80.9955 114.91 80.2537C115.108 78.7615 115.323 77.1282 115.551 75.4123C115.605 75.0294 115.646 74.6525 115.713 74.2732C115.766 73.8926 115.895 73.5266 116.092 73.1963C116.191 73.0328 116.322 72.8907 116.477 72.7781C116.631 72.6656 116.807 72.5848 116.993 72.5406C117.175 72.4884 117.367 72.4874 117.549 72.5379C117.731 72.5884 117.896 72.6883 118.024 72.8266L118.041 72.8505V72.8768C118.121 75.252 118.192 77.2886 118.242 78.7532C118.259 79.4615 118.276 80.0299 118.285 80.4439C118.285 80.6282 118.285 80.7766 118.285 80.8938C118.293 80.9429 118.295 80.9928 118.29 81.0422Z" fill="#93471F"/>
<path d="M115.937 73.3189C115.862 73.1984 115.801 73.07 115.755 72.936C115.613 72.5775 115.493 72.2107 115.396 71.8375C115.25 71.2838 115.147 70.7198 115.087 70.1503C115.044 69.8113 115.039 69.4687 115.07 69.1285C115.1 68.7527 115.227 68.3913 115.44 68.0803C115.628 67.8027 115.904 67.5959 116.223 67.4928L116.29 67.4724L116.323 67.5334C116.945 68.6283 117.483 69.5963 117.862 70.2915L118.302 71.1148C118.363 71.2112 118.41 71.3149 118.444 71.4235C118.367 71.339 118.302 71.2453 118.249 71.1447L117.77 70.349C117.363 69.6669 116.806 68.712 116.177 67.6208L116.278 67.6615C115.996 67.7542 115.753 67.9387 115.589 68.1856C115.394 68.474 115.277 68.8071 115.246 69.1536C115.217 69.4825 115.219 69.8135 115.254 70.142C115.304 70.706 115.394 71.2658 115.523 71.8172C115.63 72.2874 115.744 72.6643 115.826 72.9228C115.877 73.0504 115.914 73.1832 115.937 73.3189Z" fill="#93471F"/>
<path d="M114.923 73.8722C114.893 73.7445 114.879 73.6134 114.882 73.4822C114.873 73.1926 114.856 72.8372 114.839 72.4172C114.809 71.5162 114.782 70.273 114.761 68.8993C114.711 67.7242 114.729 66.5472 114.815 65.3742C114.857 65.0182 114.934 64.6672 115.044 64.326C115.076 64.1983 115.129 64.077 115.202 63.967C115.078 64.4349 114.99 64.9113 114.936 65.3922C114.852 66.2824 114.923 67.5256 114.936 68.9005C114.949 70.2753 114.962 71.5186 114.962 72.4184C114.962 72.8384 114.953 73.195 114.949 73.4869C114.956 73.616 114.947 73.7453 114.923 73.8722Z" fill="#93471F"/>
<path d="M111.288 85.1679C111.264 85.1476 111.527 84.8316 111.862 84.2573C112.055 83.9225 112.222 83.5732 112.36 83.2127C112.525 82.7693 112.653 82.313 112.743 81.8486C112.824 81.3827 112.864 80.9107 112.863 80.4379C112.86 80.0517 112.826 79.6664 112.762 79.2855C112.651 78.6334 112.51 78.2433 112.541 78.2338C112.593 78.316 112.634 78.4055 112.661 78.4994C112.753 78.7476 112.827 79.0024 112.882 79.2616C112.964 79.6475 113.011 80.04 113.023 80.4343C113.034 80.918 112.997 81.4017 112.915 81.8785C112.827 82.3544 112.692 82.8205 112.512 83.2701C112.363 83.6363 112.18 83.9884 111.968 84.3219C111.826 84.5474 111.666 84.7607 111.489 84.9597C111.372 85.0997 111.298 85.1739 111.288 85.1679Z" fill="#93471F"/>
<path d="M118.814 83.0594L122.534 84.3494C122.534 84.3494 126.085 82.5114 128.534 84.3494C130.984 86.1873 133.111 91.0286 132.439 92.9874C132.439 92.9874 130.749 95.0742 129.462 95.3805C128.174 95.6868 123.175 94.4771 121.095 94.0367C119.093 93.3665 117.187 92.4355 115.427 91.2679L118.814 83.0594Z" fill="#F0AD8E"/>
<path d="M119.276 88.5393C119.247 88.4322 119.233 88.3213 119.236 88.2102C119.223 87.9577 119.202 87.6586 119.182 87.3128C119.141 86.553 119.091 85.5048 119.074 84.3429C119.053 83.3509 119.082 82.3585 119.162 81.3694C119.195 80.9901 119.236 80.6838 119.273 80.472C119.281 80.3608 119.308 80.2517 119.351 80.1489C119.377 80.1489 119.321 80.6192 119.284 81.3754C119.247 82.1316 119.233 83.1799 119.25 84.3393C119.27 85.4749 119.291 86.5027 119.304 87.3092C119.304 87.6885 119.304 87.9984 119.304 88.2102C119.313 88.3207 119.304 88.4319 119.276 88.5393Z" fill="#93471F"/>
<path d="M131.547 84.2015C131.162 83.8012 130.749 83.4285 130.311 83.0863C129.237 82.28 127.947 81.8101 126.605 81.736C125.264 81.6619 123.93 81.9869 122.773 82.6699C122.299 82.9603 121.847 83.2858 121.422 83.6439C121.511 83.5218 121.613 83.4102 121.727 83.3112C122.028 83.0295 122.356 82.7797 122.708 82.5658C123.877 81.839 125.241 81.4898 126.616 81.5656C127.99 81.6414 129.307 82.1385 130.389 82.9894C130.715 83.2414 131.015 83.5261 131.283 83.8389C131.385 83.9492 131.474 84.0709 131.547 84.2015Z" fill="#263238"/>
<path d="M131.069 81.0987C130.589 80.7521 130.069 80.4656 129.519 80.2456C128.17 79.769 126.706 79.7272 125.331 80.1259C124.576 80.3382 123.848 80.6407 123.164 81.0269C122.608 81.3469 122.083 81.7182 121.596 82.1361C121.179 82.4951 120.86 82.805 120.638 83.0204C120.532 83.1399 120.415 83.2499 120.289 83.3494C120.379 83.2156 120.48 83.0899 120.592 82.9737C120.882 82.6463 121.19 82.3355 121.516 82.0428C122.591 81.0604 123.883 80.3454 125.286 79.956C126.694 79.5482 128.197 79.6108 129.566 80.1342C129.975 80.298 130.36 80.5148 130.712 80.7792C130.808 80.8505 130.899 80.928 130.984 81.0113C131.015 81.0374 131.044 81.0666 131.069 81.0987Z" fill="#263238"/>
<path d="M131.092 78.4112C131.083 78.4447 130.434 78.2461 129.351 78.1025C128.717 78.0181 128.077 77.9781 127.437 77.9829C125.872 77.9901 124.32 78.2628 122.847 78.7894C122.246 79.0027 121.661 79.2586 121.096 79.5552C120.132 80.0625 119.587 80.4694 119.567 80.4418C119.681 80.3304 119.806 80.2302 119.94 80.1427C120.088 80.0294 120.242 79.9239 120.401 79.8268C120.585 79.7071 120.795 79.5719 121.036 79.4475C121.6 79.135 122.186 78.8654 122.79 78.641C123.534 78.3735 124.298 78.1666 125.075 78.0224C125.854 77.8903 126.643 77.8239 127.433 77.8237C128.078 77.8277 128.722 77.8817 129.358 77.9853C129.63 78.0188 129.873 78.0822 130.087 78.1265C130.301 78.1708 130.483 78.221 130.628 78.2641C130.787 78.2985 130.942 78.3477 131.092 78.4112Z" fill="#263238"/>
<path d="M102.603 45.5098C102.742 45.8231 102.829 46.1569 102.861 46.4981C102.958 47.4618 102.911 48.4346 102.72 49.3843C102.601 50.0641 102.441 50.7362 102.242 51.3969C101.976 52.1666 101.649 52.9136 101.264 53.6309C100.465 55.1768 99.4523 56.8616 98.2869 58.6565L98.1493 58.8683V58.6158C98.1493 57.43 98.1493 56.1832 98.1421 54.8861L98.2737 54.9495C97.2722 55.756 96.2204 56.6055 95.1351 57.4826L95.1626 57.4419C94.4071 59.8921 93.9392 62.422 93.7686 64.9803C93.5596 68.8285 93.6043 72.6862 93.9026 76.5284C94.0678 80.0799 94.1755 83.2818 94.2856 85.9669C94.3956 88.652 94.4902 90.825 94.5715 92.3279C94.6146 93.071 94.6493 93.6513 94.672 94.0546C94.6852 94.246 94.696 94.3944 94.702 94.5045C94.7049 94.5559 94.7049 94.6074 94.702 94.6588C94.702 94.6588 94.6924 94.6086 94.678 94.5081C94.6637 94.4075 94.6505 94.2496 94.6314 94.0617C94.5943 93.6681 94.5476 93.0842 94.4974 92.3351C94.3968 90.8334 94.2796 88.6628 94.1575 85.9741C94.0355 83.2854 93.8955 80.087 93.7339 76.5392C93.427 72.6906 93.3774 68.8259 93.5855 64.9708C93.7575 62.3977 94.2302 59.8536 94.9939 57.3905L95.0011 57.3666L95.0214 57.3498L98.1636 54.8227L98.2941 54.7186V54.8861C98.2941 56.1796 98.2941 57.4264 98.2869 58.6158L98.1493 58.5751C100.457 54.9962 102.337 51.8851 102.624 49.3687C102.825 48.4254 102.886 47.4579 102.806 46.4969C102.779 46.2454 102.733 45.9962 102.669 45.7515C102.623 45.5935 102.603 45.5098 102.603 45.5098Z" fill="#263238"/>
<path d="M96.568 88.8497H96.4483C96.2049 88.8653 95.977 88.9749 95.813 89.1554C95.6489 89.3359 95.5616 89.5732 95.5693 89.8171C95.5771 90.0609 95.6794 90.2921 95.8546 90.4618C96.0298 90.6315 96.2642 90.7264 96.5082 90.7264C96.7521 90.7264 96.9864 90.6315 97.1617 90.4618C97.3369 90.2921 97.4392 90.0609 97.447 89.8171C97.4548 89.5732 97.3674 89.3359 97.2033 89.1554C97.0393 88.9749 96.8114 88.8653 96.568 88.8497Z" fill="white"/>
<path d="M96.5585 75.9042H96.4388C96.1953 75.9197 95.9675 76.0294 95.8035 76.2099C95.6394 76.3904 95.552 76.6277 95.5598 76.8715C95.5676 77.1153 95.6699 77.3465 95.8451 77.5163C96.0203 77.686 96.2547 77.7809 96.4986 77.7809C96.7426 77.7809 96.9769 77.686 97.1521 77.5163C97.3274 77.3465 97.4297 77.1153 97.4375 76.8715C97.4452 76.6277 97.3579 76.3904 97.1938 76.2099C97.0298 76.0294 96.8019 75.9197 96.5585 75.9042Z" fill="white"/>
<path d="M96.4373 64.3182C96.6828 64.3258 96.9217 64.2376 97.1035 64.0722C97.2852 63.9068 97.3955 63.6773 97.411 63.4321C97.4265 63.1869 97.3461 62.9452 97.1867 62.7582C97.0273 62.5712 96.8015 62.4535 96.5569 62.4301H96.4373C96.1922 62.4388 95.9601 62.5422 95.7899 62.7187C95.6196 62.8951 95.5244 63.1307 95.5244 63.3759C95.5244 63.6211 95.6196 63.8568 95.7899 64.0332C95.9601 64.2096 96.1922 64.3131 96.4373 64.3218V64.3182Z" fill="white"/>
<path d="M81.9394 30.3352C80.7109 29.0744 79.6272 27.6801 78.7087 26.1784C77.7889 24.6627 77.4066 22.8813 77.6234 21.1216C77.7886 20.1069 78.2217 19.1425 78.2887 18.1183C78.3832 16.7075 77.7909 15.2321 78.2887 13.9111C79.0713 11.8446 81.8533 11.5252 83.5404 10.0977C84.8567 8.98604 85.492 7.18162 86.9411 6.24351C88.2831 5.53393 89.8341 5.32564 91.3158 5.65599C92.7839 5.98947 94.2909 6.11952 95.7945 6.04248C96.8437 5.82171 97.8802 5.54451 98.8996 5.21207C99.9309 4.87992 101.05 4.95571 102.027 5.42386C102.5 5.67772 102.853 6.10796 103.01 6.62093C103.167 7.13389 103.115 7.68806 102.865 8.1628C103.31 8.01232 103.782 7.95556 104.25 7.9961C104.718 8.03663 105.173 8.17358 105.586 8.39833C105.999 8.62309 106.36 8.93079 106.649 9.3021C106.937 9.67341 107.145 10.1003 107.26 10.5559C107.434 11.4942 107.346 12.4624 107.003 13.3532C106.661 14.2441 106.079 15.0228 105.322 15.6031C103.788 16.7436 101.99 17.4775 100.096 17.7366C94.7783 18.8954 89.2194 18.0292 84.5061 15.3075" fill="#283237"/>
<path d="M100.562 48.1268C100.303 46.1238 100.092 44.4546 100.083 44.2464C100.083 44.2464 106.777 42.7411 106.407 35.9745C106.229 32.7055 105.312 25.9951 104.415 19.9405C103.947 16.8029 102.315 13.9564 99.8442 11.9668C97.3733 9.97726 94.2442 8.99041 91.079 9.20246L90.4269 9.24553C83.4174 10.1262 80.2561 16.5709 81.333 23.5529L85.1129 46.9626C85.1129 46.9626 86.7259 52.1401 90.1792 53.0376L94.5335 59.2597L95.2515 56.5818L98.4978 53.7555C99.1194 53.0244 99.6561 52.2252 100.098 51.3731C100.599 50.3695 100.762 49.2307 100.562 48.1268Z" fill="#F0AD8E"/>
<path d="M104.102 26.4441C104.124 26.7322 104.032 27.0176 103.847 27.2393C103.662 27.4611 103.397 27.6016 103.11 27.6311C102.97 27.6516 102.827 27.6439 102.69 27.6084C102.553 27.5729 102.425 27.5104 102.312 27.4246C102.2 27.3387 102.106 27.2312 102.036 27.1085C101.965 26.9857 101.92 26.8501 101.903 26.7097C101.881 26.4216 101.972 26.1363 102.157 25.9144C102.342 25.6925 102.607 25.5515 102.894 25.5215C103.034 25.5008 103.177 25.5084 103.314 25.5438C103.451 25.5792 103.58 25.6416 103.692 25.7275C103.805 25.8134 103.899 25.9209 103.969 26.0438C104.04 26.1666 104.084 26.3035 104.102 26.4441Z" fill="#263238"/>
<path d="M105.176 23.6954C105.049 23.8486 104.169 23.285 102.979 23.3676C101.788 23.4501 100.956 24.1035 100.819 23.9658C100.751 23.906 100.873 23.6356 101.235 23.3341C101.726 22.9424 102.327 22.7124 102.954 22.6759C103.572 22.6319 104.189 22.7861 104.714 23.1163C105.099 23.3724 105.24 23.6248 105.177 23.6942" fill="#263238"/>
<path d="M92.8588 27.2453C92.8809 27.5334 92.7895 27.8188 92.6042 28.0405C92.4189 28.2623 92.1543 28.4028 91.8668 28.4323C91.7269 28.4529 91.5842 28.4454 91.4472 28.4101C91.3102 28.3748 91.1817 28.3124 91.0692 28.2267C90.9567 28.1409 90.8624 28.0335 90.7921 27.9108C90.7217 27.7881 90.6766 27.6525 90.6595 27.5121C90.6383 27.2242 90.7303 26.9395 90.9157 26.7183C91.1011 26.4971 91.3655 26.3569 91.6526 26.3275C91.7926 26.307 91.9353 26.3147 92.0723 26.3501C92.2093 26.3856 92.3378 26.4481 92.4503 26.5339C92.5628 26.6197 92.657 26.7272 92.7274 26.85C92.7977 26.9728 92.8428 27.1084 92.86 27.2488" fill="#263238"/>
<path d="M93.5025 24.6992C93.3745 24.8524 92.495 24.2888 91.3056 24.3714C90.1162 24.4539 89.2834 25.1073 89.1446 24.9697C89.0776 24.9098 89.1984 24.6406 89.561 24.3379C90.052 23.9462 90.6522 23.7162 91.2793 23.6798C91.8978 23.636 92.5143 23.7903 93.0394 24.1201C93.4235 24.3762 93.5647 24.6298 93.5025 24.6992Z" fill="#263238"/>
<path d="M98.4051 33.2354C99.0207 32.9963 99.6639 32.8355 100.32 32.7568C100.621 32.7053 100.905 32.6251 100.942 32.4145C100.947 32.0991 100.855 31.7897 100.679 31.5279L99.6256 29.2735C98.6588 27.3706 97.8465 25.3931 97.1965 23.3601C98.3123 25.1821 99.2798 27.0908 100.09 29.0677C100.445 29.8607 100.784 30.6185 101.107 31.3412C101.323 31.6949 101.408 32.1135 101.346 32.5234C101.309 32.6338 101.248 32.7342 101.167 32.8172C101.085 32.9001 100.986 32.9634 100.876 33.0021C100.711 33.059 100.539 33.0948 100.365 33.1086C99.7204 33.236 99.0622 33.2811 98.4063 33.2426" fill="#263238"/>
<path d="M93.4858 20.015C93.39 20.3464 92.1911 20.2723 90.8066 20.5343C89.4162 20.7736 88.3178 21.2522 88.1132 20.9746C88.021 20.8406 88.1969 20.5235 88.6313 20.1801C89.2131 19.7555 89.884 19.469 90.593 19.3424C91.3021 19.2157 92.0307 19.2522 92.7235 19.449C93.25 19.6213 93.5264 19.8582 93.4858 20.015Z" fill="#263238"/>
<path d="M104.508 20.2807C104.317 20.5655 103.478 20.3393 102.492 20.392C101.503 20.4099 100.684 20.6959 100.472 20.4255C100.379 20.2939 100.492 20.0151 100.839 19.7339C101.309 19.3941 101.868 19.2014 102.447 19.1801C103.026 19.1588 103.599 19.3099 104.092 19.6142C104.458 19.8691 104.592 20.1395 104.508 20.2771" fill="#263238"/>
<path d="M99.1808 35.9114L96.4885 34.6562C96.3399 34.5709 96.1703 34.5294 95.9991 34.5366C95.8102 34.5805 95.6443 34.6931 95.5336 34.8524C95.219 35.2311 95.0229 35.6941 94.9699 36.1836C94.9169 36.6731 95.0093 37.1673 95.2357 37.6046C95.4819 38.0304 95.8696 38.3564 96.3313 38.5261C96.793 38.6957 97.2995 38.6982 97.7628 38.5331C98.2169 38.2844 98.5953 37.9176 98.858 37.4714C99.1206 37.0253 99.2578 36.5165 99.255 35.9988L99.1808 35.9114Z" fill="#B56050"/>
<path d="M97.839 38.7198C97.8462 38.7425 97.7193 38.8203 97.4453 38.8765C97.0583 38.9464 96.6598 38.9172 96.287 38.7915C95.7185 38.6 95.2416 38.2038 94.9493 37.6799C94.7661 37.3603 94.6563 37.0038 94.628 36.6364C94.5996 36.2691 94.6534 35.9 94.7854 35.556C94.922 35.2001 95.1352 34.8786 95.41 34.6143C95.5425 34.488 95.6891 34.3772 95.8467 34.2841C95.9391 34.226 96.0446 34.1921 96.1535 34.1854C96.2625 34.1787 96.3713 34.1995 96.4701 34.2458C96.6146 34.3168 96.7544 34.3967 96.8889 34.4851L97.2563 34.71L97.912 35.1205C98.366 35.362 98.7864 35.6622 99.1624 36.0131C98.6714 35.8592 98.2028 35.6416 97.7684 35.3658L97.0888 34.9984L96.7118 34.7902C96.5885 34.7167 96.4615 34.6496 96.3313 34.5892C96.2845 34.5663 96.2322 34.5567 96.1803 34.5616C96.1283 34.5664 96.0788 34.5855 96.037 34.6167C95.9076 34.6968 95.7872 34.7907 95.678 34.8967C95.4485 35.1243 95.2699 35.3979 95.1539 35.6996C95.0434 35.9912 94.997 36.3031 95.0176 36.6142C95.0383 36.9254 95.1255 37.2284 95.2736 37.5028C95.5136 37.9634 95.9073 38.3253 96.3864 38.5259C96.7169 38.6609 97.0715 38.7273 97.4286 38.7209C97.6846 38.715 97.8306 38.6886 97.839 38.7198Z" fill="#263238"/>
<path d="M96.9979 26.5756C96.9595 26.1252 96.8891 25.6782 96.7873 25.2378C96.4722 24.0429 95.7636 22.9891 94.7759 22.2464C94.0509 21.6983 93.1999 21.3409 92.3009 21.2071C91.402 21.0733 90.4838 21.1674 89.6306 21.4806C88.625 21.85 87.7509 22.5081 87.1178 23.3724C86.434 24.3001 86.0651 25.4224 86.0651 26.575C86.0651 27.7276 86.434 28.8498 87.1178 29.7776C87.7507 30.6423 88.6249 31.3009 89.6306 31.6706C90.3456 31.9294 91.1066 32.0364 91.8652 31.9846C92.6238 31.9329 93.3633 31.7235 94.0365 31.37C94.7097 31.0165 95.3018 30.5265 95.775 29.9313C96.2482 29.3362 96.5922 28.6489 96.7849 27.9134C96.8868 27.473 96.9571 27.0259 96.9955 26.5756C97 26.6053 97 26.6356 96.9955 26.6653C96.9955 26.7359 96.9955 26.8233 96.9955 26.9286C96.9964 27.0717 96.9852 27.2146 96.962 27.3558C96.9422 27.5503 96.9078 27.7431 96.8591 27.9325C96.7378 28.457 96.536 28.9595 96.2608 29.4222C95.8608 30.1054 95.3197 30.6955 94.6737 31.1531C94.0277 31.6107 93.2915 31.9254 92.5144 32.0762C91.5305 32.2647 90.5141 32.1862 89.5708 31.8489C88.5266 31.4721 87.6179 30.7937 86.9599 29.8997C86.2487 28.9394 85.8647 27.776 85.8647 26.581C85.8647 25.386 86.2487 24.2226 86.9599 23.2623C87.6172 22.3662 88.526 21.6857 89.5708 21.3071C90.5136 20.9681 91.53 20.888 92.5144 21.075C93.2926 21.2251 94.0297 21.5396 94.6767 21.9975C95.3236 22.4554 95.8653 23.0461 96.2656 23.7302C96.5408 24.1928 96.7426 24.6954 96.8639 25.2199C96.9126 25.4093 96.947 25.6021 96.9668 25.7966C96.99 25.9378 97.0012 26.0807 97.0003 26.2238C97.0003 26.3291 97.0003 26.4153 97.0003 26.487C97.0048 26.5168 97.0048 26.547 97.0003 26.5768" fill="#263238"/>
<path d="M110.176 26.0581C110.138 25.6195 110.069 25.1841 109.97 24.755C109.663 23.5912 108.972 22.5648 108.01 21.8414C107.304 21.3078 106.476 20.9599 105.6 20.8297C104.725 20.6995 103.831 20.791 103 21.0959C102.019 21.4549 101.167 22.0961 100.55 22.9386C99.8837 23.8421 99.5244 24.9351 99.5244 26.0575C99.5244 27.1799 99.8837 28.2728 100.55 29.1763C101.167 30.0186 102.02 30.6596 103 31.019C103.697 31.2715 104.438 31.376 105.177 31.3258C105.916 31.2757 106.637 31.072 107.293 30.7278C107.949 30.3836 108.526 29.9065 108.987 29.3268C109.448 28.7471 109.783 28.0777 109.971 27.3611C110.07 26.9321 110.138 26.4967 110.176 26.0581C110.185 26.1724 110.186 26.2872 110.177 26.4015C110.178 26.5409 110.167 26.6802 110.145 26.8179C110.126 27.0072 110.092 27.1948 110.044 27.3791C109.8 28.3883 109.271 29.3059 108.519 30.0224C107.768 30.7389 106.826 31.224 105.806 31.4199C104.846 31.6027 103.854 31.5246 102.934 31.1937C101.918 30.8262 101.033 30.1653 100.392 29.2948C99.6984 28.3585 99.3242 27.2243 99.3242 26.0593C99.3242 24.8943 99.6984 23.76 100.392 22.8237C101.033 21.9506 101.918 21.2875 102.937 20.9188C103.857 20.5879 104.848 20.5098 105.809 20.6927C106.828 20.8887 107.77 21.3739 108.521 22.0903C109.273 22.8068 109.802 23.7243 110.047 24.7335C110.094 24.9177 110.128 25.1053 110.147 25.2947C110.17 25.4323 110.181 25.5716 110.18 25.7111C110.189 25.8254 110.189 25.9402 110.18 26.0545" fill="#263238"/>
<path d="M99.4174 24.8414C99.3959 24.8641 99.2691 24.7564 99.0345 24.6463C98.7319 24.5026 98.4004 24.4297 98.0653 24.4333C97.7316 24.441 97.404 24.5253 97.1081 24.6798C96.8783 24.7995 96.7563 24.912 96.7335 24.8904C96.7108 24.8689 96.8041 24.7217 97.0339 24.559C97.3388 24.353 97.6969 24.2399 98.0648 24.2336C98.4327 24.2272 98.7945 24.3278 99.1063 24.5231C99.3457 24.6762 99.4378 24.8258 99.4198 24.8426" fill="#263238"/>
<path d="M86.2985 25.7937C85.5376 26.4868 84.7326 27.1299 83.8886 27.719C83.0832 28.361 82.237 28.9501 81.3555 29.4827C82.1171 28.7906 82.9229 28.1487 83.7678 27.561C84.5724 26.9191 85.4177 26.33 86.2985 25.7973" fill="#263238"/>
<path d="M100.053 44.1429C96.9347 44.4118 93.8066 43.7452 91.0684 42.2284C91.0684 42.2284 93.4771 46.956 100.184 45.8947L100.053 44.1429Z" fill="#93471F"/>
<path d="M82.2118 28.5218C82.0922 28.4775 77.4746 27.4568 77.9317 32.0732C78.3888 36.6896 83.3881 35.1843 83.3845 35.0503C83.3809 34.9162 82.2118 28.5218 82.2118 28.5218Z" fill="#F0AD8E"/>
<path d="M81.2689 33.5292C81.2485 33.516 81.1947 33.5926 81.0643 33.6704C80.8816 33.7709 80.667 33.7963 80.466 33.741C80.1498 33.5812 79.8817 33.3402 79.6893 33.0426C79.4969 32.7451 79.3871 32.4018 79.3711 32.0479C79.3208 31.6536 79.3588 31.253 79.4824 30.8752C79.5112 30.7268 79.5759 30.5878 79.6708 30.4701C79.7657 30.3525 79.8879 30.2599 80.0268 30.2003C80.1172 30.167 80.2163 30.1663 80.3071 30.1982C80.398 30.23 80.4749 30.2926 80.5246 30.375C80.5988 30.4947 80.5785 30.594 80.6048 30.5964C80.6311 30.5988 80.6957 30.5091 80.6419 30.3212C80.6043 30.2092 80.5296 30.1133 80.4301 30.0496C80.2933 29.966 80.1292 29.9394 79.973 29.9754C79.7873 30.0321 79.6192 30.1353 79.4845 30.2752C79.3499 30.415 79.2532 30.587 79.2036 30.7747C79.0458 31.1944 78.994 31.6465 79.0528 32.0909C79.0699 32.5042 79.2093 32.903 79.4535 33.2369C79.6976 33.5707 80.0355 33.8245 80.4241 33.966C80.5507 33.9898 80.6811 33.9846 80.8054 33.9508C80.9298 33.917 81.0449 33.8555 81.1421 33.7709C81.2713 33.6393 81.2856 33.5352 81.2689 33.5292Z" fill="#894B29"/>
<path d="M104.068 13.6355C103.752 15.4734 100.026 17.1534 96.9374 17.0661C94.092 16.9823 92.6836 15.5704 90.6135 14.5664C89.2973 13.9311 89.2973 13.9311 87.5288 14.2206C86.0929 14.4599 85.3486 16.1495 84.5374 17.3628C86.0726 20.7132 85.4515 24.6068 84.803 28.236C84.775 28.6452 84.6107 29.0332 84.3363 29.3381C84.0415 29.5181 83.6926 29.5885 83.351 29.5368C83.0094 29.4852 82.697 29.3148 82.4685 29.0557C81.7079 28.2418 81.202 27.2232 81.0135 26.1253C80.3658 23.6794 80.2104 21.1292 80.5564 18.6228C80.9112 16.1079 81.9967 13.7525 83.6782 11.849C85.8709 9.53255 88.8784 8.15945 92.065 8.02001C95.2395 7.90439 98.3695 8.79337 101.009 10.5603C102.267 11.3153 103.317 12.3718 104.064 13.6343" fill="#283237"/>
<g opacity="0.3">
<path d="M82.6895 47.049C82.4182 49.3231 82.7273 51.6289 83.5881 53.7512C84.449 55.8735 85.8334 57.7432 87.6122 59.1858C87.739 59.3132 87.8949 59.4078 88.0665 59.4616C88.238 59.5154 88.4201 59.5267 88.5969 59.4945C88.8242 59.3844 89.0052 59.1975 89.1079 58.9668C90.1332 57.1953 90.5189 55.1254 90.2003 53.1036C89.6224 54.6292 89.1234 56.1237 88.5407 57.72C85.3507 55.7923 83.3655 51.6797 82.6895 47.049Z" fill="black"/>
</g>
<path opacity="0.3" d="M95.0762 57.4189L97.7613 56.4377L98.2052 60.9774C98.2052 60.9774 101.102 55.6994 102.301 53.2895C103.5 50.8796 102.883 46.6294 102.883 46.6294C102.957 49.6265 102.092 52.5718 100.409 55.0532L98.2184 58.6154V54.8857L95.0762 57.4189Z" fill="black"/>
<g opacity="0.3">
<path d="M63.8466 80.4887C62.6211 79.9683 61.2749 79.7996 59.9589 80.0017C58.5569 80.1177 57.2157 80.6252 56.088 81.4663C55.5312 81.8922 55.0864 82.4473 54.7921 83.0835C54.4977 83.7198 54.3626 84.4181 54.3985 85.1182L54.5325 85.1386C54.8702 83.9551 55.5393 82.8929 56.4609 82.0773C57.3825 81.2617 58.5182 80.7267 59.734 80.5354C60.9277 80.4573 62.1236 80.6514 63.2313 81.1031C64.339 81.5547 65.3297 82.2522 66.1284 83.1427C66.0211 82.5363 65.7526 81.97 65.3511 81.5031C64.9497 81.0361 64.43 80.6858 63.8466 80.4887Z" fill="black"/>
</g>
<g opacity="0.3">
<path d="M131.72 83.0801C130.788 82.124 129.57 81.4967 128.25 81.2924C127.101 81.1012 125.923 81.1701 124.804 81.494C123.684 81.8178 122.652 82.3885 121.782 83.1639L122.293 82.7475C123.592 81.9639 125.084 81.559 126.601 81.5784C128.123 81.6068 129.583 82.1897 130.706 83.2177C131.65 84.2374 132.39 85.4283 132.887 86.7261C132.981 86.0697 132.925 85.4004 132.723 84.7688C132.521 84.1372 132.178 83.5598 131.72 83.0801Z" fill="black"/>
</g>
<path d="M114.416 61.9987C114.443 61.8728 114.483 61.7501 114.536 61.6326L114.919 60.655C115.244 59.8317 115.688 58.6926 116.162 57.4243C116.636 56.1559 117.039 55.0048 117.331 54.1684C117.468 53.7783 117.586 53.4505 117.68 53.18C117.716 53.0552 117.766 52.9348 117.829 52.821C117.814 52.9489 117.786 53.0748 117.745 53.1968C117.681 53.4361 117.58 53.7819 117.449 54.2043C117.187 55.0515 116.797 56.2133 116.327 57.4805C115.857 58.7477 115.389 59.8736 115.037 60.6933C114.859 61.1001 114.712 61.4256 114.604 61.6505C114.555 61.7734 114.492 61.8903 114.416 61.9987Z" fill="#263238"/>
<path d="M72.06 62.3276C72.0133 62.3372 71.6471 60.7386 71.2439 58.7559C70.8407 56.7732 70.5523 55.1662 70.5989 55.1506C70.6456 55.1351 71.0118 56.7397 71.415 58.7224C71.8183 60.7051 72.1066 62.3169 72.06 62.3276Z" fill="#263238"/>
<path d="M71.4459 82.3156C71.5536 82.3694 70.2158 71.8456 70.2158 71.8456C70.2158 71.8456 71.0534 63.8585 71.5321 63.4887L71.5452 60.6696C71.5452 60.6696 72.8519 59.8763 73.2013 61.1566C73.2013 61.1566 74.3608 60.1515 74.5618 62.5446C74.7628 64.9378 74.8071 67.386 74.8071 67.386L77.3845 73.8307L77.8081 74.0461C77.9964 72.1009 78.2892 70.1672 78.6851 68.2535C79.0082 67.5104 79.2296 65.7036 80.4489 65.98C81.6682 66.2564 81.7723 67.2639 81.5545 68.9092C81.2888 70.3646 81.1583 71.8415 81.1645 73.321C81.4678 75.0593 81.6139 76.8213 81.6012 78.5859C81.3472 80.4923 80.5731 82.2919 79.3636 83.7873C78.0984 85.5965 76.6856 87.2978 75.1397 88.8739C74.752 89.1731 71.4459 82.3156 71.4459 82.3156Z" fill="#F0AD8E"/>
<path d="M72.7334 73.751C72.7189 73.6013 72.7212 73.4503 72.7405 73.3011C72.7645 72.9781 72.7908 72.5689 72.8243 72.0783C72.9021 71.0468 73.0229 69.6217 73.1665 68.0494C73.2407 67.2669 73.3113 66.5178 73.3747 65.8358C73.4164 65.5202 73.4196 65.2008 73.3843 64.8845C73.3531 64.6155 73.2404 64.3624 73.0612 64.1594C72.927 64.0143 72.7643 63.8986 72.5834 63.8193C72.4024 63.7401 72.207 63.699 72.0094 63.6987C71.8611 63.7033 71.7136 63.7225 71.5691 63.7561C71.5691 63.7489 71.6026 63.7322 71.6732 63.7023C71.7801 63.6629 71.8922 63.6391 72.0059 63.6317C72.2176 63.6196 72.4294 63.6532 72.627 63.7303C72.8245 63.8073 73.0033 63.9259 73.151 64.078C73.3538 64.2951 73.4842 64.5698 73.5243 64.8641C73.5672 65.192 73.5696 65.524 73.5315 65.8525C73.4717 66.5381 73.4035 67.2884 73.3364 68.0698C73.1917 69.642 73.0505 71.0612 72.9428 72.0914C72.8853 72.5784 72.8386 72.9888 72.8016 73.3083C72.7927 73.4577 72.7699 73.6059 72.7334 73.751Z" fill="#93471F"/>
<path d="M74.1256 69.4467C73.9379 69.7026 73.7842 69.9817 73.6685 70.2771C73.4636 71.022 73.3199 71.7823 73.2389 72.5506C73.1013 73.4516 72.9637 74.2641 72.8596 74.8492C72.8185 75.1695 72.7488 75.4855 72.6514 75.7933C72.6505 75.4698 72.6798 75.147 72.7387 74.8289C72.8129 74.2378 72.9302 73.4205 73.0678 72.5207C73.146 71.7414 73.3093 70.973 73.5548 70.2293C73.6447 70.0052 73.7708 69.7974 73.9281 69.6143C74.0382 69.4898 74.1184 69.4395 74.1256 69.4467Z" fill="#93471F"/>
<path d="M73.1953 61.0183C73.2417 61.1242 73.2723 61.2362 73.2862 61.3509C73.3329 61.5663 73.3904 61.8786 73.4538 62.2687C73.5818 63.0453 73.723 64.1234 73.8127 65.3236C73.9025 66.5237 73.9204 67.6114 73.9073 68.3975C73.9001 68.7912 73.8905 69.1155 73.8738 69.3285C73.8768 69.4431 73.8631 69.5576 73.8331 69.6683C73.7924 69.2464 73.7756 68.8225 73.7828 68.3987C73.7625 67.6126 73.7254 66.5309 73.638 65.3379C73.5507 64.1449 73.4299 63.0644 73.3317 62.2867C73.2634 61.8667 73.2179 61.4432 73.1953 61.0183Z" fill="#93471F"/>
<path d="M80.6081 70.8829C80.4804 70.9642 80.3349 71.0134 80.184 71.0264C80.0331 71.0393 79.8814 71.0155 79.7418 70.9571C79.2476 70.8087 79.0238 70.4293 79.0633 70.4126C79.2953 70.5589 79.5391 70.6858 79.792 70.7919C80.0611 70.8441 80.334 70.8745 80.6081 70.8829Z" fill="#93471F"/>
<path d="M71.5844 81.004L64.7735 83.8662H60.7183C60.7183 83.8662 56.7062 85.119 56.0876 88.8798C55.469 92.6407 55.3816 94.5779 57.1466 95.0422C60.206 95.5738 63.3422 95.4707 66.3602 94.7394C68.8299 93.9198 75.3009 88.698 75.3009 88.698L75.9255 84.9216L71.5844 81.004Z" fill="#F0AD8E"/>
<path d="M73.1816 85.1653C73.172 85.1725 73.1038 85.1115 72.9865 84.9871C72.8231 84.8127 72.6746 84.625 72.5426 84.4258C72.1175 83.7606 71.7967 83.0343 71.5914 82.272C71.3803 81.5148 71.2396 80.7398 71.1713 79.9567C71.1263 79.634 71.1175 79.3073 71.145 78.9827C71.218 79.2977 71.2676 79.6176 71.2934 79.9399C71.3971 80.7099 71.5518 81.4722 71.7565 82.2218C71.9593 82.9692 72.2573 83.6874 72.6431 84.3588C72.9566 84.8662 73.2067 85.145 73.1816 85.1653Z" fill="#93471F"/>
<path d="M76.1199 86.3574C76.3004 85.8855 76.43 85.3957 76.5064 84.8963C76.657 83.6806 76.3292 82.4539 75.5922 81.4753C75.1794 80.8938 74.7116 80.3901 74.3227 79.9031C73.9643 79.4755 73.6556 79.0086 73.4025 78.5115C73.234 78.1721 73.1185 77.8089 73.0603 77.4345C73.033 77.2986 73.0298 77.1588 73.0507 77.0217C73.1265 77.5224 73.2833 78.0073 73.515 78.4576C73.7783 78.9371 74.0916 79.3876 74.4495 79.8014C74.8456 80.28 75.3158 80.7825 75.7394 81.3736C76.1511 81.9272 76.4406 82.5618 76.589 83.2355C76.703 83.7868 76.7181 84.3541 76.6332 84.9107C76.5765 85.2817 76.4715 85.6438 76.3209 85.9876C76.2821 86.0815 76.2361 86.1724 76.1833 86.2592C76.1462 86.3322 76.1259 86.3598 76.1199 86.3574Z" fill="#93471F"/>
<path opacity="0.801" d="M46.8054 104.643H140.32V109.384C140.32 109.701 140.194 110.006 139.969 110.23C139.745 110.454 139.44 110.58 139.123 110.58H48.002C47.6846 110.58 47.3803 110.454 47.1559 110.23C46.9315 110.006 46.8054 109.701 46.8054 109.384V104.643Z" fill="#1F232B"/>
<path d="M50.093 107.687H136.755" stroke="white" stroke-linecap="round"/>
<path d="M50.093 107.687H79.4066" stroke="#C1483B" stroke-width="2" stroke-linecap="round"/>
<path d="M81.448 110.093C82.777 110.093 83.8543 109.015 83.8543 107.686C83.8543 106.357 82.777 105.28 81.448 105.28C80.1191 105.28 79.0417 106.357 79.0417 107.686C79.0417 109.015 80.1191 110.093 81.448 110.093Z" fill="#B35041"/>
<path d="M112.641 22.8249L115.124 18.4478C113.589 15.955 113.043 12.9783 113.592 10.1029C114.14 7.22748 115.745 4.66127 118.089 2.90861C120.434 1.15596 123.349 0.343608 126.262 0.631231C129.175 0.918854 131.876 2.28565 133.832 4.46298C135.789 6.64031 136.86 9.47071 136.836 12.3979C136.812 15.3251 135.694 18.1374 133.701 20.282C131.709 22.4267 128.987 23.7486 126.069 23.988C123.152 24.2273 120.25 23.3669 117.935 21.5757L112.641 22.8249Z" fill="#FAFAFA"/>
<path d="M112.628 22.8222L117.932 21.6089L117.986 21.5981L117.953 21.5527L117.901 21.6041C118.644 22.1812 119.453 22.6691 120.31 23.058C121.331 23.5151 122.413 23.8238 123.521 23.9745C124.136 24.0603 124.756 24.0915 125.376 24.0679C125.696 24.0511 126.021 24.0427 126.349 24.014L127.338 23.8644C130.287 23.286 132.904 21.6067 134.659 19.1679C135.633 17.8176 136.307 16.2752 136.638 14.6437C136.976 12.9176 136.928 11.1383 136.499 9.43263C136.056 7.65078 135.195 6.00019 133.987 4.61763L133.508 4.09115C133.35 3.91286 133.163 3.76926 132.993 3.60533C132.823 3.4414 132.654 3.27748 132.462 3.14107L131.9 2.71987C131.715 2.57761 131.52 2.44923 131.317 2.33578L130.719 1.9768C130.509 1.87509 130.304 1.77578 130.097 1.67407C129.893 1.56861 129.683 1.47512 129.468 1.39407C127.801 0.734215 126.006 0.458958 124.218 0.588788C122.526 0.703213 120.881 1.18984 119.399 2.0139C116.738 3.49664 114.748 5.94516 113.84 8.85349C113.477 10.0896 113.305 11.3741 113.331 12.6622C113.363 13.7802 113.557 14.8877 113.906 15.9503C114.197 16.833 114.591 17.6784 115.08 18.4691V18.4248C113.51 21.2356 112.744 22.6069 112.622 22.8222L115.135 18.4619L115.147 18.4452L115.135 18.4284C114.654 17.6384 114.267 16.7951 113.981 15.9156C113.641 14.8593 113.455 13.7596 113.427 12.6502C113.407 11.374 113.581 10.1022 113.944 8.87862C114.849 6.00303 116.822 3.58412 119.458 2.12039C120.924 1.30874 122.551 0.829943 124.223 0.718019C125.989 0.593577 127.761 0.867129 129.408 1.51852C129.621 1.59756 129.828 1.69029 130.028 1.79613C130.232 1.89544 130.439 1.99356 130.642 2.09527L131.231 2.45424C131.432 2.5669 131.624 2.6945 131.805 2.83594L132.359 3.25115C132.541 3.39468 132.716 3.54765 132.882 3.70944C133.048 3.87098 133.241 4.01457 133.391 4.18807L133.863 4.70858C135.056 6.07445 135.906 7.70497 136.343 9.46493C136.766 11.1489 136.814 12.9055 136.484 14.6102C136.16 16.223 135.495 17.7479 134.533 19.083C132.801 21.4992 130.216 23.1672 127.3 23.7496L126.321 23.8991C125.996 23.9279 125.674 23.9362 125.364 23.9554C124.75 23.981 124.135 23.9518 123.526 23.868C122.426 23.7224 121.351 23.4206 120.336 22.9718C119.484 22.5902 118.678 22.1112 117.936 21.5443L117.718 21.378L117.884 21.5957L117.905 21.5395C114.551 22.3568 112.879 22.7636 112.628 22.8222Z" fill="#263238"/>
<path d="M128.329 11.8246C128.329 12.051 128.396 12.2724 128.522 12.4607C128.648 12.6491 128.827 12.7958 129.036 12.8825C129.245 12.9692 129.475 12.9919 129.698 12.9477C129.92 12.9035 130.124 12.7944 130.284 12.6343C130.444 12.4741 130.553 12.2701 130.597 12.048C130.642 11.8258 130.619 11.5956 130.532 11.3863C130.446 11.1771 130.299 10.9983 130.11 10.8724C129.922 10.7466 129.701 10.6794 129.474 10.6794C129.171 10.6798 128.88 10.8005 128.665 11.0152C128.45 11.2299 128.329 11.521 128.329 11.8246Z" fill="#263238"/>
<path d="M123.736 11.8246C123.736 12.051 123.803 12.2724 123.929 12.4607C124.055 12.6491 124.234 12.7958 124.443 12.8825C124.652 12.9692 124.882 12.9919 125.105 12.9477C125.327 12.9035 125.531 12.7944 125.691 12.6343C125.851 12.4741 125.96 12.2701 126.004 12.048C126.049 11.8258 126.026 11.5956 125.939 11.3863C125.852 11.1771 125.706 10.9983 125.517 10.8724C125.329 10.7466 125.108 10.6794 124.881 10.6794C124.578 10.6798 124.287 10.8005 124.072 11.0152C123.857 11.2299 123.736 11.521 123.736 11.8246Z" fill="#263238"/>
<path d="M119.219 11.2516C119.106 11.4477 119.053 11.673 119.068 11.8991C119.083 12.1251 119.164 12.3417 119.302 12.5214C119.44 12.7011 119.628 12.836 119.842 12.9088C120.057 12.9817 120.288 12.9893 120.507 12.9307C120.726 12.8721 120.922 12.7499 121.071 12.5797C121.221 12.4094 121.316 12.1986 121.346 11.9741C121.375 11.7495 121.338 11.5212 121.238 11.318C121.137 11.1149 120.979 10.946 120.783 10.8328C120.52 10.681 120.208 10.6399 119.914 10.7184C119.621 10.797 119.371 10.9887 119.219 11.2516Z" fill="#263238"/>
</svg>
