<svg xmlns="http://www.w3.org/2000/svg" xmlns:xlink="http://www.w3.org/1999/xlink" width="40" height="40" viewBox="0 0 40 40">
  <defs>
    <clipPath id="clip-path">
      <rect id="Rectangle_15218" data-name="Rectangle 15218" width="40" height="40" transform="translate(0 0)" fill="#fff" stroke="#707070" stroke-width="1"/>
    </clipPath>
    <clipPath id="clip-path-2">
      <rect id="Rectangle_17948" data-name="Rectangle 17948" width="31.43" height="31.43" transform="translate(0)" fill="#fff" stroke="#707070" stroke-width="1"/>
    </clipPath>
  </defs>
  <g id="Mask_Group_34" data-name="Mask Group 34" transform="translate(0 0)" clip-path="url(#clip-path)">
    <g id="Mask_Group_602" data-name="Mask Group 602" transform="translate(4.33 4.317)" clip-path="url(#clip-path-2)">
      <g id="IT" transform="translate(2.215 2.965)">
        <g id="Group_61491" data-name="Group 61491" transform="translate(0 0)">
          <path id="Path_60431" data-name="Path 60431" d="M25.135,21.333H2.285A2.288,2.288,0,0,0,0,23.618v16A2.288,2.288,0,0,0,2.285,41.9h8a5.164,5.164,0,0,1-.852,3.058,1.123,1.123,0,0,1-.865.37.571.571,0,0,0,0,1.143H18.851a.571.571,0,0,0,0-1.143,1.118,1.118,0,0,1-.864-.369,5.173,5.173,0,0,1-.852-3.058h8a2.288,2.288,0,0,0,2.285-2.285v-16A2.288,2.288,0,0,0,25.135,21.333ZM13.71,40.759a1.146,1.146,0,1,1,1.146-1.146A1.148,1.148,0,0,1,13.71,40.759ZM2.285,37.328V23.618h22.85v13.71Z" transform="translate(0 -21.333)" fill="#2267b5"/>
        </g>
      </g>
    </g>
  </g>
</svg>
