<svg xmlns="http://www.w3.org/2000/svg" xmlns:xlink="http://www.w3.org/1999/xlink" width="36" height="36" viewBox="0 0 36 36">
  <defs>
    <clipPath id="clip-path">
      <circle id="Ellipse_2602" data-name="Ellipse 2602" cx="18" cy="18" r="18" transform="translate(8346 2069)" fill="#fff" stroke="#707070" stroke-width="1"/>
    </clipPath>
  </defs>
  <g id="Mask_Group_119347" data-name="Mask Group 119347" transform="translate(-8346 -2069)" clip-path="url(#clip-path)">
    <g id="technical-support" transform="translate(8354.859 2078.547)">
      <g id="Group_136214" data-name="Group 136214" transform="translate(0 0)">
        <g id="Group_136213" data-name="Group 136213" transform="translate(4.118 0)">
          <path id="Path_105118" data-name="Path 105118" d="M202.618,89.643a1.276,1.276,0,1,0-2.519.289h2.486A1.28,1.28,0,0,0,202.618,89.643Z" transform="translate(-196.663 -85.043)" fill="#873694"/>
          <path id="Path_105119" data-name="Path 105119" d="M118.074,3.976a.5.5,0,0,1-.365-.35,3.521,3.521,0,0,0-.317-.756.5.5,0,0,1,.01-.511l.431-.7-.63-.62-.72.431a.5.5,0,0,1-.5.009,3.657,3.657,0,0,0-.77-.316A.5.5,0,0,1,114.86.8l-.2-.8h-.9l-.2.8a.5.5,0,0,1-.353.363,3.653,3.653,0,0,0-.771.314.5.5,0,0,1-.5-.01l-.723-.432-.63.62.43.7a.5.5,0,0,1,.009.512,3.522,3.522,0,0,0-.319.755.5.5,0,0,1-.365.348l-.816.2v.728h2.417a2.316,2.316,0,0,1-.018-.288,2.281,2.281,0,1,1,4.562,0,2.31,2.31,0,0,1-.019.288h2.417V4.172Z" transform="translate(-109.527 0)" fill="#873694"/>
        </g>
        <path id="Path_105120" data-name="Path 105120" d="M0,406.429V408.4a.347.347,0,0,0,.347.347h16.9a.347.347,0,0,0,.347-.347v-1.968H12.107l-.382.949a.5.5,0,0,1-.466.315H6.326a.5.5,0,0,1-.466-.315l-.382-.949Z" transform="translate(0 -391.15)" fill="#873694"/>
      </g>
      <path id="Path_105121" data-name="Path 105121" d="M50.294,156.78H36.056a.336.336,0,0,0-.335.335v8.045H40.2a.5.5,0,0,1,.466.315l.382.949H45.3l.382-.949a.5.5,0,0,1,.466-.315h4.483v-8.045a.336.336,0,0,0-.335-.335Zm-8.889,3.6-1.827.916,1.827.916v.964l-3.056-1.574v-.612l3.056-1.574Zm1.456,2.848h-.923l1.725-4.482h.929ZM48,161.613l-3.056,1.567v-.964l1.84-.915-1.84-.915v-.964L48,160.989Z" transform="translate(-34.378 -150.886)" fill="#873694"/>
    </g>
  </g>
</svg>
