<svg xmlns="http://www.w3.org/2000/svg" xmlns:xlink="http://www.w3.org/1999/xlink" width="36" height="36" viewBox="0 0 36 36">
  <defs>
    <clipPath id="clip-path">
      <circle id="Ellipse_2613" data-name="Ellipse 2613" cx="18" cy="18" r="18" transform="translate(8249 2069)" fill="#fff" stroke="#707070" stroke-width="1"/>
    </clipPath>
  </defs>
  <g id="Mask_Group_119368" data-name="Mask Group 119368" transform="translate(-8249 -2069)" clip-path="url(#clip-path)">
    <g id="profile" transform="translate(8257.956 2078.666)">
      <circle id="Ellipse_2612" data-name="Ellipse 2612" cx="3.773" cy="3.773" r="3.773" transform="translate(3.019)" fill="#e32726"/>
      <path id="Path_105169" data-name="Path 105169" d="M8.7,18.641a1.891,1.891,0,0,1,.153-2.113A1.891,1.891,0,0,1,8.7,14.415l.61-1.056a1.892,1.892,0,0,1,1.635-.943,1.921,1.921,0,0,1,.272.02,1.959,1.959,0,0,1,.088-.179A3.559,3.559,0,0,0,10,12H3.584A3.589,3.589,0,0,0,0,15.584v2.641a.566.566,0,0,0,.566.566H8.791Z" transform="translate(0 -2.944)" fill="#e32726"/>
      <path id="Path_105170" data-name="Path 105170" d="M19.616,17.127a2.742,2.742,0,0,0,.035-.354,2.868,2.868,0,0,0-.035-.354l.68-.515a.378.378,0,0,0,.1-.49l-.61-1.056a.377.377,0,0,0-.473-.159l-.783.33a2.8,2.8,0,0,0-.618-.368l-.1-.831A.378.378,0,0,0,17.432,13h-1.22a.377.377,0,0,0-.374.331l-.1.831a2.815,2.815,0,0,0-.618.368l-.783-.33a.377.377,0,0,0-.473.159l-.61,1.056a.378.378,0,0,0,.1.49l.68.515a2.743,2.743,0,0,0-.035.354,2.869,2.869,0,0,0,.035.354l-.68.515a.378.378,0,0,0-.1.49l.61,1.057a.377.377,0,0,0,.473.159l.783-.331a2.8,2.8,0,0,0,.618.368l.1.831a.377.377,0,0,0,.374.331h1.22a.377.377,0,0,0,.374-.331l.1-.831a2.816,2.816,0,0,0,.618-.368l.783.33a.377.377,0,0,0,.473-.159l.61-1.057a.378.378,0,0,0-.1-.49Zm-2.794,1.155a1.509,1.509,0,1,1,1.509-1.509A1.509,1.509,0,0,1,16.822,18.282Z" transform="translate(-3.239 -3.19)" fill="#e32726"/>
    </g>
  </g>
</svg>
